<svg id="Forside" xmlns="http://www.w3.org/2000/svg" viewBox="0 0 1920 1080"><defs><style>.cls-1{fill:lime;opacity:0.1;}</style></defs><path id="Tema6" class="cls-1" d="M1277.5,1012c-87.62,16.74-145.87,44.23-240,25-66.66-13.62-101.46-40.48-174-38-70.67,2.41-99.45,30-149,45-184.18,55.68-284.9-175.14-481.7-142.22-127.13,21.26-214.14,130-293,92.93a40.14,40.14,0,0,1-15.34-13.06c-62-84.65,69.3-428.23,280-638.78,25.3-25.29,49.91-46.82,77.92-66.28,70.12-48.73,316-226.22,608.38-204.17C1148.49,91.85,1198.92,245.73,1355.5,190c114.82-40.86,170.21-153,284-136,51.06,7.62,85.43,37,103,52,92,78.66,104,223.84,124,511,4.66,66.78,5.36,116.33,6.74,215.43,1.55,110.16,2.12,165.52-7.69,179C1796,1107.32,1586.33,953,1277.5,1012Z"/></svg>