<svg id="Forside" xmlns="http://www.w3.org/2000/svg" viewBox="0 0 1895 952"><defs><style>.cls-1{fill:#c3eac3;}.cls-2,.cls-6{opacity:0.6;}.cls-10,.cls-3,.cls-5,.cls-6,.cls-8,.cls-9{fill:lime;}.cls-3{opacity:0.7;}.cls-4,.cls-5{opacity:0.5;}.cls-7,.cls-8{opacity:0.4;}.cls-9{opacity:0.7;}</style></defs><rect class="cls-1" y="1" width="1895" height="951"/><g class="cls-2"><path class="cls-3" d="M3.49,796.85c0-1.88.06-3.53.2-4.94a14.15,14.15,0,0,1,.81-3.74A23.26,23.26,0,0,0,13,786.25,8.42,8.42,0,0,0,17.22,781a35,35,0,0,0,1.22-10.41V685.35a34.8,34.8,0,0,0-1.22-10.5A8.8,8.8,0,0,0,13,669.59a19.92,19.92,0,0,0-8.48-1.81,14.41,14.41,0,0,1-.81-3.84c-.14-1.48-.2-3.1-.2-4.85,2.29.14,4.84.24,7.67.3l9,.21c3.16.06,6.23.1,9.19.1h8.08V766.55c0,5.8.61,10.2,1.82,13.24a10.79,10.79,0,0,0,5.86,6.26,32,32,0,0,0,10.3,2.12,14.56,14.56,0,0,1,.81,3.74c.13,1.41.2,3.06.2,4.94q-3-.2-7.17-.3l-8.79-.2q-4.65-.11-9.49-.1-7.08,0-15.25.1T3.49,796.85Zm85-103.42a32.62,32.62,0,0,0-3.23-12.12q-2.83-5.85-9.8-9.7t-20.1-3.83h-23l4.45-8.08q15.95,0,27.37-.1c7.6-.07,13.84-.17,18.68-.31s8.35-.2,10.51-.2c.27,3,.6,6.4,1,10.3s.87,7.75,1.41,11.52S96.94,688,97.62,691a8.61,8.61,0,0,1-3.94,1.91A24.1,24.1,0,0,1,88.53,693.43Zm-5,61.41c-1.75,0-3.37-.07-4.85-.2a26.59,26.59,0,0,1-4.44-.81q-.81-10.5-5.56-14.24t-17.27-3.74H36.82v-8.69H51.36q12.53,0,17.37-3.23t5-13.13a31.53,31.53,0,0,1,4.85-1.11,36.37,36.37,0,0,1,4.85-.3c-.14,3.37-.24,7-.3,10.91s-.1,7.61-.1,11.11,0,7.4.1,11.71S83.34,751.34,83.48,754.84Z"/><path class="cls-3" d="M131.75,685.35a34.85,34.85,0,0,0-1.21-10.5,8.8,8.8,0,0,0-4.24-5.26,19.92,19.92,0,0,0-8.48-1.81,14.41,14.41,0,0,1-.81-3.84c-.14-1.48-.2-3.1-.2-4.85,2.55.14,5.15.24,7.77.3l8.19.21c2.82.06,5.65.1,8.48.1s5.79,0,8.48-.1l8-.21q3.94-.09,8-.3c0,1.75-.07,3.37-.2,4.85a15.24,15.24,0,0,1-.81,3.84,20.12,20.12,0,0,0-8.38,1.81,8.7,8.7,0,0,0-4.34,5.26,34.8,34.8,0,0,0-1.22,10.5v85.24A35,35,0,0,0,152,781a8.34,8.34,0,0,0,4.34,5.25,23.66,23.66,0,0,0,8.38,1.92,15,15,0,0,1,.81,3.74c.13,1.41.2,3.06.2,4.94q-6.06-.4-12.32-.5t-12.12-.1q-5.87,0-12.52.1t-11.92.5c0-1.88.06-3.53.2-4.94a14.15,14.15,0,0,1,.81-3.74,23.26,23.26,0,0,0,8.48-1.92,8.42,8.42,0,0,0,4.24-5.25,35.09,35.09,0,0,0,1.21-10.41Z"/><path class="cls-3" d="M241.84,787.16q11.31,0,17.78-2.43a21.54,21.54,0,0,0,10.4-8.08,61.65,61.65,0,0,0,7.17-14.94,23.17,23.17,0,0,1,5.05,1.91,17.33,17.33,0,0,1,3.84,2.93,121.77,121.77,0,0,0-3.74,15q-1.51,8.09-2.52,15.15-3.84-.2-10.2-.2t-13.94-.1q-7.58-.11-15.05-.1h-13q-7.38,0-14.95.1l-14,.2q-6.47.11-10.3.3c0-1.88.07-3.53.2-4.94a15,15,0,0,1,.81-3.74,21.74,21.74,0,0,0,8.49-2,9.34,9.34,0,0,0,4.34-5.76q1.31-4.14,1.31-12v-83a34.85,34.85,0,0,0-1.21-10.5,8.83,8.83,0,0,0-4.24-5.26,19.94,19.94,0,0,0-8.49-1.81,15,15,0,0,1-.8-3.94c-.14-1.55-.21-3.13-.21-4.75q4.05.21,8.59.3l8.79.21c2.82.06,5.18.1,7.07.1,3,0,5.79,0,8.48-.1l8-.21c2.63-.06,5.28-.16,8-.3,0,1.75-.07,3.37-.2,4.85a15.24,15.24,0,0,1-.81,3.84,20.12,20.12,0,0,0-8.38,1.81,8.8,8.8,0,0,0-4.35,5.46A37.94,37.94,0,0,0,222.45,686v82.41c0,5,.47,8.82,1.41,11.52a9.1,9.1,0,0,0,5.36,5.65q3.93,1.62,11.41,1.62Z"/><path class="cls-3" d="M316.38,685.35a34.85,34.85,0,0,0-1.21-10.5,8.83,8.83,0,0,0-4.24-5.26,19.94,19.94,0,0,0-8.49-1.81,15.24,15.24,0,0,1-.81-3.84c-.13-1.48-.2-3.1-.2-4.85q3.84.21,7.78.3l8.18.21c2.83.06,5.66.1,8.48.1s5.79,0,8.49-.1l8-.21q3.93-.09,8-.3c0,1.75-.07,3.37-.21,4.85a14.83,14.83,0,0,1-.8,3.84,20.17,20.17,0,0,0-8.39,1.81,8.74,8.74,0,0,0-4.34,5.26,34.85,34.85,0,0,0-1.21,10.5v85.24A35.09,35.09,0,0,0,336.58,781a8.37,8.37,0,0,0,4.34,5.25,23.72,23.72,0,0,0,8.39,1.92,14.57,14.57,0,0,1,.8,3.74c.14,1.41.21,3.06.21,4.94q-6.06-.4-12.33-.5t-12.12-.1q-5.85,0-12.52.1t-11.92.5c0-1.88.07-3.53.2-4.94a15,15,0,0,1,.81-3.74,23.26,23.26,0,0,0,8.49-1.92,8.45,8.45,0,0,0,4.24-5.25,35.09,35.09,0,0,0,1.21-10.41Z"/><path class="cls-3" d="M372.94,796.85c0-1.88.06-3.53.2-4.94a14.15,14.15,0,0,1,.81-3.74,23.26,23.26,0,0,0,8.48-1.92,8.42,8.42,0,0,0,4.24-5.25,35,35,0,0,0,1.22-10.41V685.35a34.8,34.8,0,0,0-1.22-10.5,8.8,8.8,0,0,0-4.24-5.26,19.92,19.92,0,0,0-8.48-1.81,14.41,14.41,0,0,1-.81-3.84c-.14-1.48-.2-3.1-.2-4.85q7.88.4,15.25.51t12.22.1c1.88,0,4.55,0,8-.1l10.2-.21c3.36-.06,5.86-.1,7.47-.1q16.77,0,26.87,5.46t14.54,14.34a42.8,42.8,0,0,1,4.45,19.39,50.72,50.72,0,0,1-5.15,22.22,44.05,44.05,0,0,1-15.25,17.57q-10.11,6.87-25.46,6.87a39,39,0,0,1-14.14-2.22,23.59,23.59,0,0,1-.4-4.24,13.8,13.8,0,0,1,.61-4,46.27,46.27,0,0,0,10.7,1.21,36.52,36.52,0,0,0,13.94-2.63,21.6,21.6,0,0,0,10.5-9.39q4.05-6.76,4-19.49,0-16.15-8-26.16t-26.15-10a51.44,51.44,0,0,0-5.16.3,73.66,73.66,0,0,0-8.18,1.52l3-3v99.58c0,5.8.61,10.2,1.82,13.24a10.79,10.79,0,0,0,5.86,6.26,32,32,0,0,0,10.3,2.12,14.56,14.56,0,0,1,.81,3.74c.13,1.41.2,3.06.2,4.94q-3-.2-7.17-.3l-8.79-.2q-4.65-.11-9.49-.1c-3.1,0-6.46,0-10.1.1l-10.1.2Q375.56,796.66,372.94,796.85Z"/><path class="cls-3" d="M490.3,796.85c0-1.88.06-3.53.2-4.94a14.15,14.15,0,0,1,.81-3.74,23.26,23.26,0,0,0,8.48-1.92A8.42,8.42,0,0,0,504,781a35,35,0,0,0,1.22-10.41V685.35a34.8,34.8,0,0,0-1.22-10.5,8.8,8.8,0,0,0-4.24-5.26,19.92,19.92,0,0,0-8.48-1.81,14.41,14.41,0,0,1-.81-3.84c-.14-1.48-.2-3.1-.2-4.85q7.88.4,15.25.51t12.22.1c1.88,0,4.55,0,8-.1l10.2-.21c3.36-.06,5.86-.1,7.47-.1q16.77,0,26.87,5.46t14.54,14.34a42.8,42.8,0,0,1,4.45,19.39,50.72,50.72,0,0,1-5.15,22.22,44.05,44.05,0,0,1-15.25,17.57q-10.11,6.87-25.46,6.87a39,39,0,0,1-14.14-2.22,23.59,23.59,0,0,1-.4-4.24,13.8,13.8,0,0,1,.61-4,46.27,46.27,0,0,0,10.7,1.21,36.52,36.52,0,0,0,13.94-2.63,21.6,21.6,0,0,0,10.5-9.39q4.05-6.76,4-19.49,0-16.15-8-26.16t-26.16-10a51.1,51.1,0,0,0-5.15.3A73.33,73.33,0,0,0,521.2,670l3-3v99.58c0,5.8.61,10.2,1.82,13.24a10.79,10.79,0,0,0,5.86,6.26,32,32,0,0,0,10.3,2.12,14.56,14.56,0,0,1,.81,3.74c.13,1.41.2,3.06.2,4.94q-3-.2-7.17-.3l-8.79-.2c-3.09-.07-6.26-.1-9.49-.1s-6.46,0-10.1.1l-10.1.2Q492.92,796.66,490.3,796.85Z"/><path class="cls-3" d="M658.57,658.48l48.07,110.3q3.43,7.47,5.66,11.51a16.37,16.37,0,0,0,4.54,5.66,14.19,14.19,0,0,0,5.36,2.22,26.31,26.31,0,0,1,1,4.44,40.22,40.22,0,0,1,.2,4.24q-2-.2-6.26-.3l-8.89-.2q-4.65-.11-7.88-.1c-1.62,0-3.5,0-5.66.1l-6.66.2c-2.29.07-4.35.13-6.16.2s-3.27.1-4.35.1a33.07,33.07,0,0,1,.31-4.64,14.71,14.71,0,0,1,1.11-4q8.28-1,9.79-3.74t-2.52-12l-28.08-65.65q-2.62-6.25-4.64-11.11t-4.85-12.32h1q-2.43,7.68-4.35,13t-3.73,10.2l-23,60q-4.44,11.93-2.73,16.47t10,5.15a14.71,14.71,0,0,1,1.11,4,34.65,34.65,0,0,1,.31,4.64q-2.24-.2-5.46-.3l-6.77-.2c-2.35-.07-4.68-.1-7-.1-3.37,0-6.54.06-9.5.2s-5.39.27-7.27.4a34.08,34.08,0,0,1,.3-4.34,14.76,14.76,0,0,1,1.11-4.14,14,14,0,0,0,6.06-2.83,20.75,20.75,0,0,0,4.75-6.56,133.68,133.68,0,0,0,5.35-12.43l41.82-107.26c1.34-.27,2.59-.47,3.73-.6A35,35,0,0,1,658.57,658.48ZM677,742.72l1.82,9.09q-13.54,0-29,.2t-28,.61l3.23-9.9Z"/><path class="cls-3" d="M836.93,798.07q-6.06-8.09-10.6-14.75t-10.81-16.56q-4-6.46-7.78-11.82a102.63,102.63,0,0,0-9-11,144.85,144.85,0,0,0-13.53-12.52l5.25,2.62c-3.5.14-6.73.2-9.7.2s-5.79-.06-8.48-.2v-9.49c1.88.27,3.64.47,5.25.6s3.3.21,5.05.21a59.87,59.87,0,0,0,20-3.14,30.32,30.32,0,0,0,14.14-9.79q5.25-6.67,5.25-17.17,0-11.93-7.57-19.5t-25.76-7.57a78.08,78.08,0,0,0-8.28.4,61.13,61.13,0,0,0-7.68,1.42l1-3.84V770.59A35,35,0,0,0,774.92,781a8.34,8.34,0,0,0,4.34,5.25,23.71,23.71,0,0,0,8.38,1.92,18,18,0,0,1,.81,4.14c.13,1.55.2,3.06.2,4.54-3-.27-6-.43-9.19-.5s-6.09-.1-8.79-.1H764q-5.26,0-12.42.1t-11.82.5c0-1.48.06-3,.2-4.44a20.8,20.8,0,0,1,.81-4.24,23.26,23.26,0,0,0,8.48-1.92A8.42,8.42,0,0,0,753.5,781a35,35,0,0,0,1.22-10.41V685.35a35.86,35.86,0,0,0-1.22-10.6,8.8,8.8,0,0,0-4.24-5.36,18.37,18.37,0,0,0-8.48-1.61,20.81,20.81,0,0,1-.81-4,43.46,43.46,0,0,1-.2-4.45c1.34,0,3.33,0,6,.1l8.68.21c3.17.06,6.09.1,8.79.1q5.85,0,12.12-.1l11.51-.21c3.5-.06,6.2-.1,8.08-.1q17.39,0,27.58,4.45t14.74,12a32.18,32.18,0,0,1,4.55,16.87,34.61,34.61,0,0,1-4.34,17.48,36.51,36.51,0,0,1-12.53,12.72,63.11,63.11,0,0,1-19.69,7.78l1-2.43a90.58,90.58,0,0,1,8,6.57,67.28,67.28,0,0,1,6.26,6.77q2.92,3.63,6.26,8.58t7.78,12a118.87,118.87,0,0,0,10.7,14A35,35,0,0,0,856,784.43a35.47,35.47,0,0,0,13.43,3.13c0,1.62,0,3.1-.1,4.45a19.77,19.77,0,0,1-.71,4.24q-7.47,0-15.85.3A127.2,127.2,0,0,0,836.93,798.07Z"/><path class="cls-3" d="M892.48,668.58c-6.46,0-11.35,1-14.64,3.13a17.29,17.29,0,0,0-7.07,8.59,73.18,73.18,0,0,0-3.54,12.93,34.6,34.6,0,0,1-5.05-.41,13.23,13.23,0,0,1-4.65-1.41q1.62-8.49,2.43-17t.81-15.35q5.65.21,13.83.4t17.78.21h40q9.79,0,18.07-.21t13.74-.4q-.21,7.27.1,14.95t1.11,17.37a17.56,17.56,0,0,1-4.54,1.51,21.25,21.25,0,0,1-5.56.31q-.19-11.93-5.55-18.28t-17.27-6.37Zm10.3-3.43h19V770.59A35.09,35.09,0,0,0,923,781a8.24,8.24,0,0,0,4.65,5.25,30.1,30.1,0,0,0,9.9,1.92,14.57,14.57,0,0,1,.8,3.74c.14,1.41.21,3.06.21,4.94-4.32-.27-8.72-.43-13.23-.5s-8.93-.1-13.24-.1c-2.82,0-5.82,0-9,.1l-9.2.2q-4.44.11-8.28.3c0-1.88.07-3.53.2-4.94a15,15,0,0,1,.81-3.74,31.25,31.25,0,0,0,10-1.92,8.53,8.53,0,0,0,4.85-5.25,32.77,32.77,0,0,0,1.31-10.41Z"/><path class="cls-3" d="M976.72,796.85c0-1.88.06-3.53.2-4.94a14.15,14.15,0,0,1,.81-3.74,23.26,23.26,0,0,0,8.48-1.92,8.45,8.45,0,0,0,4.24-5.25,35.09,35.09,0,0,0,1.21-10.41V685.35a34.85,34.85,0,0,0-1.21-10.5,8.83,8.83,0,0,0-4.24-5.26,19.92,19.92,0,0,0-8.48-1.81,14.41,14.41,0,0,1-.81-3.84c-.14-1.48-.2-3.1-.2-4.85q3.42.21,7.67.3l9,.21c3.16.06,6.23.1,9.19.1h8.08V766.55c0,5.8.61,10.2,1.82,13.24a10.79,10.79,0,0,0,5.86,6.26,31.93,31.93,0,0,0,10.3,2.12,15,15,0,0,1,.81,3.74c.13,1.41.2,3.06.2,4.94q-3-.2-7.17-.3l-8.79-.2q-4.65-.11-9.49-.1-7.08,0-15.25.1T976.72,796.85Zm85-103.42a32.62,32.62,0,0,0-3.23-12.12q-2.83-5.85-9.8-9.7t-20.1-3.83h-23l4.45-8.08q15.94,0,27.37-.1t18.68-.31q7.28-.19,10.51-.2c.26,3,.6,6.4,1,10.3s.87,7.75,1.41,11.52,1.14,7.13,1.82,10.1a8.61,8.61,0,0,1-3.94,1.91A24.1,24.1,0,0,1,1061.76,693.43Zm-5,61.41c-1.75,0-3.37-.07-4.85-.2a26.59,26.59,0,0,1-4.44-.81q-.81-10.5-5.56-14.24t-17.27-3.74h-14.54v-8.69h14.54q12.53,0,17.37-3.23t5-13.13a31.53,31.53,0,0,1,4.85-1.11,36.37,36.37,0,0,1,4.85-.3c-.14,3.37-.24,7-.31,10.91s-.1,7.61-.1,11.11,0,7.4.1,11.71S1056.57,751.34,1056.71,754.84Z"/><path class="cls-3" d="M1152.45,798.07q-20,0-34.94-9.3a64.26,64.26,0,0,1-23.33-25.25q-8.39-15.94-8.39-35.95a74.8,74.8,0,0,1,5.15-28.28,67.22,67.22,0,0,1,14.25-22,63.66,63.66,0,0,1,21.21-14.34,67,67,0,0,1,26-5q19.4,0,34.44,8.79a63.19,63.19,0,0,1,23.74,24.44q8.68,15.64,8.69,36.46a77.92,77.92,0,0,1-4.85,27.77,67.12,67.12,0,0,1-13.84,22.43,63.73,63.73,0,0,1-21.21,14.94A66.5,66.5,0,0,1,1152.45,798.07Zm4-9.9q13.14,0,22.53-7.38t14.44-20a74.84,74.84,0,0,0,5-28,80.76,80.76,0,0,0-6.57-33q-6.56-14.85-17.87-23.53a41.34,41.34,0,0,0-25.86-8.69,35.55,35.55,0,0,0-21.31,6.77q-9.39,6.76-14.85,19.09t-5.45,28.68a94,94,0,0,0,3.23,24.65,68.92,68.92,0,0,0,9.6,21.21,48.73,48.73,0,0,0,15.65,14.74A41.45,41.45,0,0,0,1156.49,788.17Z"/><path class="cls-3" d="M1291.23,787.16q11.31,0,17.77-2.43a21.54,21.54,0,0,0,10.4-8.08,62,62,0,0,0,7.18-14.94,23.37,23.37,0,0,1,5.05,1.91,17.51,17.51,0,0,1,3.83,2.93,121.81,121.81,0,0,0-3.73,15q-1.51,8.09-2.53,15.15-3.84-.2-10.2-.2t-13.94-.1q-7.57-.11-15-.1h-13q-7.37,0-14.94.1l-14,.2c-4.31.07-7.75.17-10.3.3,0-1.88.06-3.53.2-4.94a14.15,14.15,0,0,1,.81-3.74,21.73,21.73,0,0,0,8.48-2,9.34,9.34,0,0,0,4.34-5.76q1.32-4.14,1.32-12v-83a34.8,34.8,0,0,0-1.22-10.5,8.8,8.8,0,0,0-4.24-5.26,19.92,19.92,0,0,0-8.48-1.81,14.61,14.61,0,0,1-.81-3.94c-.14-1.55-.2-3.13-.2-4.75q4,.21,8.58.3l8.79.21c2.83.06,5.18.1,7.07.1,3,0,5.79,0,8.48-.1l8-.21q3.95-.09,8-.3c0,1.75-.07,3.37-.2,4.85a14.81,14.81,0,0,1-.81,3.84,20.12,20.12,0,0,0-8.38,1.81,8.75,8.75,0,0,0-4.34,5.46,37.89,37.89,0,0,0-1.22,10.91v82.41c0,5,.47,8.82,1.42,11.52a9.06,9.06,0,0,0,5.35,5.65q3.95,1.62,11.41,1.62Z"/><path class="cls-3" d="M1365.76,685.35a34.85,34.85,0,0,0-1.21-10.5,8.83,8.83,0,0,0-4.24-5.26,19.94,19.94,0,0,0-8.49-1.81,14.83,14.83,0,0,1-.8-3.84c-.14-1.48-.21-3.1-.21-4.85,2.56.14,5.16.24,7.78.3l8.18.21c2.83.06,5.66.1,8.49.1s5.79,0,8.48-.1l8-.21c2.63-.06,5.28-.16,8-.3,0,1.75-.07,3.37-.2,4.85a15.24,15.24,0,0,1-.81,3.84,20.12,20.12,0,0,0-8.38,1.81,8.75,8.75,0,0,0-4.35,5.26,34.85,34.85,0,0,0-1.21,10.5v85.24A35.09,35.09,0,0,0,1386,781a8.38,8.38,0,0,0,4.35,5.25,23.66,23.66,0,0,0,8.38,1.92,15,15,0,0,1,.81,3.74c.13,1.41.2,3.06.2,4.94q-6.06-.4-12.32-.5t-12.12-.1q-5.87,0-12.53.1t-11.92.5c0-1.88.07-3.53.21-4.94a14.57,14.57,0,0,1,.8-3.74,23.26,23.26,0,0,0,8.49-1.92,8.45,8.45,0,0,0,4.24-5.25,35.09,35.09,0,0,0,1.21-10.41Z"/><path class="cls-3" d="M1484.74,798.07q-20,0-35-9.3a64.4,64.4,0,0,1-23.33-25.25q-8.39-15.94-8.38-35.95a74.8,74.8,0,0,1,5.15-28.28,67,67,0,0,1,14.24-22,63.66,63.66,0,0,1,21.21-14.34,67,67,0,0,1,26.06-5q19.4,0,34.44,8.79a63.26,63.26,0,0,1,23.74,24.44q8.67,15.64,8.68,36.46a77.92,77.92,0,0,1-4.85,27.77,67.1,67.1,0,0,1-13.83,22.43,63.93,63.93,0,0,1-21.21,14.94A66.5,66.5,0,0,1,1484.74,798.07Zm4-9.9q13.13,0,22.52-7.38a46.84,46.84,0,0,0,14.44-20,74.64,74.64,0,0,0,5-28,80.92,80.92,0,0,0-6.56-33q-6.57-14.85-17.88-23.53a41.32,41.32,0,0,0-25.85-8.69,35.55,35.55,0,0,0-21.31,6.77q-9.4,6.76-14.85,19.09t-5.46,28.68a93.56,93.56,0,0,0,3.24,24.65,69.14,69.14,0,0,0,9.59,21.21,48.66,48.66,0,0,0,15.66,14.74A41.45,41.45,0,0,0,1488.78,788.17Z"/><path class="cls-3" d="M1578.14,798.19q-6.54,0-10.18-3.64a12.48,12.48,0,0,1-3.63-9.21,13.26,13.26,0,0,1,4.12-9.7,14.44,14.44,0,0,1,10.66-4.12q6.3,0,9.82,4.24c2.34,2.83,3.52,5.62,3.52,8.37q0,7.27-4.37,10.66A15.77,15.77,0,0,1,1578.14,798.19Z"/><path class="cls-3" d="M1613.61,796.85c0-1.88.07-3.53.2-4.94a15,15,0,0,1,.81-3.74,21.74,21.74,0,0,0,8.49-2,9.34,9.34,0,0,0,4.34-5.76q1.3-4.14,1.31-12v-83a34.85,34.85,0,0,0-1.21-10.5,8.83,8.83,0,0,0-4.24-5.26,19.94,19.94,0,0,0-8.49-1.81,15,15,0,0,1-.8-3.94c-.14-1.55-.21-3.13-.21-4.75,2.16.14,4.88.24,8.19.3l10.3.21c3.56.06,6.83.1,9.79.1q5.87,0,11.92-.21t11.92-.2a156.87,156.87,0,0,1,21.61,1.52,89,89,0,0,1,20.81,5.45A55.28,55.28,0,0,1,1726,677.57a51,51,0,0,1,12.22,18.79q4.44,11.42,4.44,28.18,0,16.37-4,28.08a58.06,58.06,0,0,1-25.86,32.32,72.41,72.41,0,0,1-16.86,7.27,98,98,0,0,1-16.47,3.23,135,135,0,0,1-13.53.81h-13q-7.38,0-15,.1l-14,.2Q1617.44,796.66,1613.61,796.85Zm52.32-9.69a80.74,80.74,0,0,0,22.32-2.93,44.77,44.77,0,0,0,17.78-9.7q7.58-6.76,11.71-18.28t4.14-28.68q0-16.37-4.94-28a50.23,50.23,0,0,0-13.34-18.79,53.76,53.76,0,0,0-19-10.5A72.75,72.75,0,0,0,1662.7,667a74.88,74.88,0,0,0-9.7.7q-5.25.72-6.87,1.72l1.62-5.25V768.37c0,5,.47,8.82,1.41,11.52a9.1,9.1,0,0,0,5.36,5.65Q1658.45,787.16,1665.93,787.16Z"/><path class="cls-3" d="M1761.07,796.85c0-1.88.07-3.53.2-4.94a15,15,0,0,1,.81-3.74,23.26,23.26,0,0,0,8.49-1.92,8.45,8.45,0,0,0,4.24-5.25,35.09,35.09,0,0,0,1.21-10.41V685.35a34.85,34.85,0,0,0-1.21-10.5,8.83,8.83,0,0,0-4.24-5.26,19.94,19.94,0,0,0-8.49-1.81,15.24,15.24,0,0,1-.81-3.84c-.13-1.48-.2-3.1-.2-4.85q3.84.21,7.78.3l8.18.21c2.83.06,5.66.1,8.48.1s5.79,0,8.49-.1l8-.21q3.93-.09,8-.3c0,1.75-.07,3.37-.21,4.85a14.83,14.83,0,0,1-.8,3.84,20.17,20.17,0,0,0-8.39,1.81,8.74,8.74,0,0,0-4.34,5.26,34.85,34.85,0,0,0-1.21,10.5v85.24a35.09,35.09,0,0,0,1.21,10.41,8.37,8.37,0,0,0,4.34,5.25,23.72,23.72,0,0,0,8.39,1.92,14.57,14.57,0,0,1,.8,3.74c.14,1.41.21,3.06.21,4.94q-6.06-.4-12.33-.5t-12.12-.1q-5.85,0-12.52.1T1761.07,796.85Zm88.07.61q-3.63-5.85-10.1-15.05t-14.64-19.49q-8.19-10.3-16.67-19.6A187.38,187.38,0,0,0,1792,727.77l41.21-43.23q7.47-7.66,7.57-12t-6.77-4.74a21.46,21.46,0,0,1-.8-4.25q-.21-2.22-.21-4.44,3.43.21,9.09.4t11.72.21c2.69,0,5.28,0,7.78-.1l7.07-.21c2.22-.06,4.2-.16,6-.3q0,2-.21,4.44a13,13,0,0,1-1,4.25,28.45,28.45,0,0,0-8.58,1.71,34.5,34.5,0,0,0-8.89,5.15,92.7,92.7,0,0,0-11.21,10.71l-35.35,37.57v-4.85a185.41,185.41,0,0,1,19.29,20.51q10.8,13,23.13,29,5,6.48,8.89,10.71a26.14,26.14,0,0,0,8.78,6.46,38.69,38.69,0,0,0,12.83,2.83c0,1.08-.07,2.43-.2,4a25.65,25.65,0,0,1-.81,4.65h-7.88c-2.69,0-5.45.06-8.28.2l-8.28.4C1854.12,797,1851.57,797.19,1849.14,797.46Z"/></g><g class="cls-4"><path class="cls-5" d="M3.49,628.82c0-1.88.06-3.54.2-5a14.24,14.24,0,0,1,.81-3.74A23.05,23.05,0,0,0,13,618.21,8.37,8.37,0,0,0,17.22,613a35,35,0,0,0,1.22-10.4V517.32a34.92,34.92,0,0,0-1.22-10.51A8.8,8.8,0,0,0,13,501.56a19.91,19.91,0,0,0-8.48-1.82,14.24,14.24,0,0,1-.81-3.84c-.14-1.48-.2-3.09-.2-4.84,2.29.13,4.84.23,7.67.3l9,.2c3.16.07,6.23.1,9.19.1h8.08V598.52q0,8.68,1.82,13.23A10.74,10.74,0,0,0,45.1,618a31.47,31.47,0,0,0,10.3,2.12,14.65,14.65,0,0,1,.81,3.74c.13,1.41.2,3.07.2,5q-3-.21-7.17-.3l-8.79-.21c-3.1-.06-6.26-.1-9.49-.1q-7.08,0-15.25.1T3.49,628.82Zm85-103.42a32.52,32.52,0,0,0-3.23-12.12q-2.83-5.86-9.8-9.7t-20.1-3.84h-23l4.45-8.08q15.95,0,27.37-.1c7.6-.07,13.84-.17,18.68-.3s8.35-.2,10.51-.2c.27,3,.6,6.39,1,10.3s.87,7.74,1.41,11.51S96.94,520,97.62,523a8.53,8.53,0,0,1-3.94,1.92A24.1,24.1,0,0,1,88.53,525.4Zm-5,61.4c-1.75,0-3.37-.06-4.85-.2a24.7,24.7,0,0,1-4.44-.81q-.81-10.5-5.56-14.24t-17.27-3.73H36.82v-8.69H51.36q12.53,0,17.37-3.23t5-13.13a30.4,30.4,0,0,1,4.85-1.11,36.3,36.3,0,0,1,4.85-.31q-.21,5.05-.3,10.91t-.1,11.11c0,3.51,0,7.41.1,11.72S83.34,583.3,83.48,586.8Z"/><path class="cls-5" d="M131.75,517.32a35,35,0,0,0-1.21-10.51,8.8,8.8,0,0,0-4.24-5.25,19.91,19.91,0,0,0-8.48-1.82,14.24,14.24,0,0,1-.81-3.84c-.14-1.48-.2-3.09-.2-4.84,2.55.13,5.15.23,7.77.3l8.19.2q4.23.1,8.48.1,4.44,0,8.48-.1l8-.2q3.94-.11,8-.3c0,1.75-.07,3.36-.2,4.84a15,15,0,0,1-.81,3.84,20.11,20.11,0,0,0-8.38,1.82,8.71,8.71,0,0,0-4.34,5.25,34.92,34.92,0,0,0-1.22,10.51v85.24A35,35,0,0,0,152,613a8.29,8.29,0,0,0,4.34,5.25,23.44,23.44,0,0,0,8.38,1.92,15.09,15.09,0,0,1,.81,3.74c.13,1.41.2,3.07.2,5q-6.06-.41-12.32-.51t-12.12-.1q-5.87,0-12.52.1t-11.92.51c0-1.88.06-3.54.2-5a14.24,14.24,0,0,1,.81-3.74,23.05,23.05,0,0,0,8.48-1.92,8.37,8.37,0,0,0,4.24-5.25,35.06,35.06,0,0,0,1.21-10.4Z"/><path class="cls-5" d="M241.84,619.12q11.31,0,17.78-2.42a21.65,21.65,0,0,0,10.4-8.08,61.55,61.55,0,0,0,7.17-15,22.64,22.64,0,0,1,5.05,1.92,17,17,0,0,1,3.84,2.93,121.31,121.31,0,0,0-3.74,15q-1.51,8.09-2.52,15.15c-2.56-.14-6-.2-10.2-.2s-8.89,0-13.94-.11-10.07-.1-15.05-.1h-13q-7.38,0-14.95.1l-14,.21q-6.47.09-10.3.3c0-1.88.07-3.54.2-5a15.09,15.09,0,0,1,.81-3.74,21.57,21.57,0,0,0,8.49-2,9.29,9.29,0,0,0,4.34-5.75q1.31-4.14,1.31-12v-83a35,35,0,0,0-1.21-10.51,8.84,8.84,0,0,0-4.24-5.25,19.92,19.92,0,0,0-8.49-1.82,14.94,14.94,0,0,1-.8-3.94c-.14-1.54-.21-3.13-.21-4.74q4.05.19,8.59.3l8.79.2q4.23.1,7.07.1,4.44,0,8.48-.1l8-.2c2.63-.07,5.28-.17,8-.3,0,1.75-.07,3.36-.2,4.84a15,15,0,0,1-.81,3.84,20.11,20.11,0,0,0-8.38,1.82,8.8,8.8,0,0,0-4.35,5.45,38,38,0,0,0-1.21,10.91v82.42q0,7.47,1.41,11.51a9.12,9.12,0,0,0,5.36,5.66q3.93,1.62,11.41,1.61Z"/><path class="cls-5" d="M316.38,517.32a35,35,0,0,0-1.21-10.51,8.84,8.84,0,0,0-4.24-5.25,19.92,19.92,0,0,0-8.49-1.82,15,15,0,0,1-.81-3.84c-.13-1.48-.2-3.09-.2-4.84q3.84.19,7.78.3l8.18.2q4.25.1,8.48.1,4.44,0,8.49-.1l8-.2q3.93-.11,8-.3c0,1.75-.07,3.36-.21,4.84a14.65,14.65,0,0,1-.8,3.84,20.16,20.16,0,0,0-8.39,1.82,8.74,8.74,0,0,0-4.34,5.25,35,35,0,0,0-1.21,10.51v85.24a35.06,35.06,0,0,0,1.21,10.4,8.32,8.32,0,0,0,4.34,5.25,23.5,23.5,0,0,0,8.39,1.92,14.66,14.66,0,0,1,.8,3.74c.14,1.41.21,3.07.21,5q-6.06-.41-12.33-.51t-12.12-.1q-5.85,0-12.52.1t-11.92.51c0-1.88.07-3.54.2-5a15.09,15.09,0,0,1,.81-3.74,23.06,23.06,0,0,0,8.49-1.92,8.4,8.4,0,0,0,4.24-5.25,35.06,35.06,0,0,0,1.21-10.4Z"/><path class="cls-5" d="M372.94,628.82c0-1.88.06-3.54.2-5a14.24,14.24,0,0,1,.81-3.74,23.05,23.05,0,0,0,8.48-1.92,8.37,8.37,0,0,0,4.24-5.25,35,35,0,0,0,1.22-10.4V517.32a34.92,34.92,0,0,0-1.22-10.51,8.8,8.8,0,0,0-4.24-5.25,19.91,19.91,0,0,0-8.48-1.82,14.24,14.24,0,0,1-.81-3.84c-.14-1.48-.2-3.09-.2-4.84q7.88.4,15.25.5t12.22.1c1.88,0,4.55,0,8-.1l10.2-.2c3.36-.07,5.86-.1,7.47-.1q16.77,0,26.87,5.45t14.54,14.34a42.84,42.84,0,0,1,4.45,19.4,50.75,50.75,0,0,1-5.15,22.22,44.19,44.19,0,0,1-15.25,17.57q-10.11,6.87-25.46,6.87a38.76,38.76,0,0,1-14.14-2.23,23.51,23.51,0,0,1-.4-4.24,13.85,13.85,0,0,1,.61-4,45.4,45.4,0,0,0,5.25.91,47.86,47.86,0,0,0,5.45.31,36.71,36.71,0,0,0,13.94-2.63,21.65,21.65,0,0,0,10.5-9.39q4.05-6.76,4-19.5,0-16.15-8-26.16t-26.15-10a51.44,51.44,0,0,0-5.16.3,73.16,73.16,0,0,0-8.18,1.51l3-3v99.59q0,8.68,1.82,13.23a10.74,10.74,0,0,0,5.86,6.26,31.47,31.47,0,0,0,10.3,2.12,14.65,14.65,0,0,1,.81,3.74c.13,1.41.2,3.07.2,5q-3-.21-7.17-.3l-8.79-.21c-3.1-.06-6.26-.1-9.49-.1s-6.46,0-10.1.1l-10.1.21Q375.56,628.61,372.94,628.82Z"/><path class="cls-5" d="M490.3,628.82c0-1.88.06-3.54.2-5a14.24,14.24,0,0,1,.81-3.74,23.05,23.05,0,0,0,8.48-1.92A8.37,8.37,0,0,0,504,613a35,35,0,0,0,1.22-10.4V517.32A34.92,34.92,0,0,0,504,506.81a8.8,8.8,0,0,0-4.24-5.25,19.91,19.91,0,0,0-8.48-1.82,14.24,14.24,0,0,1-.81-3.84c-.14-1.48-.2-3.09-.2-4.84q7.88.4,15.25.5t12.22.1c1.88,0,4.55,0,8-.1l10.2-.2c3.36-.07,5.86-.1,7.47-.1q16.77,0,26.87,5.45t14.54,14.34a42.84,42.84,0,0,1,4.45,19.4,50.75,50.75,0,0,1-5.15,22.22,44.19,44.19,0,0,1-15.25,17.57q-10.11,6.87-25.46,6.87a38.76,38.76,0,0,1-14.14-2.23,23.51,23.51,0,0,1-.4-4.24,13.85,13.85,0,0,1,.61-4,45.4,45.4,0,0,0,5.25.91,47.86,47.86,0,0,0,5.45.31,36.71,36.71,0,0,0,13.94-2.63,21.65,21.65,0,0,0,10.5-9.39q4.05-6.76,4-19.5,0-16.15-8-26.16t-26.16-10a51.1,51.1,0,0,0-5.15.3A72.85,72.85,0,0,0,521.2,502l3-3v99.59q0,8.68,1.82,13.23a10.74,10.74,0,0,0,5.86,6.26,31.47,31.47,0,0,0,10.3,2.12,14.65,14.65,0,0,1,.81,3.74c.13,1.41.2,3.07.2,5q-3-.21-7.17-.3l-8.79-.21c-3.09-.06-6.26-.1-9.49-.1s-6.46,0-10.1.1l-10.1.21Q492.92,628.61,490.3,628.82Z"/><path class="cls-5" d="M658.57,490.45l48.07,110.29q3.43,7.47,5.66,11.52a16.42,16.42,0,0,0,4.54,5.65,14,14,0,0,0,5.36,2.22,26.39,26.39,0,0,1,1,4.45,40.08,40.08,0,0,1,.2,4.24q-2-.21-6.26-.3l-8.89-.21c-3.1-.06-5.73-.1-7.88-.1-1.62,0-3.5,0-5.66.1l-6.66.21c-2.29.06-4.35.13-6.16.2s-3.27.1-4.35.1a33.21,33.21,0,0,1,.31-4.65,14.81,14.81,0,0,1,1.11-4q8.28-1,9.79-3.73t-2.52-12l-28.08-65.65q-2.62-6.27-4.64-11.11c-1.35-3.24-3-7.34-4.85-12.33h1q-2.43,7.69-4.35,13t-3.73,10.21l-23,60q-4.44,11.93-2.73,16.46t10,5.15a14.81,14.81,0,0,1,1.11,4,34.8,34.8,0,0,1,.31,4.65q-2.24-.21-5.46-.3l-6.77-.21c-2.35-.06-4.68-.1-7-.1q-5.05,0-9.5.21c-3,.13-5.39.26-7.27.4a34,34,0,0,1,.3-4.34,14.76,14.76,0,0,1,1.11-4.14,14,14,0,0,0,6.06-2.83,20.93,20.93,0,0,0,4.75-6.57,134.5,134.5,0,0,0,5.35-12.42l41.82-107.26c1.34-.27,2.59-.47,3.73-.61A37.5,37.5,0,0,1,658.57,490.45ZM677,574.68l1.82,9.09q-13.54,0-29,.21t-28,.6l3.23-9.9Z"/><path class="cls-5" d="M836.93,630q-6.06-8.07-10.6-14.74t-10.81-16.57q-4-6.47-7.78-11.82a103.57,103.57,0,0,0-9-11,144.81,144.81,0,0,0-13.53-12.53l5.25,2.63q-5.25.19-9.7.2t-8.48-.2v-9.5c1.88.28,3.64.48,5.25.61s3.3.2,5.05.2a59.88,59.88,0,0,0,20-3.13,30.33,30.33,0,0,0,14.14-9.8q5.25-6.66,5.25-17.17,0-11.91-7.57-19.49t-25.76-7.57a75.51,75.51,0,0,0-8.28.4,59.27,59.27,0,0,0-7.68,1.41l1-3.84V602.56a35,35,0,0,0,1.22,10.4,8.29,8.29,0,0,0,4.34,5.25,23.49,23.49,0,0,0,8.38,1.92,18.19,18.19,0,0,1,.81,4.14c.13,1.55.2,3.07.2,4.55-3-.27-6-.44-9.19-.51s-6.09-.1-8.79-.1H764q-5.26,0-12.42.1t-11.82.51c0-1.48.06-3,.2-4.44a20.76,20.76,0,0,1,.81-4.25,23.05,23.05,0,0,0,8.48-1.92A8.37,8.37,0,0,0,753.5,613a35,35,0,0,0,1.22-10.4V517.32a35.93,35.93,0,0,0-1.22-10.61,8.81,8.81,0,0,0-4.24-5.35q-3-1.62-8.48-1.62a20.52,20.52,0,0,1-.81-4,43.26,43.26,0,0,1-.2-4.44q2,0,6,.1l8.68.2c3.17.07,6.09.1,8.79.1q5.85,0,12.12-.1l11.51-.2c3.5-.07,6.2-.1,8.08-.1q17.39,0,27.58,4.44t14.74,12a32.16,32.16,0,0,1,4.55,16.87,34.54,34.54,0,0,1-4.34,17.47,36.53,36.53,0,0,1-12.53,12.73,63.1,63.1,0,0,1-19.69,7.77l1-2.42a90.58,90.58,0,0,1,8,6.57,67.16,67.16,0,0,1,6.26,6.76q2.92,3.64,6.26,8.59t7.78,12a119.52,119.52,0,0,0,10.7,14A34.91,34.91,0,0,0,856,616.4a35.66,35.66,0,0,0,13.43,3.13c0,1.61,0,3.1-.1,4.44a19.67,19.67,0,0,1-.71,4.24q-7.47,0-15.85.31A127.25,127.25,0,0,0,836.93,630Z"/><path class="cls-5" d="M892.48,500.55c-6.46,0-11.35,1-14.64,3.13a17.29,17.29,0,0,0-7.07,8.59,72.82,72.82,0,0,0-3.54,12.92,35.91,35.91,0,0,1-5.05-.4,13.66,13.66,0,0,1-4.65-1.41q1.62-8.49,2.43-17t.81-15.35q5.65.19,13.83.4t17.78.2h40q9.79,0,18.07-.2t13.74-.4c-.14,4.84-.1,9.83.1,14.94s.57,10.91,1.11,17.38a17.94,17.94,0,0,1-4.54,1.51,20.85,20.85,0,0,1-5.56.3q-.19-11.91-5.55-18.28t-17.27-6.36Zm10.3-3.43h19V602.56A35.06,35.06,0,0,0,923,613a8.19,8.19,0,0,0,4.65,5.25,29.84,29.84,0,0,0,9.9,1.92,14.66,14.66,0,0,1,.8,3.74c.14,1.41.21,3.07.21,5-4.32-.27-8.72-.44-13.23-.51s-8.93-.1-13.24-.1c-2.82,0-5.82,0-9,.1l-9.2.21q-4.44.09-8.28.3c0-1.88.07-3.54.2-5a15.09,15.09,0,0,1,.81-3.74,31,31,0,0,0,10-1.92,8.48,8.48,0,0,0,4.85-5.25,32.74,32.74,0,0,0,1.31-10.4Z"/><path class="cls-5" d="M976.72,628.82c0-1.88.06-3.54.2-5a14.24,14.24,0,0,1,.81-3.74,23.05,23.05,0,0,0,8.48-1.92,8.4,8.4,0,0,0,4.24-5.25,35.06,35.06,0,0,0,1.21-10.4V517.32a35,35,0,0,0-1.21-10.51,8.84,8.84,0,0,0-4.24-5.25,19.91,19.91,0,0,0-8.48-1.82,14.24,14.24,0,0,1-.81-3.84c-.14-1.48-.2-3.09-.2-4.84q3.42.19,7.67.3l9,.2c3.16.07,6.23.1,9.19.1h8.08V598.52q0,8.68,1.82,13.23a10.74,10.74,0,0,0,5.86,6.26,31.41,31.41,0,0,0,10.3,2.12,15.09,15.09,0,0,1,.81,3.74c.13,1.41.2,3.07.2,5q-3-.21-7.17-.3l-8.79-.21c-3.1-.06-6.26-.1-9.49-.1q-7.08,0-15.25.1T976.72,628.82Zm85-103.42a32.52,32.52,0,0,0-3.23-12.12q-2.83-5.86-9.8-9.7t-20.1-3.84h-23l4.45-8.08q15.94,0,27.37-.1t18.68-.3c4.85-.14,8.35-.2,10.51-.2q.39,4.44,1,10.3t1.41,11.51c.54,3.77,1.14,7.14,1.82,10.1a8.53,8.53,0,0,1-3.94,1.92A24.1,24.1,0,0,1,1061.76,525.4Zm-5,61.4c-1.75,0-3.37-.06-4.85-.2a24.7,24.7,0,0,1-4.44-.81q-.81-10.5-5.56-14.24t-17.27-3.73h-14.54v-8.69h14.54q12.53,0,17.37-3.23t5-13.13a30.4,30.4,0,0,1,4.85-1.11,36.3,36.3,0,0,1,4.85-.31q-.21,5.05-.31,10.91t-.1,11.11c0,3.51,0,7.41.1,11.72S1056.57,583.3,1056.71,586.8Z"/><path class="cls-5" d="M1152.45,630q-20,0-34.94-9.29a64.26,64.26,0,0,1-23.33-25.25q-8.39-16-8.39-36a74.87,74.87,0,0,1,5.15-28.28,67.18,67.18,0,0,1,14.25-22,63.54,63.54,0,0,1,21.21-14.35,67.16,67.16,0,0,1,26-5.05q19.4,0,34.44,8.79a63.32,63.32,0,0,1,23.74,24.44q8.68,15.66,8.69,36.46a78,78,0,0,1-4.85,27.78,67.08,67.08,0,0,1-13.84,22.42,63.76,63.76,0,0,1-21.21,14.95A66.49,66.49,0,0,1,1152.45,630Zm4-9.9q13.14,0,22.53-7.37t14.44-20a74.79,74.79,0,0,0,5-28,80.76,80.76,0,0,0-6.57-33q-6.56-14.85-17.87-23.53a41.34,41.34,0,0,0-25.86-8.69,35.55,35.55,0,0,0-21.31,6.77q-9.39,6.77-14.85,19.09t-5.45,28.68a93.89,93.89,0,0,0,3.23,24.64,68.92,68.92,0,0,0,9.6,21.21,48.76,48.76,0,0,0,15.65,14.75A41.45,41.45,0,0,0,1156.49,620.13Z"/><path class="cls-5" d="M1291.23,619.12q11.31,0,17.77-2.42a21.65,21.65,0,0,0,10.4-8.08,61.91,61.91,0,0,0,7.18-15,22.84,22.84,0,0,1,5.05,1.92,17.21,17.21,0,0,1,3.83,2.93,121.35,121.35,0,0,0-3.73,15q-1.51,8.09-2.53,15.15c-2.56-.14-6-.2-10.2-.2s-8.89,0-13.94-.11-10.07-.1-15-.1h-13q-7.37,0-14.94.1l-14,.21c-4.31.06-7.75.16-10.3.3,0-1.88.06-3.54.2-5a14.24,14.24,0,0,1,.81-3.74,21.56,21.56,0,0,0,8.48-2,9.29,9.29,0,0,0,4.34-5.75q1.32-4.14,1.32-12v-83a34.92,34.92,0,0,0-1.22-10.51,8.8,8.8,0,0,0-4.24-5.25,19.91,19.91,0,0,0-8.48-1.82,14.52,14.52,0,0,1-.81-3.94c-.14-1.54-.2-3.13-.2-4.74q4,.19,8.58.3l8.79.2c2.83.07,5.18.1,7.07.1q4.44,0,8.48-.1l8-.2q3.95-.11,8-.3c0,1.75-.07,3.36-.2,4.84a14.63,14.63,0,0,1-.81,3.84,20.11,20.11,0,0,0-8.38,1.82,8.76,8.76,0,0,0-4.34,5.45,37.93,37.93,0,0,0-1.22,10.91v82.42q0,7.47,1.42,11.51a9.08,9.08,0,0,0,5.35,5.66q3.95,1.62,11.41,1.61Z"/><path class="cls-5" d="M1365.76,517.32a35,35,0,0,0-1.21-10.51,8.84,8.84,0,0,0-4.24-5.25,19.92,19.92,0,0,0-8.49-1.82,14.65,14.65,0,0,1-.8-3.84c-.14-1.48-.21-3.09-.21-4.84,2.56.13,5.16.23,7.78.3l8.18.2q4.24.1,8.49.1,4.44,0,8.48-.1l8-.2c2.63-.07,5.28-.17,8-.3,0,1.75-.07,3.36-.2,4.84a15,15,0,0,1-.81,3.84,20.11,20.11,0,0,0-8.38,1.82,8.76,8.76,0,0,0-4.35,5.25,35,35,0,0,0-1.21,10.51v85.24A35.06,35.06,0,0,0,1386,613a8.33,8.33,0,0,0,4.35,5.25,23.44,23.44,0,0,0,8.38,1.92,15.09,15.09,0,0,1,.81,3.74c.13,1.41.2,3.07.2,5q-6.06-.41-12.32-.51t-12.12-.1q-5.87,0-12.53.1t-11.92.51c0-1.88.07-3.54.21-5a14.66,14.66,0,0,1,.8-3.74,23.06,23.06,0,0,0,8.49-1.92,8.4,8.4,0,0,0,4.24-5.25,35.06,35.06,0,0,0,1.21-10.4Z"/><path class="cls-5" d="M1484.74,630q-20,0-35-9.29a64.4,64.4,0,0,1-23.33-25.25q-8.39-16-8.38-36a74.87,74.87,0,0,1,5.15-28.28,67,67,0,0,1,14.24-22,63.54,63.54,0,0,1,21.21-14.35,67.2,67.2,0,0,1,26.06-5.05q19.4,0,34.44,8.79a63.39,63.39,0,0,1,23.74,24.44q8.67,15.66,8.68,36.46a78,78,0,0,1-4.85,27.78,67.05,67.05,0,0,1-13.83,22.42,64,64,0,0,1-21.21,14.95A66.49,66.49,0,0,1,1484.74,630Zm4-9.9q13.13,0,22.52-7.37t14.44-20a74.59,74.59,0,0,0,5-28,80.92,80.92,0,0,0-6.56-33q-6.57-14.85-17.88-23.53a41.32,41.32,0,0,0-25.85-8.69,35.55,35.55,0,0,0-21.31,6.77q-9.4,6.77-14.85,19.09t-5.46,28.68a93.48,93.48,0,0,0,3.24,24.64,69.14,69.14,0,0,0,9.59,21.21,48.69,48.69,0,0,0,15.66,14.75A41.45,41.45,0,0,0,1488.78,620.13Z"/><path class="cls-5" d="M1578.14,630.15q-6.54,0-10.18-3.63a12.52,12.52,0,0,1-3.63-9.22,13.26,13.26,0,0,1,4.12-9.69,14.4,14.4,0,0,1,10.66-4.12q6.3,0,9.82,4.24c2.34,2.83,3.52,5.62,3.52,8.36q0,7.27-4.37,10.67A15.77,15.77,0,0,1,1578.14,630.15Z"/><path class="cls-5" d="M1613.61,628.82c0-1.88.07-3.54.2-5a15.09,15.09,0,0,1,.81-3.74,21.57,21.57,0,0,0,8.49-2,9.29,9.29,0,0,0,4.34-5.75q1.3-4.14,1.31-12v-83a35,35,0,0,0-1.21-10.51,8.84,8.84,0,0,0-4.24-5.25,19.92,19.92,0,0,0-8.49-1.82,14.94,14.94,0,0,1-.8-3.94c-.14-1.54-.21-3.13-.21-4.74,2.16.13,4.88.23,8.19.3l10.3.2c3.56.07,6.83.1,9.79.1q5.87,0,11.92-.2t11.92-.2a156.84,156.84,0,0,1,21.61,1.51,89,89,0,0,1,20.81,5.46A54.94,54.94,0,0,1,1726,509.54a51.06,51.06,0,0,1,12.22,18.78q4.44,11.41,4.44,28.18,0,16.37-4,28.08a58,58,0,0,1-25.86,32.32,72,72,0,0,1-16.86,7.27,97,97,0,0,1-16.47,3.24,134.7,134.7,0,0,1-13.53.8h-13q-7.38,0-15,.1l-14,.21Q1617.44,628.61,1613.61,628.82Zm52.32-9.7a80.37,80.37,0,0,0,22.32-2.93A44.87,44.87,0,0,0,1706,606.5q7.58-6.76,11.71-18.28t4.14-28.69q0-16.37-4.94-28a50.07,50.07,0,0,0-13.34-18.79,53.6,53.6,0,0,0-19-10.5,72.45,72.45,0,0,0-21.92-3.34,73.26,73.26,0,0,0-9.7.71c-3.5.47-5.79,1.05-6.87,1.72l1.62-5.25V600.34q0,7.47,1.41,11.51a9.12,9.12,0,0,0,5.36,5.66Q1658.45,619.13,1665.93,619.12Z"/><path class="cls-5" d="M1761.07,628.82c0-1.88.07-3.54.2-5a15.09,15.09,0,0,1,.81-3.74,23.06,23.06,0,0,0,8.49-1.92,8.4,8.4,0,0,0,4.24-5.25,35.06,35.06,0,0,0,1.21-10.4V517.32a35,35,0,0,0-1.21-10.51,8.84,8.84,0,0,0-4.24-5.25,19.92,19.92,0,0,0-8.49-1.82,15,15,0,0,1-.81-3.84c-.13-1.48-.2-3.09-.2-4.84q3.84.19,7.78.3l8.18.2q4.24.1,8.48.1,4.44,0,8.49-.1l8-.2q3.93-.11,8-.3c0,1.75-.07,3.36-.21,4.84a14.65,14.65,0,0,1-.8,3.84,20.16,20.16,0,0,0-8.39,1.82,8.74,8.74,0,0,0-4.34,5.25,35,35,0,0,0-1.21,10.51v85.24a35.06,35.06,0,0,0,1.21,10.4,8.32,8.32,0,0,0,4.34,5.25,23.5,23.5,0,0,0,8.39,1.92,14.66,14.66,0,0,1,.8,3.74c.14,1.41.21,3.07.21,5q-6.06-.41-12.33-.51t-12.12-.1q-5.85,0-12.52.1T1761.07,628.82Zm88.07.61q-3.63-5.86-10.1-15t-14.64-19.5q-8.19-10.29-16.67-19.59A185.85,185.85,0,0,0,1792,559.74l41.21-43.23q7.47-7.68,7.57-12t-6.77-4.75a21.36,21.36,0,0,1-.8-4.24q-.21-2.22-.21-4.44c2.29.13,5.32.27,9.09.4s7.68.2,11.72.2q4,0,7.78-.1l7.07-.2c2.22-.07,4.2-.17,6-.3q0,2-.21,4.44a12.88,12.88,0,0,1-1,4.24,28.77,28.77,0,0,0-8.58,1.72,34.5,34.5,0,0,0-8.89,5.15,91.15,91.15,0,0,0-11.21,10.71l-35.35,37.57V550a185.19,185.19,0,0,1,19.29,20.5q10.8,13,23.13,29,5,6.47,8.89,10.71a26.27,26.27,0,0,0,8.78,6.46,39.2,39.2,0,0,0,12.83,2.83c0,1.08-.07,2.42-.2,4a25.7,25.7,0,0,1-.81,4.64h-7.88q-4,0-8.28.21t-8.28.4C1854.12,629,1851.57,629.15,1849.14,629.43Z"/></g><path class="cls-6" d="M3.49,950.82c0-1.88.06-3.54.2-5a14.24,14.24,0,0,1,.81-3.74A23.05,23.05,0,0,0,13,940.21,8.37,8.37,0,0,0,17.22,935a35,35,0,0,0,1.22-10.4V839.32a34.92,34.92,0,0,0-1.22-10.51A8.8,8.8,0,0,0,13,823.56a19.91,19.91,0,0,0-8.48-1.82,14.24,14.24,0,0,1-.81-3.84c-.14-1.48-.2-3.09-.2-4.85,2.29.14,4.84.24,7.67.31l9,.2c3.16.07,6.23.1,9.19.1h8.08V920.52q0,8.68,1.82,13.23A10.74,10.74,0,0,0,45.1,940a31.47,31.47,0,0,0,10.3,2.12,14.65,14.65,0,0,1,.81,3.74c.13,1.41.2,3.07.2,5q-3-.21-7.17-.3l-8.79-.21c-3.1-.06-6.26-.1-9.49-.1q-7.08,0-15.25.1T3.49,950.82Zm85-103.42a32.52,32.52,0,0,0-3.23-12.12q-2.83-5.87-9.8-9.7t-20.1-3.84h-23l4.45-8.08q15.95,0,27.37-.1c7.6-.07,13.84-.17,18.68-.3s8.35-.21,10.51-.21c.27,3,.6,6.4,1,10.31s.87,7.74,1.41,11.51S96.94,842,97.62,845a8.53,8.53,0,0,1-3.94,1.92A24.1,24.1,0,0,1,88.53,847.4Zm-5,61.4c-1.75,0-3.37-.06-4.85-.2a24.7,24.7,0,0,1-4.44-.81q-.81-10.5-5.56-14.24t-17.27-3.73H36.82v-8.69H51.36q12.53,0,17.37-3.23t5-13.13a30.4,30.4,0,0,1,4.85-1.11,36.3,36.3,0,0,1,4.85-.31q-.21,5.05-.3,10.91t-.1,11.11c0,3.51,0,7.41.1,11.72S83.34,905.3,83.48,908.8Z"/><path class="cls-6" d="M131.75,839.32a35,35,0,0,0-1.21-10.51,8.8,8.8,0,0,0-4.24-5.25,19.91,19.91,0,0,0-8.48-1.82,14.24,14.24,0,0,1-.81-3.84c-.14-1.48-.2-3.09-.2-4.85,2.55.14,5.15.24,7.77.31l8.19.2q4.23.11,8.48.1,4.44,0,8.48-.1l8-.2q3.94-.11,8-.31c0,1.76-.07,3.37-.2,4.85a15,15,0,0,1-.81,3.84,20.11,20.11,0,0,0-8.38,1.82,8.71,8.71,0,0,0-4.34,5.25,34.92,34.92,0,0,0-1.22,10.51v85.24A35,35,0,0,0,152,935a8.29,8.29,0,0,0,4.34,5.25,23.44,23.44,0,0,0,8.38,1.92,15.09,15.09,0,0,1,.81,3.74c.13,1.41.2,3.07.2,5q-6.06-.41-12.32-.51t-12.12-.1q-5.87,0-12.52.1t-11.92.51c0-1.88.06-3.54.2-5a14.24,14.24,0,0,1,.81-3.74,23.05,23.05,0,0,0,8.48-1.92,8.37,8.37,0,0,0,4.24-5.25,35.06,35.06,0,0,0,1.21-10.4Z"/><path class="cls-6" d="M241.84,941.12q11.31,0,17.78-2.42a21.65,21.65,0,0,0,10.4-8.08,61.55,61.55,0,0,0,7.17-15,22.64,22.64,0,0,1,5.05,1.92,17,17,0,0,1,3.84,2.93,121.31,121.31,0,0,0-3.74,15q-1.51,8.09-2.52,15.15c-2.56-.14-6-.2-10.2-.2s-8.89,0-13.94-.11-10.07-.1-15.05-.1h-13q-7.38,0-14.95.1l-14,.21q-6.47.09-10.3.3c0-1.88.07-3.54.2-5a15.09,15.09,0,0,1,.81-3.74,21.57,21.57,0,0,0,8.49-2,9.29,9.29,0,0,0,4.34-5.75q1.31-4.14,1.31-12v-83a35,35,0,0,0-1.21-10.51,8.84,8.84,0,0,0-4.24-5.25,19.92,19.92,0,0,0-8.49-1.82,14.94,14.94,0,0,1-.8-3.94c-.14-1.54-.21-3.13-.21-4.75q4.05.21,8.59.31l8.79.2q4.23.11,7.07.1,4.44,0,8.48-.1l8-.2c2.63-.07,5.28-.17,8-.31,0,1.76-.07,3.37-.2,4.85a15,15,0,0,1-.81,3.84,20.11,20.11,0,0,0-8.38,1.82,8.8,8.8,0,0,0-4.35,5.45,38,38,0,0,0-1.21,10.91v82.42q0,7.47,1.41,11.51a9.12,9.12,0,0,0,5.36,5.66q3.93,1.62,11.41,1.61Z"/><path class="cls-6" d="M316.38,839.32a35,35,0,0,0-1.21-10.51,8.84,8.84,0,0,0-4.24-5.25,19.92,19.92,0,0,0-8.49-1.82,15,15,0,0,1-.81-3.84c-.13-1.48-.2-3.09-.2-4.85q3.84.21,7.78.31l8.18.2q4.25.11,8.48.1,4.44,0,8.49-.1l8-.2q3.93-.11,8-.31c0,1.76-.07,3.37-.21,4.85a14.65,14.65,0,0,1-.8,3.84,20.16,20.16,0,0,0-8.39,1.82,8.74,8.74,0,0,0-4.34,5.25,35,35,0,0,0-1.21,10.51v85.24a35.06,35.06,0,0,0,1.21,10.4,8.32,8.32,0,0,0,4.34,5.25,23.5,23.5,0,0,0,8.39,1.92,14.66,14.66,0,0,1,.8,3.74c.14,1.41.21,3.07.21,5q-6.06-.41-12.33-.51t-12.12-.1q-5.85,0-12.52.1t-11.92.51c0-1.88.07-3.54.2-5a15.09,15.09,0,0,1,.81-3.74,23.06,23.06,0,0,0,8.49-1.92,8.4,8.4,0,0,0,4.24-5.25,35.06,35.06,0,0,0,1.21-10.4Z"/><path class="cls-6" d="M372.94,950.82c0-1.88.06-3.54.2-5a14.24,14.24,0,0,1,.81-3.74,23.05,23.05,0,0,0,8.48-1.92,8.37,8.37,0,0,0,4.24-5.25,35,35,0,0,0,1.22-10.4V839.32a34.92,34.92,0,0,0-1.22-10.51,8.8,8.8,0,0,0-4.24-5.25,19.91,19.91,0,0,0-8.48-1.82,14.24,14.24,0,0,1-.81-3.84c-.14-1.48-.2-3.09-.2-4.85,5.25.28,10.33.44,15.25.51s9,.1,12.22.1c1.88,0,4.55,0,8-.1l10.2-.2c3.36-.07,5.86-.1,7.47-.1q16.77,0,26.87,5.45t14.54,14.34a42.84,42.84,0,0,1,4.45,19.4,50.75,50.75,0,0,1-5.15,22.22,44.19,44.19,0,0,1-15.25,17.57q-10.11,6.87-25.46,6.87a38.76,38.76,0,0,1-14.14-2.23,23.51,23.51,0,0,1-.4-4.24,13.85,13.85,0,0,1,.61-4,45.4,45.4,0,0,0,5.25.91,47.86,47.86,0,0,0,5.45.31,36.71,36.71,0,0,0,13.94-2.63,21.65,21.65,0,0,0,10.5-9.39q4.05-6.76,4-19.5,0-16.15-8-26.16t-26.15-10a51.44,51.44,0,0,0-5.16.3,73.16,73.16,0,0,0-8.18,1.51l3-3v99.59q0,8.68,1.82,13.23a10.74,10.74,0,0,0,5.86,6.26,31.47,31.47,0,0,0,10.3,2.12,14.65,14.65,0,0,1,.81,3.74c.13,1.41.2,3.07.2,5q-3-.21-7.17-.3l-8.79-.21c-3.1-.06-6.26-.1-9.49-.1s-6.46,0-10.1.1l-10.1.21Q375.56,950.61,372.94,950.82Z"/><path class="cls-6" d="M490.3,950.82c0-1.88.06-3.54.2-5a14.24,14.24,0,0,1,.81-3.74,23.05,23.05,0,0,0,8.48-1.92A8.37,8.37,0,0,0,504,935a35,35,0,0,0,1.22-10.4V839.32A34.92,34.92,0,0,0,504,828.81a8.8,8.8,0,0,0-4.24-5.25,19.91,19.91,0,0,0-8.48-1.82,14.24,14.24,0,0,1-.81-3.84c-.14-1.48-.2-3.09-.2-4.85,5.25.28,10.33.44,15.25.51s9,.1,12.22.1c1.88,0,4.55,0,8-.1l10.2-.2c3.36-.07,5.86-.1,7.47-.1q16.77,0,26.87,5.45t14.54,14.34a42.84,42.84,0,0,1,4.45,19.4,50.75,50.75,0,0,1-5.15,22.22,44.19,44.19,0,0,1-15.25,17.57q-10.11,6.87-25.46,6.87a38.76,38.76,0,0,1-14.14-2.23,23.51,23.51,0,0,1-.4-4.24,13.85,13.85,0,0,1,.61-4,45.4,45.4,0,0,0,5.25.91,47.86,47.86,0,0,0,5.45.31,36.71,36.71,0,0,0,13.94-2.63,21.65,21.65,0,0,0,10.5-9.39q4.05-6.76,4-19.5,0-16.15-8-26.16t-26.16-10a51.1,51.1,0,0,0-5.15.3A72.85,72.85,0,0,0,521.2,824l3-3v99.59q0,8.68,1.82,13.23a10.74,10.74,0,0,0,5.86,6.26,31.47,31.47,0,0,0,10.3,2.12,14.65,14.65,0,0,1,.81,3.74c.13,1.41.2,3.07.2,5q-3-.21-7.17-.3l-8.79-.21c-3.09-.06-6.26-.1-9.49-.1s-6.46,0-10.1.1l-10.1.21Q492.92,950.61,490.3,950.82Z"/><path class="cls-6" d="M658.57,812.45l48.07,110.29q3.43,7.47,5.66,11.52a16.42,16.42,0,0,0,4.54,5.65,14,14,0,0,0,5.36,2.22,26.39,26.39,0,0,1,1,4.45,40.08,40.08,0,0,1,.2,4.24q-2-.21-6.26-.3l-8.89-.21c-3.1-.06-5.73-.1-7.88-.1-1.62,0-3.5,0-5.66.1l-6.66.21c-2.29.06-4.35.13-6.16.2s-3.27.1-4.35.1a33.21,33.21,0,0,1,.31-4.65,14.81,14.81,0,0,1,1.11-4q8.28-1,9.79-3.73t-2.52-12l-28.08-65.65q-2.62-6.27-4.64-11.11c-1.35-3.24-3-7.34-4.85-12.33h1q-2.43,7.69-4.35,13t-3.73,10.21l-23,60q-4.44,11.93-2.73,16.46t10,5.15a14.81,14.81,0,0,1,1.11,4,34.8,34.8,0,0,1,.31,4.65q-2.24-.21-5.46-.3l-6.77-.21c-2.35-.06-4.68-.1-7-.1q-5.05,0-9.5.21c-3,.13-5.39.26-7.27.4a34,34,0,0,1,.3-4.34,14.76,14.76,0,0,1,1.11-4.14,14,14,0,0,0,6.06-2.83,20.93,20.93,0,0,0,4.75-6.57,134.5,134.5,0,0,0,5.35-12.42l41.82-107.26c1.34-.27,2.59-.47,3.73-.61A37.5,37.5,0,0,1,658.57,812.45ZM677,896.68l1.82,9.09q-13.54,0-29,.21t-28,.6l3.23-9.9Z"/><path class="cls-6" d="M836.93,952q-6.06-8.07-10.6-14.74t-10.81-16.57q-4-6.47-7.78-11.82a103.57,103.57,0,0,0-9-11,144.81,144.81,0,0,0-13.53-12.53l5.25,2.63q-5.25.19-9.7.2t-8.48-.2v-9.5c1.88.28,3.64.48,5.25.61s3.3.2,5.05.2a59.88,59.88,0,0,0,20-3.13,30.33,30.33,0,0,0,14.14-9.8q5.25-6.66,5.25-17.17,0-11.91-7.57-19.49t-25.76-7.57a75.51,75.51,0,0,0-8.28.4,59.27,59.27,0,0,0-7.68,1.41l1-3.84V924.56a35,35,0,0,0,1.22,10.4,8.29,8.29,0,0,0,4.34,5.25,23.49,23.49,0,0,0,8.38,1.92,18.19,18.19,0,0,1,.81,4.14c.13,1.55.2,3.07.2,4.55-3-.27-6-.44-9.19-.51s-6.09-.1-8.79-.1H764q-5.26,0-12.42.1t-11.82.51c0-1.48.06-3,.2-4.44a20.76,20.76,0,0,1,.81-4.25,23.05,23.05,0,0,0,8.48-1.92A8.37,8.37,0,0,0,753.5,935a35,35,0,0,0,1.22-10.4V839.32a35.93,35.93,0,0,0-1.22-10.61,8.81,8.81,0,0,0-4.24-5.35q-3-1.62-8.48-1.62a20.52,20.52,0,0,1-.81-4,43.26,43.26,0,0,1-.2-4.44q2,0,6,.1l8.68.2c3.17.07,6.09.1,8.79.1q5.85,0,12.12-.1l11.51-.2c3.5-.07,6.2-.1,8.08-.1q17.39,0,27.58,4.44t14.74,12a32.16,32.16,0,0,1,4.55,16.87,34.54,34.54,0,0,1-4.34,17.47,36.53,36.53,0,0,1-12.53,12.73,63.1,63.1,0,0,1-19.69,7.77l1-2.42a90.58,90.58,0,0,1,8,6.57,67.16,67.16,0,0,1,6.26,6.76q2.92,3.64,6.26,8.59t7.78,12a119.52,119.52,0,0,0,10.7,14A34.91,34.91,0,0,0,856,938.4a35.66,35.66,0,0,0,13.43,3.13c0,1.61,0,3.1-.1,4.44a19.67,19.67,0,0,1-.71,4.24q-7.47,0-15.85.31A127.25,127.25,0,0,0,836.93,952Z"/><path class="cls-6" d="M892.48,822.55c-6.46,0-11.35,1-14.64,3.13a17.29,17.29,0,0,0-7.07,8.59,72.82,72.82,0,0,0-3.54,12.92,35.91,35.91,0,0,1-5.05-.4,13.66,13.66,0,0,1-4.65-1.41q1.62-8.49,2.43-17t.81-15.36q5.65.21,13.83.41t17.78.2h40q9.79,0,18.07-.2t13.74-.41q-.21,7.28.1,15t1.11,17.38a17.94,17.94,0,0,1-4.54,1.51,20.85,20.85,0,0,1-5.56.3q-.19-11.91-5.55-18.28t-17.27-6.36Zm10.3-3.43h19V924.56A35.06,35.06,0,0,0,923,935a8.19,8.19,0,0,0,4.65,5.25,29.84,29.84,0,0,0,9.9,1.92,14.66,14.66,0,0,1,.8,3.74c.14,1.41.21,3.07.21,5-4.32-.27-8.72-.44-13.23-.51s-8.93-.1-13.24-.1c-2.82,0-5.82,0-9,.1l-9.2.21q-4.44.09-8.28.3c0-1.88.07-3.54.2-5a15.09,15.09,0,0,1,.81-3.74,31,31,0,0,0,10-1.92,8.48,8.48,0,0,0,4.85-5.25,32.74,32.74,0,0,0,1.31-10.4Z"/><path class="cls-6" d="M976.72,950.82c0-1.88.06-3.54.2-5a14.24,14.24,0,0,1,.81-3.74,23.05,23.05,0,0,0,8.48-1.92,8.4,8.4,0,0,0,4.24-5.25,35.06,35.06,0,0,0,1.21-10.4V839.32a35,35,0,0,0-1.21-10.51,8.84,8.84,0,0,0-4.24-5.25,19.91,19.91,0,0,0-8.48-1.82,14.24,14.24,0,0,1-.81-3.84c-.14-1.48-.2-3.09-.2-4.85q3.42.21,7.67.31l9,.2c3.16.07,6.23.1,9.19.1h8.08V920.52q0,8.68,1.82,13.23a10.74,10.74,0,0,0,5.86,6.26,31.41,31.41,0,0,0,10.3,2.12,15.09,15.09,0,0,1,.81,3.74c.13,1.41.2,3.07.2,5q-3-.21-7.17-.3l-8.79-.21c-3.1-.06-6.26-.1-9.49-.1q-7.08,0-15.25.1T976.72,950.82Zm85-103.42a32.52,32.52,0,0,0-3.23-12.12q-2.83-5.87-9.8-9.7t-20.1-3.84h-23l4.45-8.08q15.94,0,27.37-.1t18.68-.3q7.28-.21,10.51-.21c.26,3,.6,6.4,1,10.31s.87,7.74,1.41,11.51,1.14,7.14,1.82,10.1a8.53,8.53,0,0,1-3.94,1.92A24.1,24.1,0,0,1,1061.76,847.4Zm-5,61.4c-1.75,0-3.37-.06-4.85-.2a24.7,24.7,0,0,1-4.44-.81q-.81-10.5-5.56-14.24t-17.27-3.73h-14.54v-8.69h14.54q12.53,0,17.37-3.23t5-13.13a30.4,30.4,0,0,1,4.85-1.11,36.3,36.3,0,0,1,4.85-.31q-.21,5.05-.31,10.91t-.1,11.11c0,3.51,0,7.41.1,11.72S1056.57,905.3,1056.71,908.8Z"/><path class="cls-6" d="M1152.45,952q-20,0-34.94-9.29a64.26,64.26,0,0,1-23.33-25.25q-8.39-16-8.39-36a74.87,74.87,0,0,1,5.15-28.28,67.18,67.18,0,0,1,14.25-22,63.54,63.54,0,0,1,21.21-14.35,67.16,67.16,0,0,1,26-5q19.4,0,34.44,8.79a63.32,63.32,0,0,1,23.74,24.44q8.68,15.66,8.69,36.46a78,78,0,0,1-4.85,27.78,67.08,67.08,0,0,1-13.84,22.42,63.76,63.76,0,0,1-21.21,14.95A66.49,66.49,0,0,1,1152.45,952Zm4-9.9q13.14,0,22.53-7.37t14.44-20a74.79,74.79,0,0,0,5-28,80.76,80.76,0,0,0-6.57-33q-6.56-14.85-17.87-23.53a41.34,41.34,0,0,0-25.86-8.69,35.55,35.55,0,0,0-21.31,6.77q-9.39,6.77-14.85,19.09t-5.45,28.68a93.89,93.89,0,0,0,3.23,24.64,68.92,68.92,0,0,0,9.6,21.21,48.76,48.76,0,0,0,15.65,14.75A41.45,41.45,0,0,0,1156.49,942.13Z"/><path class="cls-6" d="M1291.23,941.12q11.31,0,17.77-2.42a21.65,21.65,0,0,0,10.4-8.08,61.91,61.91,0,0,0,7.18-15,22.84,22.84,0,0,1,5.05,1.92,17.21,17.21,0,0,1,3.83,2.93,121.35,121.35,0,0,0-3.73,15q-1.51,8.09-2.53,15.15c-2.56-.14-6-.2-10.2-.2s-8.89,0-13.94-.11-10.07-.1-15-.1h-13q-7.37,0-14.94.1l-14,.21c-4.31.06-7.75.16-10.3.3,0-1.88.06-3.54.2-5a14.24,14.24,0,0,1,.81-3.74,21.56,21.56,0,0,0,8.48-2,9.29,9.29,0,0,0,4.34-5.75q1.32-4.14,1.32-12v-83a34.92,34.92,0,0,0-1.22-10.51,8.8,8.8,0,0,0-4.24-5.25,19.91,19.91,0,0,0-8.48-1.82,14.52,14.52,0,0,1-.81-3.94c-.14-1.54-.2-3.13-.2-4.75q4,.21,8.58.31l8.79.2c2.83.07,5.18.1,7.07.1q4.44,0,8.48-.1l8-.2q3.95-.11,8-.31c0,1.76-.07,3.37-.2,4.85a14.63,14.63,0,0,1-.81,3.84,20.11,20.11,0,0,0-8.38,1.82,8.76,8.76,0,0,0-4.34,5.45,37.93,37.93,0,0,0-1.22,10.91v82.42q0,7.47,1.42,11.51a9.08,9.08,0,0,0,5.35,5.66q3.95,1.62,11.41,1.61Z"/><path class="cls-6" d="M1365.76,839.32a35,35,0,0,0-1.21-10.51,8.84,8.84,0,0,0-4.24-5.25,19.92,19.92,0,0,0-8.49-1.82,14.65,14.65,0,0,1-.8-3.84c-.14-1.48-.21-3.09-.21-4.85,2.56.14,5.16.24,7.78.31l8.18.2q4.24.11,8.49.1,4.44,0,8.48-.1l8-.2c2.63-.07,5.28-.17,8-.31,0,1.76-.07,3.37-.2,4.85a15,15,0,0,1-.81,3.84,20.11,20.11,0,0,0-8.38,1.82,8.76,8.76,0,0,0-4.35,5.25,35,35,0,0,0-1.21,10.51v85.24A35.06,35.06,0,0,0,1386,935a8.33,8.33,0,0,0,4.35,5.25,23.44,23.44,0,0,0,8.38,1.92,15.09,15.09,0,0,1,.81,3.74c.13,1.41.2,3.07.2,5q-6.06-.41-12.32-.51t-12.12-.1q-5.87,0-12.53.1t-11.92.51c0-1.88.07-3.54.21-5a14.66,14.66,0,0,1,.8-3.74,23.06,23.06,0,0,0,8.49-1.92,8.4,8.4,0,0,0,4.24-5.25,35.06,35.06,0,0,0,1.21-10.4Z"/><path class="cls-6" d="M1484.74,952q-20,0-35-9.29a64.4,64.4,0,0,1-23.33-25.25q-8.39-16-8.38-36a74.87,74.87,0,0,1,5.15-28.28,67,67,0,0,1,14.24-22,63.54,63.54,0,0,1,21.21-14.35,67.2,67.2,0,0,1,26.06-5q19.4,0,34.44,8.79a63.39,63.39,0,0,1,23.74,24.44q8.67,15.66,8.68,36.46a78,78,0,0,1-4.85,27.78,67.05,67.05,0,0,1-13.83,22.42,64,64,0,0,1-21.21,14.95A66.49,66.49,0,0,1,1484.74,952Zm4-9.9q13.13,0,22.52-7.37t14.44-20a74.59,74.59,0,0,0,5-28,80.92,80.92,0,0,0-6.56-33q-6.57-14.85-17.88-23.53a41.32,41.32,0,0,0-25.85-8.69,35.55,35.55,0,0,0-21.31,6.77q-9.4,6.77-14.85,19.09t-5.46,28.68a93.48,93.48,0,0,0,3.24,24.64,69.14,69.14,0,0,0,9.59,21.21,48.69,48.69,0,0,0,15.66,14.75A41.45,41.45,0,0,0,1488.78,942.13Z"/><path class="cls-6" d="M1578.14,952.15q-6.54,0-10.18-3.63a12.52,12.52,0,0,1-3.63-9.22,13.26,13.26,0,0,1,4.12-9.69,14.4,14.4,0,0,1,10.66-4.12q6.3,0,9.82,4.24c2.34,2.83,3.52,5.62,3.52,8.36q0,7.27-4.37,10.67A15.77,15.77,0,0,1,1578.14,952.15Z"/><path class="cls-6" d="M1613.61,950.82c0-1.88.07-3.54.2-5a15.09,15.09,0,0,1,.81-3.74,21.57,21.57,0,0,0,8.49-2,9.29,9.29,0,0,0,4.34-5.75q1.3-4.14,1.31-12v-83a35,35,0,0,0-1.21-10.51,8.84,8.84,0,0,0-4.24-5.25,19.92,19.92,0,0,0-8.49-1.82,14.94,14.94,0,0,1-.8-3.94c-.14-1.54-.21-3.13-.21-4.75,2.16.14,4.88.24,8.19.31l10.3.2c3.56.07,6.83.1,9.79.1q5.87,0,11.92-.2t11.92-.2a156.84,156.84,0,0,1,21.61,1.51,89,89,0,0,1,20.81,5.46A54.94,54.94,0,0,1,1726,831.54a51.06,51.06,0,0,1,12.22,18.78q4.44,11.41,4.44,28.18,0,16.37-4,28.08a58,58,0,0,1-25.86,32.32,72,72,0,0,1-16.86,7.27,97,97,0,0,1-16.47,3.24,134.7,134.7,0,0,1-13.53.8h-13q-7.38,0-15,.1l-14,.21Q1617.44,950.61,1613.61,950.82Zm52.32-9.7a80.37,80.37,0,0,0,22.32-2.93A44.87,44.87,0,0,0,1706,928.5q7.58-6.76,11.71-18.28t4.14-28.69q0-16.37-4.94-28a50.07,50.07,0,0,0-13.34-18.79,53.6,53.6,0,0,0-19-10.5,72.45,72.45,0,0,0-21.92-3.34,73.26,73.26,0,0,0-9.7.71c-3.5.47-5.79,1.05-6.87,1.72l1.62-5.25V922.34q0,7.47,1.41,11.51a9.12,9.12,0,0,0,5.36,5.66Q1658.45,941.13,1665.93,941.12Z"/><path class="cls-6" d="M1761.07,950.82c0-1.88.07-3.54.2-5a15.09,15.09,0,0,1,.81-3.74,23.06,23.06,0,0,0,8.49-1.92,8.4,8.4,0,0,0,4.24-5.25,35.06,35.06,0,0,0,1.21-10.4V839.32a35,35,0,0,0-1.21-10.51,8.84,8.84,0,0,0-4.24-5.25,19.92,19.92,0,0,0-8.49-1.82,15,15,0,0,1-.81-3.84c-.13-1.48-.2-3.09-.2-4.85q3.84.21,7.78.31l8.18.2q4.24.11,8.48.1,4.44,0,8.49-.1l8-.2q3.93-.11,8-.31c0,1.76-.07,3.37-.21,4.85a14.65,14.65,0,0,1-.8,3.84,20.16,20.16,0,0,0-8.39,1.82,8.74,8.74,0,0,0-4.34,5.25,35,35,0,0,0-1.21,10.51v85.24a35.06,35.06,0,0,0,1.21,10.4,8.32,8.32,0,0,0,4.34,5.25,23.5,23.5,0,0,0,8.39,1.92,14.66,14.66,0,0,1,.8,3.74c.14,1.41.21,3.07.21,5q-6.06-.41-12.33-.51t-12.12-.1q-5.85,0-12.52.1T1761.07,950.82Zm88.07.61q-3.63-5.86-10.1-15t-14.64-19.5q-8.19-10.29-16.67-19.59A185.85,185.85,0,0,0,1792,881.74l41.21-43.23q7.47-7.68,7.57-12t-6.77-4.75a21.36,21.36,0,0,1-.8-4.24c-.14-1.48-.21-3-.21-4.45q3.43.21,9.09.41c3.77.14,7.68.2,11.72.2q4,0,7.78-.1l7.07-.2c2.22-.07,4.2-.17,6-.31,0,1.35-.07,2.83-.21,4.45a12.88,12.88,0,0,1-1,4.24,28.77,28.77,0,0,0-8.58,1.72,34.5,34.5,0,0,0-8.89,5.15,91.15,91.15,0,0,0-11.21,10.71l-35.35,37.57V872a185.19,185.19,0,0,1,19.29,20.5q10.8,13,23.13,29,5,6.47,8.89,10.71a26.27,26.27,0,0,0,8.78,6.46,39.2,39.2,0,0,0,12.83,2.83c0,1.08-.07,2.42-.2,4a25.7,25.7,0,0,1-.81,4.64h-7.88q-4,0-8.28.21t-8.28.4C1854.12,951,1851.57,951.15,1849.14,951.43Z"/><g class="cls-7"><path class="cls-8" d="M3.49,467.33c0-1.88.06-3.53.2-4.95a14.16,14.16,0,0,1,.81-3.73A23.26,23.26,0,0,0,13,456.73a8.42,8.42,0,0,0,4.24-5.25,35,35,0,0,0,1.22-10.41V355.83a34.92,34.92,0,0,0-1.22-10.51A8.8,8.8,0,0,0,13,340.07a20.06,20.06,0,0,0-8.48-1.82,14.24,14.24,0,0,1-.81-3.83c-.14-1.48-.2-3.1-.2-4.85,2.29.13,4.84.24,7.67.3s5.83.14,9,.2,6.23.1,9.19.1h8.08V437q0,8.69,1.82,13.23a10.78,10.78,0,0,0,5.86,6.27,32,32,0,0,0,10.3,2.12,14.57,14.57,0,0,1,.81,3.73c.13,1.42.2,3.07.2,4.95q-3-.19-7.17-.3t-8.79-.2q-4.65-.1-9.49-.1-7.08,0-15.25.1T3.49,467.33Zm85-103.42a32.62,32.62,0,0,0-3.23-12.12q-2.83-5.87-9.8-9.7t-20.1-3.84h-23l4.45-8.08q15.95,0,27.37-.1c7.6-.06,13.84-.16,18.68-.3s8.35-.2,10.51-.2c.27,3,.6,6.4,1,10.3s.87,7.75,1.41,11.51,1.14,7.14,1.82,10.1a8.53,8.53,0,0,1-3.94,1.92A24.1,24.1,0,0,1,88.53,363.91Zm-5,61.41c-1.75,0-3.37-.07-4.85-.21a25.58,25.58,0,0,1-4.44-.8q-.81-10.5-5.56-14.24t-17.27-3.74H36.82v-8.69H51.36q12.53,0,17.37-3.23t5-13.13a30.4,30.4,0,0,1,4.85-1.11,36.37,36.37,0,0,1,4.85-.3c-.14,3.36-.24,7-.3,10.9s-.1,7.61-.1,11.11,0,7.41.1,11.72S83.34,421.82,83.48,425.32Z"/><path class="cls-8" d="M131.75,355.83a35,35,0,0,0-1.21-10.51,8.8,8.8,0,0,0-4.24-5.25,20.06,20.06,0,0,0-8.48-1.82,14.24,14.24,0,0,1-.81-3.83c-.14-1.48-.2-3.1-.2-4.85,2.55.13,5.15.24,7.77.3l8.19.2q4.23.1,8.48.1,4.44,0,8.48-.1l8-.2c2.63-.06,5.29-.17,8-.3,0,1.75-.07,3.37-.2,4.85a15.06,15.06,0,0,1-.81,3.83,20.27,20.27,0,0,0-8.38,1.82,8.71,8.71,0,0,0-4.34,5.25,34.92,34.92,0,0,0-1.22,10.51v85.24A35,35,0,0,0,152,451.48a8.34,8.34,0,0,0,4.34,5.25,23.66,23.66,0,0,0,8.38,1.92,15,15,0,0,1,.81,3.73c.13,1.42.2,3.07.2,4.95q-6.06-.4-12.32-.5t-12.12-.1q-5.87,0-12.52.1t-11.92.5c0-1.88.06-3.53.2-4.95a14.16,14.16,0,0,1,.81-3.73,23.26,23.26,0,0,0,8.48-1.92,8.42,8.42,0,0,0,4.24-5.25,35.09,35.09,0,0,0,1.21-10.41Z"/><path class="cls-8" d="M241.84,457.64q11.31,0,17.78-2.43a21.6,21.6,0,0,0,10.4-8.08,61.55,61.55,0,0,0,7.17-14.95,23.14,23.14,0,0,1,5.05,1.92,17.33,17.33,0,0,1,3.84,2.93,121.77,121.77,0,0,0-3.74,15q-1.51,8.08-2.52,15.15c-2.56-.14-6-.2-10.2-.2s-8.89,0-13.94-.1-10.07-.1-15.05-.1h-13q-7.38,0-14.95.1t-14,.2q-6.47.11-10.3.3c0-1.88.07-3.53.2-4.95a15,15,0,0,1,.81-3.73,21.74,21.74,0,0,0,8.49-2,9.34,9.34,0,0,0,4.34-5.76q1.31-4.14,1.31-12v-83a35,35,0,0,0-1.21-10.51,8.84,8.84,0,0,0-4.24-5.25,20.07,20.07,0,0,0-8.49-1.82,14.86,14.86,0,0,1-.8-3.93c-.14-1.55-.21-3.14-.21-4.75,2.7.13,5.56.24,8.59.3l8.79.2q4.23.1,7.07.1,4.44,0,8.48-.1l8-.2c2.63-.06,5.28-.17,8-.3,0,1.75-.07,3.37-.2,4.85a15.06,15.06,0,0,1-.81,3.83,20.27,20.27,0,0,0-8.38,1.82,8.8,8.8,0,0,0-4.35,5.46,37.91,37.91,0,0,0-1.21,10.9v82.42q0,7.47,1.41,11.51a9.12,9.12,0,0,0,5.36,5.66q3.93,1.62,11.41,1.62Z"/><path class="cls-8" d="M316.38,355.83a35,35,0,0,0-1.21-10.51,8.84,8.84,0,0,0-4.24-5.25,20.07,20.07,0,0,0-8.49-1.82,15.06,15.06,0,0,1-.81-3.83c-.13-1.48-.2-3.1-.2-4.85,2.56.13,5.15.24,7.78.3l8.18.2q4.25.1,8.48.1,4.44,0,8.49-.1l8-.2c2.62-.06,5.28-.17,8-.3,0,1.75-.07,3.37-.21,4.85a14.66,14.66,0,0,1-.8,3.83,20.32,20.32,0,0,0-8.39,1.82,8.74,8.74,0,0,0-4.34,5.25,35,35,0,0,0-1.21,10.51v85.24a35.09,35.09,0,0,0,1.21,10.41,8.37,8.37,0,0,0,4.34,5.25,23.72,23.72,0,0,0,8.39,1.92,14.58,14.58,0,0,1,.8,3.73q.21,2.13.21,4.95-6.06-.4-12.33-.5t-12.12-.1q-5.85,0-12.52.1t-11.92.5c0-1.88.07-3.53.2-4.95a15,15,0,0,1,.81-3.73,23.26,23.26,0,0,0,8.49-1.92,8.45,8.45,0,0,0,4.24-5.25,35.09,35.09,0,0,0,1.21-10.41Z"/><path class="cls-8" d="M372.94,467.33c0-1.88.06-3.53.2-4.95a14.16,14.16,0,0,1,.81-3.73,23.26,23.26,0,0,0,8.48-1.92,8.42,8.42,0,0,0,4.24-5.25,35,35,0,0,0,1.22-10.41V355.83a34.92,34.92,0,0,0-1.22-10.51,8.8,8.8,0,0,0-4.24-5.25,20.06,20.06,0,0,0-8.48-1.82,14.24,14.24,0,0,1-.81-3.83c-.14-1.48-.2-3.1-.2-4.85q7.88.4,15.25.5t12.22.1c1.88,0,4.55,0,8-.1l10.2-.2c3.36-.06,5.86-.1,7.47-.1q16.77,0,26.87,5.45t14.54,14.35A42.77,42.77,0,0,1,471.92,369a50.75,50.75,0,0,1-5.15,22.22,44.05,44.05,0,0,1-15.25,17.57q-10.11,6.87-25.46,6.87a39,39,0,0,1-14.14-2.22,23.68,23.68,0,0,1-.4-4.24,13.75,13.75,0,0,1,.61-4,50.13,50.13,0,0,0,5.25.91,47.91,47.91,0,0,0,5.45.3,36.71,36.71,0,0,0,13.94-2.63,21.65,21.65,0,0,0,10.5-9.39q4.05-6.76,4-19.49,0-16.17-8-26.16t-26.15-10a51.44,51.44,0,0,0-5.16.3,71.37,71.37,0,0,0-8.18,1.52l3-3V437q0,8.69,1.82,13.23a10.78,10.78,0,0,0,5.86,6.27,32,32,0,0,0,10.3,2.12,14.57,14.57,0,0,1,.81,3.73c.13,1.42.2,3.07.2,4.95q-3-.19-7.17-.3t-8.79-.2q-4.65-.1-9.49-.1c-3.1,0-6.46,0-10.1.1s-7,.13-10.1.2S374.69,467.2,372.94,467.33Z"/><path class="cls-8" d="M490.3,467.33c0-1.88.06-3.53.2-4.95a14.16,14.16,0,0,1,.81-3.73,23.26,23.26,0,0,0,8.48-1.92,8.42,8.42,0,0,0,4.24-5.25,35,35,0,0,0,1.22-10.41V355.83A34.92,34.92,0,0,0,504,345.32a8.8,8.8,0,0,0-4.24-5.25,20.06,20.06,0,0,0-8.48-1.82,14.24,14.24,0,0,1-.81-3.83c-.14-1.48-.2-3.1-.2-4.85q7.88.4,15.25.5t12.22.1c1.88,0,4.55,0,8-.1l10.2-.2c3.36-.06,5.86-.1,7.47-.1q16.77,0,26.87,5.45t14.54,14.35A42.77,42.77,0,0,1,589.28,369a50.75,50.75,0,0,1-5.15,22.22,44.05,44.05,0,0,1-15.25,17.57q-10.11,6.87-25.46,6.87a39,39,0,0,1-14.14-2.22,23.68,23.68,0,0,1-.4-4.24,13.75,13.75,0,0,1,.61-4,50.13,50.13,0,0,0,5.25.91,47.91,47.91,0,0,0,5.45.3,36.71,36.71,0,0,0,13.94-2.63,21.65,21.65,0,0,0,10.5-9.39q4.05-6.76,4-19.49,0-16.17-8-26.16t-26.16-10a51.1,51.1,0,0,0-5.15.3,71.07,71.07,0,0,0-8.19,1.52l3-3V437q0,8.69,1.82,13.23a10.78,10.78,0,0,0,5.86,6.27,32,32,0,0,0,10.3,2.12,14.57,14.57,0,0,1,.81,3.73c.13,1.42.2,3.07.2,4.95q-3-.19-7.17-.3t-8.79-.2c-3.09-.07-6.26-.1-9.49-.1s-6.46,0-10.1.1-7,.13-10.1.2S492.05,467.2,490.3,467.33Z"/><path class="cls-8" d="M658.57,329l48.07,110.29q3.43,7.49,5.66,11.52a16.32,16.32,0,0,0,4.54,5.65,14.2,14.2,0,0,0,5.36,2.23,26.31,26.31,0,0,1,1,4.44,40.22,40.22,0,0,1,.2,4.24q-2-.19-6.26-.3l-8.89-.2q-4.65-.1-7.88-.1c-1.62,0-3.5,0-5.66.1l-6.66.2c-2.29.07-4.35.13-6.16.2s-3.27.1-4.35.1a33.07,33.07,0,0,1,.31-4.64,14.71,14.71,0,0,1,1.11-4q8.28-1,9.79-3.74t-2.52-12l-28.08-65.65q-2.62-6.25-4.64-11.11t-4.85-12.32h1q-2.43,7.68-4.35,13T641.6,377l-23,60q-4.44,11.93-2.73,16.47t10,5.15a14.71,14.71,0,0,1,1.11,4,34.65,34.65,0,0,1,.31,4.64q-2.24-.19-5.46-.3l-6.77-.2c-2.35-.07-4.68-.1-7-.1-3.37,0-6.54.06-9.5.2s-5.39.27-7.27.4a34.08,34.08,0,0,1,.3-4.34,14.76,14.76,0,0,1,1.11-4.14,14,14,0,0,0,6.06-2.83,20.75,20.75,0,0,0,4.75-6.56A134.88,134.88,0,0,0,608.87,437l41.82-107.26c1.34-.27,2.59-.47,3.73-.61A37.5,37.5,0,0,1,658.57,329ZM677,413.2l1.82,9.09q-13.54,0-29,.2t-28,.6L625,413.2Z"/><path class="cls-8" d="M836.93,468.54q-6.06-8.07-10.6-14.74t-10.81-16.57q-4-6.45-7.78-11.81a102.63,102.63,0,0,0-9-11,144.81,144.81,0,0,0-13.53-12.53l5.25,2.63c-3.5.14-6.73.2-9.7.2s-5.79-.06-8.48-.2V395c1.88.27,3.64.47,5.25.6s3.3.2,5.05.2a59.88,59.88,0,0,0,20-3.13,30.32,30.32,0,0,0,14.14-9.79q5.25-6.67,5.25-17.17,0-11.93-7.57-19.5t-25.76-7.57a75.51,75.51,0,0,0-8.28.4,57.72,57.72,0,0,0-7.68,1.42l1-3.84V441.07a35,35,0,0,0,1.22,10.41,8.34,8.34,0,0,0,4.34,5.25,23.71,23.71,0,0,0,8.38,1.92,18,18,0,0,1,.81,4.14c.13,1.55.2,3.06.2,4.54-3-.27-6-.44-9.19-.5s-6.09-.1-8.79-.1H764q-5.26,0-12.42.1t-11.82.5c0-1.48.06-3,.2-4.44a20.67,20.67,0,0,1,.81-4.24,23.26,23.26,0,0,0,8.48-1.92,8.42,8.42,0,0,0,4.24-5.25,35,35,0,0,0,1.22-10.41V355.83a36,36,0,0,0-1.22-10.61,8.81,8.81,0,0,0-4.24-5.35q-3-1.62-8.48-1.62a20.52,20.52,0,0,1-.81-4,43.13,43.13,0,0,1-.2-4.44c1.34,0,3.33,0,6,.1s5.52.14,8.68.2,6.09.1,8.79.1q5.85,0,12.12-.1t11.51-.2c3.5-.06,6.2-.1,8.08-.1q17.39,0,27.58,4.44t14.74,12a32.18,32.18,0,0,1,4.55,16.87,34.54,34.54,0,0,1-4.34,17.47,36.45,36.45,0,0,1-12.53,12.73,63.11,63.11,0,0,1-19.69,7.78l1-2.43a90.58,90.58,0,0,1,8,6.57,68.26,68.26,0,0,1,6.26,6.76q2.92,3.64,6.26,8.59t7.78,12a119.71,119.71,0,0,0,10.7,14A35,35,0,0,0,856,454.91,35.47,35.47,0,0,0,869.45,458c0,1.62,0,3.1-.1,4.44a19.75,19.75,0,0,1-.71,4.25q-7.47,0-15.85.3A129.18,129.18,0,0,0,836.93,468.54Z"/><path class="cls-8" d="M892.48,339.06c-6.46,0-11.35,1.05-14.64,3.13a17.29,17.29,0,0,0-7.07,8.59,72.94,72.94,0,0,0-3.54,12.93,36,36,0,0,1-5.05-.41,13.66,13.66,0,0,1-4.65-1.41q1.62-8.49,2.43-17t.81-15.35q5.65.19,13.83.4t17.78.2h40q9.79,0,18.07-.2t13.74-.4q-.21,7.28.1,14.95t1.11,17.37a17.94,17.94,0,0,1-4.54,1.51,21.25,21.25,0,0,1-5.56.31q-.19-11.93-5.55-18.28t-17.27-6.37Zm10.3-3.43h19V441.07A35.09,35.09,0,0,0,923,451.48a8.24,8.24,0,0,0,4.65,5.25,30.1,30.1,0,0,0,9.9,1.92,14.58,14.58,0,0,1,.8,3.73q.21,2.13.21,4.95c-4.32-.27-8.72-.44-13.23-.5s-8.93-.1-13.24-.1c-2.82,0-5.82,0-9,.1l-9.2.2q-4.44.11-8.28.3c0-1.88.07-3.53.2-4.95a15,15,0,0,1,.81-3.73,31.25,31.25,0,0,0,10-1.92,8.53,8.53,0,0,0,4.85-5.25,32.77,32.77,0,0,0,1.31-10.41Z"/><path class="cls-8" d="M976.72,467.33c0-1.88.06-3.53.2-4.95a14.16,14.16,0,0,1,.81-3.73,23.26,23.26,0,0,0,8.48-1.92,8.45,8.45,0,0,0,4.24-5.25,35.09,35.09,0,0,0,1.21-10.41V355.83a35,35,0,0,0-1.21-10.51,8.84,8.84,0,0,0-4.24-5.25,20.06,20.06,0,0,0-8.48-1.82,14.24,14.24,0,0,1-.81-3.83c-.14-1.48-.2-3.1-.2-4.85,2.28.13,4.84.24,7.67.3s5.82.14,9,.2,6.23.1,9.19.1h8.08V437q0,8.69,1.82,13.23a10.78,10.78,0,0,0,5.86,6.27,31.93,31.93,0,0,0,10.3,2.12,15,15,0,0,1,.81,3.73c.13,1.42.2,3.07.2,4.95q-3-.19-7.17-.3t-8.79-.2q-4.65-.1-9.49-.1-7.08,0-15.25.1T976.72,467.33Zm85-103.42a32.62,32.62,0,0,0-3.23-12.12q-2.83-5.87-9.8-9.7t-20.1-3.84h-23l4.45-8.08q15.94,0,27.37-.1t18.68-.3q7.28-.19,10.51-.2c.26,3,.6,6.4,1,10.3s.87,7.75,1.41,11.51,1.14,7.14,1.82,10.1a8.53,8.53,0,0,1-3.94,1.92A24.1,24.1,0,0,1,1061.76,363.91Zm-5,61.41c-1.75,0-3.37-.07-4.85-.21a25.58,25.58,0,0,1-4.44-.8q-.81-10.5-5.56-14.24t-17.27-3.74h-14.54v-8.69h14.54q12.53,0,17.37-3.23t5-13.13a30.4,30.4,0,0,1,4.85-1.11,36.37,36.37,0,0,1,4.85-.3c-.14,3.36-.24,7-.31,10.9s-.1,7.61-.1,11.11,0,7.41.1,11.72S1056.57,421.82,1056.71,425.32Z"/><path class="cls-8" d="M1152.45,468.54q-20,0-34.94-9.29A64.26,64.26,0,0,1,1094.18,434q-8.39-15.94-8.39-35.95a74.8,74.8,0,0,1,5.15-28.28,67.12,67.12,0,0,1,14.25-22,63.51,63.51,0,0,1,21.21-14.34,67,67,0,0,1,26-5.05q19.4,0,34.44,8.78a63.28,63.28,0,0,1,23.74,24.45q8.68,15.65,8.69,36.46a78,78,0,0,1-4.85,27.77,67,67,0,0,1-13.84,22.42,63.76,63.76,0,0,1-21.21,14.95A66.49,66.49,0,0,1,1152.45,468.54Zm4-9.89q13.14,0,22.53-7.38t14.44-20a74.88,74.88,0,0,0,5-28,80.76,80.76,0,0,0-6.57-33q-6.56-14.85-17.87-23.53a41.34,41.34,0,0,0-25.86-8.69,35.55,35.55,0,0,0-21.31,6.77q-9.39,6.76-14.85,19.09t-5.45,28.68a94,94,0,0,0,3.23,24.65,69.14,69.14,0,0,0,9.6,21.21,48.73,48.73,0,0,0,15.65,14.74A41.45,41.45,0,0,0,1156.49,458.65Z"/><path class="cls-8" d="M1291.23,457.64q11.31,0,17.77-2.43a21.6,21.6,0,0,0,10.4-8.08,61.91,61.91,0,0,0,7.18-14.95,23.34,23.34,0,0,1,5.05,1.92,17.51,17.51,0,0,1,3.83,2.93,121.81,121.81,0,0,0-3.73,15q-1.51,8.08-2.53,15.15c-2.56-.14-6-.2-10.2-.2s-8.89,0-13.94-.1-10.07-.1-15-.1h-13q-7.37,0-14.94.1t-14,.2c-4.31.07-7.75.17-10.3.3,0-1.88.06-3.53.2-4.95a14.16,14.16,0,0,1,.81-3.73,21.73,21.73,0,0,0,8.48-2,9.34,9.34,0,0,0,4.34-5.76q1.32-4.14,1.32-12v-83a34.92,34.92,0,0,0-1.22-10.51,8.8,8.8,0,0,0-4.24-5.25,20.06,20.06,0,0,0-8.48-1.82,14.45,14.45,0,0,1-.81-3.93c-.14-1.55-.2-3.14-.2-4.75,2.69.13,5.55.24,8.58.3l8.79.2c2.83.07,5.18.1,7.07.1q4.44,0,8.48-.1l8-.2c2.63-.06,5.29-.17,8-.3,0,1.75-.07,3.37-.2,4.85a14.64,14.64,0,0,1-.81,3.83,20.27,20.27,0,0,0-8.38,1.82,8.75,8.75,0,0,0-4.34,5.46,37.86,37.86,0,0,0-1.22,10.9v82.42q0,7.47,1.42,11.51a9.08,9.08,0,0,0,5.35,5.66q3.95,1.62,11.41,1.62Z"/><path class="cls-8" d="M1365.76,355.83a35,35,0,0,0-1.21-10.51,8.84,8.84,0,0,0-4.24-5.25,20.07,20.07,0,0,0-8.49-1.82,14.66,14.66,0,0,1-.8-3.83c-.14-1.48-.21-3.1-.21-4.85,2.56.13,5.16.24,7.78.3l8.18.2q4.24.1,8.49.1,4.44,0,8.48-.1l8-.2c2.63-.06,5.28-.17,8-.3,0,1.75-.07,3.37-.2,4.85a15.06,15.06,0,0,1-.81,3.83,20.27,20.27,0,0,0-8.38,1.82,8.76,8.76,0,0,0-4.35,5.25,35,35,0,0,0-1.21,10.51v85.24a35.09,35.09,0,0,0,1.21,10.41,8.38,8.38,0,0,0,4.35,5.25,23.66,23.66,0,0,0,8.38,1.92,15,15,0,0,1,.81,3.73c.13,1.42.2,3.07.2,4.95q-6.06-.4-12.32-.5t-12.12-.1q-5.87,0-12.53.1t-11.92.5q0-2.82.21-4.95a14.58,14.58,0,0,1,.8-3.73,23.26,23.26,0,0,0,8.49-1.92,8.45,8.45,0,0,0,4.24-5.25,35.09,35.09,0,0,0,1.21-10.41Z"/><path class="cls-8" d="M1484.74,468.54q-20,0-35-9.29A64.4,64.4,0,0,1,1426.46,434q-8.39-15.94-8.38-35.95a74.8,74.8,0,0,1,5.15-28.28,66.93,66.93,0,0,1,14.24-22,63.51,63.51,0,0,1,21.21-14.34,67,67,0,0,1,26.06-5.05q19.4,0,34.44,8.78a63.35,63.35,0,0,1,23.74,24.45q8.67,15.65,8.68,36.46a78,78,0,0,1-4.85,27.77,67,67,0,0,1-13.83,22.42,64,64,0,0,1-21.21,14.95A66.49,66.49,0,0,1,1484.74,468.54Zm4-9.89q13.13,0,22.52-7.38a46.84,46.84,0,0,0,14.44-20,74.68,74.68,0,0,0,5-28,80.92,80.92,0,0,0-6.56-33q-6.57-14.85-17.88-23.53a41.32,41.32,0,0,0-25.85-8.69,35.55,35.55,0,0,0-21.31,6.77q-9.4,6.76-14.85,19.09t-5.46,28.68a93.56,93.56,0,0,0,3.24,24.65,69.36,69.36,0,0,0,9.59,21.21,48.66,48.66,0,0,0,15.66,14.74A41.45,41.45,0,0,0,1488.78,458.65Z"/><path class="cls-8" d="M1578.14,468.66q-6.54,0-10.18-3.63a12.49,12.49,0,0,1-3.63-9.21,13.26,13.26,0,0,1,4.12-9.7,14.44,14.44,0,0,1,10.66-4.12q6.3,0,9.82,4.24c2.34,2.83,3.52,5.62,3.52,8.37q0,7.26-4.37,10.66A15.77,15.77,0,0,1,1578.14,468.66Z"/><path class="cls-8" d="M1613.61,467.33c0-1.88.07-3.53.2-4.95a15,15,0,0,1,.81-3.73,21.74,21.74,0,0,0,8.49-2,9.34,9.34,0,0,0,4.34-5.76q1.3-4.14,1.31-12v-83a35,35,0,0,0-1.21-10.51,8.84,8.84,0,0,0-4.24-5.25,20.07,20.07,0,0,0-8.49-1.82,14.86,14.86,0,0,1-.8-3.93c-.14-1.55-.21-3.14-.21-4.75,2.16.13,4.88.24,8.19.3l10.3.2c3.56.07,6.83.1,9.79.1q5.87,0,11.92-.2t11.92-.2a156.87,156.87,0,0,1,21.61,1.52,89,89,0,0,1,20.81,5.45A55.28,55.28,0,0,1,1726,348.05a51,51,0,0,1,12.22,18.79q4.44,11.42,4.44,28.18,0,16.35-4,28.07a58,58,0,0,1-25.86,32.32,72,72,0,0,1-16.86,7.28,98,98,0,0,1-16.47,3.23,135,135,0,0,1-13.53.81h-13q-7.38,0-15,.1t-14,.2Q1617.44,467.14,1613.61,467.33Zm52.32-9.69a80.74,80.74,0,0,0,22.32-2.93A44.89,44.89,0,0,0,1706,445q7.58-6.76,11.71-18.28t4.14-28.68q0-16.37-4.94-28a50.23,50.23,0,0,0-13.34-18.79,53.6,53.6,0,0,0-19-10.5,71.8,71.8,0,0,0-31.62-2.63q-5.25.72-6.87,1.72l1.62-5.25V438.85q0,7.47,1.41,11.51a9.12,9.12,0,0,0,5.36,5.66Q1658.45,457.64,1665.93,457.64Z"/><path class="cls-8" d="M1761.07,467.33c0-1.88.07-3.53.2-4.95a15,15,0,0,1,.81-3.73,23.26,23.26,0,0,0,8.49-1.92,8.45,8.45,0,0,0,4.24-5.25,35.09,35.09,0,0,0,1.21-10.41V355.83a35,35,0,0,0-1.21-10.51,8.84,8.84,0,0,0-4.24-5.25,20.07,20.07,0,0,0-8.49-1.82,15.06,15.06,0,0,1-.81-3.83c-.13-1.48-.2-3.1-.2-4.85,2.56.13,5.15.24,7.78.3l8.18.2q4.24.1,8.48.1,4.44,0,8.49-.1l8-.2c2.62-.06,5.28-.17,8-.3,0,1.75-.07,3.37-.21,4.85a14.66,14.66,0,0,1-.8,3.83,20.32,20.32,0,0,0-8.39,1.82,8.74,8.74,0,0,0-4.34,5.25,35,35,0,0,0-1.21,10.51v85.24a35.09,35.09,0,0,0,1.21,10.41,8.37,8.37,0,0,0,4.34,5.25,23.72,23.72,0,0,0,8.39,1.92,14.58,14.58,0,0,1,.8,3.73q.21,2.13.21,4.95-6.06-.4-12.33-.5t-12.12-.1q-5.85,0-12.52.1T1761.07,467.33Zm88.07.61q-3.63-5.87-10.1-15.05T1824.4,433.4q-8.19-10.31-16.67-19.6A185.85,185.85,0,0,0,1792,398.25L1833.19,355q7.47-7.68,7.57-12t-6.77-4.75a21.22,21.22,0,0,1-.8-4.24q-.21-2.22-.21-4.44c2.29.13,5.32.27,9.09.4s7.68.2,11.72.2q4,0,7.78-.1c2.49-.06,4.84-.13,7.07-.2s4.2-.17,6-.3q0,2-.21,4.44a12.88,12.88,0,0,1-1,4.24,28.77,28.77,0,0,0-8.58,1.72,34.5,34.5,0,0,0-8.89,5.15,92.7,92.7,0,0,0-11.21,10.71l-35.35,37.57v-4.85a185.41,185.41,0,0,1,19.29,20.51q10.8,13,23.13,29,5,6.46,8.89,10.71a26.14,26.14,0,0,0,8.78,6.46,38.69,38.69,0,0,0,12.83,2.83c0,1.08-.07,2.42-.2,4a25.65,25.65,0,0,1-.81,4.65h-7.88c-2.69,0-5.45.06-8.28.2l-8.28.4C1854.12,467.47,1851.57,467.67,1849.14,467.94Z"/></g><g class="cls-2"><path class="cls-6" d="M3.49,306.35c0-1.89.06-3.54.2-5a14.15,14.15,0,0,1,.81-3.74A23.26,23.26,0,0,0,13,295.74a8.42,8.42,0,0,0,4.24-5.25,35,35,0,0,0,1.22-10.4V194.84a34.84,34.84,0,0,0-1.22-10.5A8.78,8.78,0,0,0,13,179.09a19.76,19.76,0,0,0-8.48-1.82,14.41,14.41,0,0,1-.81-3.84c-.14-1.48-.2-3.1-.2-4.85,2.29.14,4.84.24,7.67.31l9,.2c3.16.07,6.23.1,9.19.1h8.08V276.05q0,8.68,1.82,13.23a10.74,10.74,0,0,0,5.86,6.26,31.73,31.73,0,0,0,10.3,2.12,14.56,14.56,0,0,1,.81,3.74c.13,1.41.2,3.06.2,5q-3-.21-7.17-.31l-8.79-.2q-4.65-.1-9.49-.1-7.08,0-15.25.1T3.49,306.35Zm85-103.43A32.62,32.62,0,0,0,85.3,190.8q-2.83-5.85-9.8-9.69t-20.1-3.84h-23l4.45-8.08q15.95,0,27.37-.1c7.6-.07,13.84-.17,18.68-.31s8.35-.2,10.51-.2c.27,3,.6,6.4,1,10.3s.87,7.75,1.41,11.52,1.14,7.14,1.82,10.1a8.73,8.73,0,0,1-3.94,1.92A24.13,24.13,0,0,1,88.53,202.92Zm-5,61.41c-1.75,0-3.37-.07-4.85-.2a25.61,25.61,0,0,1-4.44-.81q-.81-10.5-5.56-14.24t-17.27-3.74H36.82v-8.68H51.36q12.53,0,17.37-3.24t5-13.13a32.75,32.75,0,0,1,4.85-1.11,36.37,36.37,0,0,1,4.85-.3c-.14,3.37-.24,7-.3,10.91s-.1,7.61-.1,11.11,0,7.41.1,11.71S83.34,260.83,83.48,264.33Z"/><path class="cls-6" d="M131.75,194.84a34.9,34.9,0,0,0-1.21-10.5,8.78,8.78,0,0,0-4.24-5.25,19.76,19.76,0,0,0-8.48-1.82,14.41,14.41,0,0,1-.81-3.84c-.14-1.48-.2-3.1-.2-4.85,2.55.14,5.15.24,7.77.31l8.19.2q4.23.1,8.48.1,4.44,0,8.48-.1l8-.2q3.94-.1,8-.31c0,1.75-.07,3.37-.2,4.85a15.24,15.24,0,0,1-.81,3.84,20,20,0,0,0-8.38,1.82,8.68,8.68,0,0,0-4.34,5.25,34.84,34.84,0,0,0-1.22,10.5v85.25a35,35,0,0,0,1.22,10.4,8.34,8.34,0,0,0,4.34,5.25,23.66,23.66,0,0,0,8.38,1.92,15,15,0,0,1,.81,3.74c.13,1.41.2,3.06.2,5q-6.06-.41-12.32-.51t-12.12-.1q-5.87,0-12.52.1t-11.92.51c0-1.89.06-3.54.2-5a14.15,14.15,0,0,1,.81-3.74,23.26,23.26,0,0,0,8.48-1.92,8.42,8.42,0,0,0,4.24-5.25,35.06,35.06,0,0,0,1.21-10.4Z"/><path class="cls-6" d="M241.84,296.65q11.31,0,17.78-2.42a21.65,21.65,0,0,0,10.4-8.08,61.73,61.73,0,0,0,7.17-14.95,22.64,22.64,0,0,1,5.05,1.92,16.74,16.74,0,0,1,3.84,2.93A121.59,121.59,0,0,0,282.34,291q-1.51,8.08-2.52,15.15-3.84-.19-10.2-.2t-13.94-.1q-7.58-.1-15.05-.1h-13q-7.38,0-14.95.1l-14,.2q-6.47.1-10.3.31c0-1.89.07-3.54.2-5a15,15,0,0,1,.81-3.74,21.74,21.74,0,0,0,8.49-2,9.32,9.32,0,0,0,4.34-5.76q1.31-4.14,1.31-12v-83a34.9,34.9,0,0,0-1.21-10.5,8.81,8.81,0,0,0-4.24-5.25,19.77,19.77,0,0,0-8.49-1.82,15,15,0,0,1-.8-3.94c-.14-1.55-.21-3.13-.21-4.75q4.05.21,8.59.31l8.79.2q4.23.1,7.07.1,4.44,0,8.48-.1l8-.2c2.63-.07,5.28-.17,8-.31,0,1.75-.07,3.37-.2,4.85a15.24,15.24,0,0,1-.81,3.84,20,20,0,0,0-8.38,1.82,8.77,8.77,0,0,0-4.35,5.45,38,38,0,0,0-1.21,10.91v82.41q0,7.49,1.41,11.52a9.1,9.1,0,0,0,5.36,5.65q3.93,1.62,11.41,1.62Z"/><path class="cls-6" d="M316.38,194.84a34.9,34.9,0,0,0-1.21-10.5,8.81,8.81,0,0,0-4.24-5.25,19.77,19.77,0,0,0-8.49-1.82,15.24,15.24,0,0,1-.81-3.84c-.13-1.48-.2-3.1-.2-4.85q3.84.21,7.78.31l8.18.2q4.25.1,8.48.1,4.44,0,8.49-.1l8-.2q3.93-.1,8-.31c0,1.75-.07,3.37-.21,4.85a14.83,14.83,0,0,1-.8,3.84,20,20,0,0,0-8.39,1.82,8.72,8.72,0,0,0-4.34,5.25,34.9,34.9,0,0,0-1.21,10.5v85.25a35.06,35.06,0,0,0,1.21,10.4,8.37,8.37,0,0,0,4.34,5.25,23.72,23.72,0,0,0,8.39,1.92,14.57,14.57,0,0,1,.8,3.74q.21,2.12.21,5-6.06-.41-12.33-.51t-12.12-.1q-5.85,0-12.52.1t-11.92.51c0-1.89.07-3.54.2-5a15,15,0,0,1,.81-3.74,23.26,23.26,0,0,0,8.49-1.92,8.45,8.45,0,0,0,4.24-5.25,35.06,35.06,0,0,0,1.21-10.4Z"/><path class="cls-6" d="M372.94,306.35c0-1.89.06-3.54.2-5a14.15,14.15,0,0,1,.81-3.74,23.26,23.26,0,0,0,8.48-1.92,8.42,8.42,0,0,0,4.24-5.25,35,35,0,0,0,1.22-10.4V194.84a34.84,34.84,0,0,0-1.22-10.5,8.78,8.78,0,0,0-4.24-5.25,19.76,19.76,0,0,0-8.48-1.82,14.41,14.41,0,0,1-.81-3.84c-.14-1.48-.2-3.1-.2-4.85q7.88.4,15.25.51t12.22.1c1.88,0,4.55,0,8-.1l10.2-.2c3.36-.07,5.86-.11,7.47-.11q16.77,0,26.87,5.46t14.54,14.34A42.8,42.8,0,0,1,471.92,208a50.69,50.69,0,0,1-5.15,22.22,44.15,44.15,0,0,1-15.25,17.58q-10.11,6.87-25.46,6.86a38.78,38.78,0,0,1-14.14-2.22,23.59,23.59,0,0,1-.4-4.24,13.85,13.85,0,0,1,.61-4,46.27,46.27,0,0,0,10.7,1.21,36.71,36.71,0,0,0,13.94-2.62,21.62,21.62,0,0,0,10.5-9.4q4.05-6.76,4-19.49,0-16.15-8-26.16t-26.15-10A48.89,48.89,0,0,0,412,178a70.9,70.9,0,0,0-8.18,1.51l3-3v99.59q0,8.68,1.82,13.23a10.74,10.74,0,0,0,5.86,6.26,31.73,31.73,0,0,0,10.3,2.12,14.56,14.56,0,0,1,.81,3.74c.13,1.41.2,3.06.2,5q-3-.21-7.17-.31l-8.79-.2q-4.65-.1-9.49-.1c-3.1,0-6.46,0-10.1.1l-10.1.2Q375.56,306.15,372.94,306.35Z"/><path class="cls-6" d="M490.3,306.35c0-1.89.06-3.54.2-5a14.15,14.15,0,0,1,.81-3.74,23.26,23.26,0,0,0,8.48-1.92,8.42,8.42,0,0,0,4.24-5.25,35,35,0,0,0,1.22-10.4V194.84a34.84,34.84,0,0,0-1.22-10.5,8.78,8.78,0,0,0-4.24-5.25,19.76,19.76,0,0,0-8.48-1.82,14.41,14.41,0,0,1-.81-3.84c-.14-1.48-.2-3.1-.2-4.85q7.88.4,15.25.51t12.22.1c1.88,0,4.55,0,8-.1l10.2-.2c3.36-.07,5.86-.11,7.47-.11q16.77,0,26.87,5.46t14.54,14.34A42.8,42.8,0,0,1,589.28,208a50.69,50.69,0,0,1-5.15,22.22,44.15,44.15,0,0,1-15.25,17.58q-10.11,6.87-25.46,6.86a38.78,38.78,0,0,1-14.14-2.22,23.59,23.59,0,0,1-.4-4.24,13.85,13.85,0,0,1,.61-4,46.27,46.27,0,0,0,10.7,1.21,36.71,36.71,0,0,0,13.94-2.62,21.62,21.62,0,0,0,10.5-9.4q4.05-6.76,4-19.49,0-16.15-8-26.16t-26.16-10a48.56,48.56,0,0,0-5.15.31,70.62,70.62,0,0,0-8.19,1.51l3-3v99.59q0,8.68,1.82,13.23a10.74,10.74,0,0,0,5.86,6.26,31.73,31.73,0,0,0,10.3,2.12,14.56,14.56,0,0,1,.81,3.74c.13,1.41.2,3.06.2,5q-3-.21-7.17-.31l-8.79-.2c-3.09-.07-6.26-.1-9.49-.1s-6.46,0-10.1.1l-10.1.2Q492.92,306.15,490.3,306.35Z"/><path class="cls-6" d="M658.57,168l48.07,110.29q3.43,7.47,5.66,11.51a16.37,16.37,0,0,0,4.54,5.66,14,14,0,0,0,5.36,2.22,26.31,26.31,0,0,1,1,4.44,40.42,40.42,0,0,1,.2,4.25q-2-.21-6.26-.31l-8.89-.2q-4.65-.1-7.88-.1c-1.62,0-3.5,0-5.66.1l-6.66.2-6.16.21c-1.82.06-3.27.1-4.35.1a33.11,33.11,0,0,1,.31-4.65,14.71,14.71,0,0,1,1.11-4q8.28-1,9.79-3.74t-2.52-12l-28.08-65.65q-2.62-6.25-4.64-11.11t-4.85-12.32h1q-2.43,7.68-4.35,13t-3.73,10.2l-23,60q-4.44,11.91-2.73,16.46t10,5.15a14.71,14.71,0,0,1,1.11,4,34.69,34.69,0,0,1,.31,4.65c-1.49-.14-3.31-.24-5.46-.31l-6.77-.2c-2.35-.07-4.68-.1-7-.1q-5.05,0-9.5.2c-3,.14-5.39.27-7.27.41a34.1,34.1,0,0,1,.3-4.35,14.85,14.85,0,0,1,1.11-4.14,13.86,13.86,0,0,0,6.06-2.83,20.75,20.75,0,0,0,4.75-6.56,134.5,134.5,0,0,0,5.35-12.42l41.82-107.27c1.34-.26,2.59-.47,3.73-.6A37.5,37.5,0,0,1,658.57,168ZM677,252.21l1.82,9.09q-13.54,0-29,.2t-28,.61l3.23-9.9Z"/><path class="cls-6" d="M836.93,307.56q-6.06-8.08-10.6-14.75t-10.81-16.56q-4-6.47-7.78-11.82a103.63,103.63,0,0,0-9-11,144.85,144.85,0,0,0-13.53-12.52l5.25,2.62q-5.25.21-9.7.21t-8.48-.21V234c1.88.27,3.64.47,5.25.61s3.3.2,5.05.2a59.88,59.88,0,0,0,20-3.13,30.4,30.4,0,0,0,14.14-9.8q5.25-6.66,5.25-17.17,0-11.91-7.57-19.49t-25.76-7.58a75.32,75.32,0,0,0-8.28.41,59.27,59.27,0,0,0-7.68,1.41l1-3.84V280.09a35,35,0,0,0,1.22,10.4,8.34,8.34,0,0,0,4.34,5.25,23.71,23.71,0,0,0,8.38,1.92,18.09,18.09,0,0,1,.81,4.14c.13,1.55.2,3.07.2,4.55-3-.27-6-.44-9.19-.51s-6.09-.1-8.79-.1H764q-5.26,0-12.42.1t-11.82.51c0-1.48.06-3,.2-4.45a20.8,20.8,0,0,1,.81-4.24,23.26,23.26,0,0,0,8.48-1.92,8.42,8.42,0,0,0,4.24-5.25,35,35,0,0,0,1.22-10.4V194.84a35.9,35.9,0,0,0-1.22-10.6,8.83,8.83,0,0,0-4.24-5.36,18.37,18.37,0,0,0-8.48-1.61,20.66,20.66,0,0,1-.81-4,43.46,43.46,0,0,1-.2-4.45q2,0,6,.11l8.68.2c3.17.07,6.09.1,8.79.1q5.85,0,12.12-.1l11.51-.2c3.5-.07,6.2-.11,8.08-.11q17.39,0,27.58,4.45t14.74,12a32.15,32.15,0,0,1,4.55,16.86,34.58,34.58,0,0,1-4.34,17.48,36.42,36.42,0,0,1-12.53,12.72,62.86,62.86,0,0,1-19.69,7.78l1-2.42a92.42,92.42,0,0,1,8,6.56,67.28,67.28,0,0,1,6.26,6.77c1.95,2.42,4,5.29,6.26,8.58s4.81,7.31,7.78,12a118.87,118.87,0,0,0,10.7,14A34.72,34.72,0,0,0,856,293.92a35.28,35.28,0,0,0,13.43,3.13c0,1.62,0,3.1-.1,4.45a19.67,19.67,0,0,1-.71,4.24q-7.47,0-15.85.3A129.13,129.13,0,0,0,836.93,307.56Z"/><path class="cls-6" d="M892.48,178.08c-6.46,0-11.35,1-14.64,3.13a17.3,17.3,0,0,0-7.07,8.58,73.18,73.18,0,0,0-3.54,12.93,35.91,35.91,0,0,1-5.05-.4,13.43,13.43,0,0,1-4.65-1.42q1.62-8.47,2.43-17t.81-15.35q5.65.21,13.83.41t17.78.2h40q9.79,0,18.07-.2t13.74-.41q-.21,7.28.1,14.95t1.11,17.37a18,18,0,0,1-4.54,1.52,20.85,20.85,0,0,1-5.56.3q-.19-11.91-5.55-18.28t-17.27-6.36Zm10.3-3.44h19V280.09a35.06,35.06,0,0,0,1.21,10.4,8.24,8.24,0,0,0,4.65,5.25,30.1,30.1,0,0,0,9.9,1.92,14.57,14.57,0,0,1,.8,3.74q.21,2.12.21,5c-4.32-.27-8.72-.44-13.23-.51s-8.93-.1-13.24-.1c-2.82,0-5.82,0-9,.1l-9.2.2q-4.44.1-8.28.31c0-1.89.07-3.54.2-5a15,15,0,0,1,.81-3.74,31.25,31.25,0,0,0,10-1.92,8.53,8.53,0,0,0,4.85-5.25,32.74,32.74,0,0,0,1.31-10.4Z"/><path class="cls-6" d="M976.72,306.35c0-1.89.06-3.54.2-5a14.15,14.15,0,0,1,.81-3.74,23.26,23.26,0,0,0,8.48-1.92,8.45,8.45,0,0,0,4.24-5.25,35.06,35.06,0,0,0,1.21-10.4V194.84a34.9,34.9,0,0,0-1.21-10.5,8.81,8.81,0,0,0-4.24-5.25,19.76,19.76,0,0,0-8.48-1.82,14.41,14.41,0,0,1-.81-3.84c-.14-1.48-.2-3.1-.2-4.85q3.42.21,7.67.31l9,.2c3.16.07,6.23.1,9.19.1h8.08V276.05q0,8.68,1.82,13.23a10.74,10.74,0,0,0,5.86,6.26,31.67,31.67,0,0,0,10.3,2.12,15,15,0,0,1,.81,3.74c.13,1.41.2,3.06.2,5q-3-.21-7.17-.31l-8.79-.2q-4.65-.1-9.49-.1-7.08,0-15.25.1T976.72,306.35Zm85-103.43a32.62,32.62,0,0,0-3.23-12.12q-2.83-5.85-9.8-9.69t-20.1-3.84h-23l4.45-8.08q15.94,0,27.37-.1t18.68-.31q7.28-.19,10.51-.2.39,4.46,1,10.3T1069,190.4c.54,3.77,1.14,7.14,1.82,10.1a8.73,8.73,0,0,1-3.94,1.92A24.13,24.13,0,0,1,1061.76,202.92Zm-5,61.41c-1.75,0-3.37-.07-4.85-.2a25.61,25.61,0,0,1-4.44-.81q-.81-10.5-5.56-14.24t-17.27-3.74h-14.54v-8.68h14.54q12.53,0,17.37-3.24t5-13.13a32.75,32.75,0,0,1,4.85-1.11,36.37,36.37,0,0,1,4.85-.3c-.14,3.37-.24,7-.31,10.91s-.1,7.61-.1,11.11,0,7.41.1,11.71S1056.57,260.83,1056.71,264.33Z"/><path class="cls-6" d="M1152.45,307.56q-20,0-34.94-9.29A64.33,64.33,0,0,1,1094.18,273q-8.39-16-8.39-36a74.8,74.8,0,0,1,5.15-28.28,67.33,67.33,0,0,1,14.25-22,63.66,63.66,0,0,1,21.21-14.34,67.16,67.16,0,0,1,26-5q19.4,0,34.44,8.79a63.32,63.32,0,0,1,23.74,24.44q8.68,15.66,8.69,36.46a78,78,0,0,1-4.85,27.78,67.18,67.18,0,0,1-13.84,22.42,63.76,63.76,0,0,1-21.21,14.95A66.66,66.66,0,0,1,1152.45,307.56Zm4-9.9q13.14,0,22.53-7.37t14.44-20a74.81,74.81,0,0,0,5-28,80.68,80.68,0,0,0-6.57-33q-6.56-14.85-17.87-23.54a41.33,41.33,0,0,0-25.86-8.68,35.54,35.54,0,0,0-21.31,6.76q-9.39,6.78-14.85,19.09t-5.45,28.69a93.89,93.89,0,0,0,3.23,24.64,68.92,68.92,0,0,0,9.6,21.21,48.76,48.76,0,0,0,15.65,14.75A41.54,41.54,0,0,0,1156.49,297.66Z"/><path class="cls-6" d="M1291.23,296.65q11.31,0,17.77-2.42a21.65,21.65,0,0,0,10.4-8.08,62.1,62.1,0,0,0,7.18-14.95,22.84,22.84,0,0,1,5.05,1.92,16.91,16.91,0,0,1,3.83,2.93,121.63,121.63,0,0,0-3.73,14.94q-1.51,8.08-2.53,15.15-3.84-.19-10.2-.2t-13.94-.1q-7.57-.1-15-.1h-13q-7.37,0-14.94.1l-14,.2c-4.31.07-7.75.17-10.3.31,0-1.89.06-3.54.2-5a14.15,14.15,0,0,1,.81-3.74,21.73,21.73,0,0,0,8.48-2,9.32,9.32,0,0,0,4.34-5.76q1.32-4.14,1.32-12v-83a34.84,34.84,0,0,0-1.22-10.5,8.78,8.78,0,0,0-4.24-5.25,19.76,19.76,0,0,0-8.48-1.82,14.61,14.61,0,0,1-.81-3.94c-.14-1.55-.2-3.13-.2-4.75q4,.21,8.58.31l8.79.2c2.83.07,5.18.1,7.07.1q4.44,0,8.48-.1l8-.2q3.95-.1,8-.31c0,1.75-.07,3.37-.2,4.85a14.81,14.81,0,0,1-.81,3.84,20,20,0,0,0-8.38,1.82,8.73,8.73,0,0,0-4.34,5.45,37.93,37.93,0,0,0-1.22,10.91v82.41q0,7.49,1.42,11.52a9.06,9.06,0,0,0,5.35,5.65q3.95,1.62,11.41,1.62Z"/><path class="cls-6" d="M1365.76,194.84a34.9,34.9,0,0,0-1.21-10.5,8.81,8.81,0,0,0-4.24-5.25,19.77,19.77,0,0,0-8.49-1.82,14.83,14.83,0,0,1-.8-3.84c-.14-1.48-.21-3.1-.21-4.85,2.56.14,5.16.24,7.78.31l8.18.2q4.24.1,8.49.1,4.44,0,8.48-.1l8-.2c2.63-.07,5.28-.17,8-.31,0,1.75-.07,3.37-.2,4.85a15.24,15.24,0,0,1-.81,3.84,20,20,0,0,0-8.38,1.82,8.73,8.73,0,0,0-4.35,5.25,34.9,34.9,0,0,0-1.21,10.5v85.25a35.06,35.06,0,0,0,1.21,10.4,8.38,8.38,0,0,0,4.35,5.25,23.66,23.66,0,0,0,8.38,1.92,15,15,0,0,1,.81,3.74c.13,1.41.2,3.06.2,5q-6.06-.41-12.32-.51t-12.12-.1q-5.87,0-12.53.1t-11.92.51q0-2.84.21-5a14.57,14.57,0,0,1,.8-3.74,23.26,23.26,0,0,0,8.49-1.92,8.45,8.45,0,0,0,4.24-5.25,35.06,35.06,0,0,0,1.21-10.4Z"/><path class="cls-6" d="M1484.74,307.56q-20,0-35-9.29A64.47,64.47,0,0,1,1426.46,273q-8.39-16-8.38-36a74.8,74.8,0,0,1,5.15-28.28,67.14,67.14,0,0,1,14.24-22,63.66,63.66,0,0,1,21.21-14.34,67.2,67.2,0,0,1,26.06-5q19.4,0,34.44,8.79a63.39,63.39,0,0,1,23.74,24.44q8.67,15.66,8.68,36.46a78,78,0,0,1-4.85,27.78,67.15,67.15,0,0,1-13.83,22.42,64,64,0,0,1-21.21,14.95A66.66,66.66,0,0,1,1484.74,307.56Zm4-9.9q13.13,0,22.52-7.37a46.87,46.87,0,0,0,14.44-20,74.61,74.61,0,0,0,5-28,80.84,80.84,0,0,0-6.56-33q-6.57-14.85-17.88-23.54a41.31,41.31,0,0,0-25.85-8.68,35.54,35.54,0,0,0-21.31,6.76q-9.4,6.78-14.85,19.09t-5.46,28.69a93.48,93.48,0,0,0,3.24,24.64,69.14,69.14,0,0,0,9.59,21.21,48.69,48.69,0,0,0,15.66,14.75A41.54,41.54,0,0,0,1488.78,297.66Z"/><path class="cls-6" d="M1578.14,307.68q-6.54,0-10.18-3.64a12.48,12.48,0,0,1-3.63-9.21,13.26,13.26,0,0,1,4.12-9.69,14.41,14.41,0,0,1,10.66-4.13q6.3,0,9.82,4.25c2.34,2.82,3.52,5.62,3.52,8.36q0,7.28-4.37,10.67A15.77,15.77,0,0,1,1578.14,307.68Z"/><path class="cls-6" d="M1613.61,306.35c0-1.89.07-3.54.2-5a15,15,0,0,1,.81-3.74,21.74,21.74,0,0,0,8.49-2,9.32,9.32,0,0,0,4.34-5.76q1.3-4.14,1.31-12v-83a34.9,34.9,0,0,0-1.21-10.5,8.81,8.81,0,0,0-4.24-5.25,19.77,19.77,0,0,0-8.49-1.82,15,15,0,0,1-.8-3.94c-.14-1.55-.21-3.13-.21-4.75,2.16.14,4.88.24,8.19.31l10.3.2c3.56.07,6.83.1,9.79.1q5.87,0,11.92-.2t11.92-.21a156.87,156.87,0,0,1,21.61,1.52,89.49,89.49,0,0,1,20.81,5.45A55.14,55.14,0,0,1,1726,187.07a51,51,0,0,1,12.22,18.78q4.44,11.42,4.44,28.18,0,16.36-4,28.08a58.06,58.06,0,0,1-25.86,32.32,72.41,72.41,0,0,1-16.86,7.27,96,96,0,0,1-16.47,3.23,135,135,0,0,1-13.53.81h-13q-7.38,0-15,.1l-14,.2Q1617.44,306.15,1613.61,306.35Zm52.32-9.7a80.37,80.37,0,0,0,22.32-2.93A44.87,44.87,0,0,0,1706,284q7.58-6.76,11.71-18.29t4.14-28.68q0-16.37-4.94-28a50.11,50.11,0,0,0-13.34-18.78,53.78,53.78,0,0,0-19-10.51,71.47,71.47,0,0,0-31.62-2.62q-5.25.71-6.87,1.71l1.62-5.25V277.86q0,7.49,1.41,11.52a9.1,9.1,0,0,0,5.36,5.65Q1658.45,296.65,1665.93,296.65Z"/><path class="cls-6" d="M1761.07,306.35c0-1.89.07-3.54.2-5a15,15,0,0,1,.81-3.74,23.26,23.26,0,0,0,8.49-1.92,8.45,8.45,0,0,0,4.24-5.25,35.06,35.06,0,0,0,1.21-10.4V194.84a34.9,34.9,0,0,0-1.21-10.5,8.81,8.81,0,0,0-4.24-5.25,19.77,19.77,0,0,0-8.49-1.82,15.24,15.24,0,0,1-.81-3.84c-.13-1.48-.2-3.1-.2-4.85q3.84.21,7.78.31l8.18.2q4.24.1,8.48.1,4.44,0,8.49-.1l8-.2q3.93-.1,8-.31c0,1.75-.07,3.37-.21,4.85a14.83,14.83,0,0,1-.8,3.84,20,20,0,0,0-8.39,1.82,8.72,8.72,0,0,0-4.34,5.25,34.9,34.9,0,0,0-1.21,10.5v85.25a35.06,35.06,0,0,0,1.21,10.4,8.37,8.37,0,0,0,4.34,5.25,23.72,23.72,0,0,0,8.39,1.92,14.57,14.57,0,0,1,.8,3.74q.21,2.12.21,5-6.06-.41-12.33-.51t-12.12-.1q-5.85,0-12.52.1T1761.07,306.35Zm88.07.6q-3.63-5.85-10.1-15.05t-14.64-19.49q-8.19-10.31-16.67-19.59A186.1,186.1,0,0,0,1792,237.26L1833.19,194q7.47-7.67,7.57-12t-6.77-4.75a21.49,21.49,0,0,1-.8-4.24c-.14-1.48-.21-3-.21-4.45,2.29.14,5.32.27,9.09.41s7.68.2,11.72.2q4,0,7.78-.1l7.07-.2c2.22-.07,4.2-.17,6-.31,0,1.35-.07,2.83-.21,4.45a12.94,12.94,0,0,1-1,4.24,28.46,28.46,0,0,0-8.58,1.72,34.21,34.21,0,0,0-8.89,5.15,91.71,91.71,0,0,0-11.21,10.7l-35.35,37.57v-4.84a184.29,184.29,0,0,1,19.29,20.5q10.8,13,23.13,29,5,6.46,8.89,10.7a26.17,26.17,0,0,0,8.78,6.47,39,39,0,0,0,12.83,2.82c0,1.08-.07,2.43-.2,4a25.65,25.65,0,0,1-.81,4.65h-7.88q-4,0-8.28.2l-8.28.41C1854.12,306.48,1851.57,306.68,1849.14,307Z"/></g><g class="cls-2"><path class="cls-9" d="M11.49,137.84c0-1.88.06-3.53.2-4.94a14.15,14.15,0,0,1,.81-3.74A23.26,23.26,0,0,0,21,127.24,8.42,8.42,0,0,0,25.22,122a35,35,0,0,0,1.22-10.41V26.34a34.8,34.8,0,0,0-1.22-10.5A8.8,8.8,0,0,0,21,10.58,19.92,19.92,0,0,0,12.5,8.77a14.41,14.41,0,0,1-.81-3.84c-.14-1.48-.2-3.1-.2-4.85,2.29.14,4.84.24,7.67.3l9,.21c3.16.06,6.23.1,9.19.1h8.08V107.54q0,8.7,1.82,13.24A10.77,10.77,0,0,0,53.1,127a32,32,0,0,0,10.3,2.12,14.56,14.56,0,0,1,.81,3.74c.13,1.41.2,3.06.2,4.94q-3-.19-7.17-.3l-8.79-.2q-4.65-.1-9.49-.1-7.08,0-15.25.1T11.49,137.84Zm85-103.42A32.62,32.62,0,0,0,93.3,22.3q-2.83-5.85-9.8-9.7T63.4,8.77h-23L44.82.69q15.95,0,27.37-.1C79.79.52,86,.42,90.87.28s8.35-.2,10.51-.2c.27,3,.6,6.4,1,10.3s.87,7.75,1.41,11.52S104.94,29,105.62,32a8.73,8.73,0,0,1-3.94,1.92A24.79,24.79,0,0,1,96.53,34.42Zm-5,61.41c-1.75,0-3.37-.07-4.85-.2a26.59,26.59,0,0,1-4.44-.81q-.81-10.5-5.56-14.24T59.36,76.84H44.82V68.15H59.36q12.52,0,17.37-3.23t5-13.13a31.53,31.53,0,0,1,4.85-1.11,36.37,36.37,0,0,1,4.85-.3c-.14,3.37-.24,7-.3,10.91s-.1,7.61-.1,11.11,0,7.4.1,11.71S91.34,92.33,91.48,95.83Z"/><path class="cls-9" d="M139.75,26.34a34.85,34.85,0,0,0-1.21-10.5,8.8,8.8,0,0,0-4.24-5.26,19.92,19.92,0,0,0-8.48-1.81A14.41,14.41,0,0,1,125,4.93c-.14-1.48-.2-3.1-.2-4.85,2.55.14,5.15.24,7.77.3l8.19.21c2.82.06,5.65.1,8.48.1s5.79,0,8.48-.1l8-.21q3.94-.09,8-.3c0,1.75-.07,3.37-.2,4.85a15.24,15.24,0,0,1-.81,3.84,20.12,20.12,0,0,0-8.38,1.81A8.7,8.7,0,0,0,160,15.84a34.8,34.8,0,0,0-1.22,10.5v85.24A35,35,0,0,0,160,122a8.34,8.34,0,0,0,4.34,5.25,23.66,23.66,0,0,0,8.38,1.92,15,15,0,0,1,.81,3.74c.13,1.41.2,3.06.2,4.94q-6.06-.41-12.32-.5t-12.12-.1q-5.87,0-12.52.1t-11.92.5c0-1.88.06-3.53.2-4.94a14.15,14.15,0,0,1,.81-3.74,23.26,23.26,0,0,0,8.48-1.92,8.42,8.42,0,0,0,4.24-5.25,35.09,35.09,0,0,0,1.21-10.41Z"/><path class="cls-9" d="M249.84,128.15q11.31,0,17.78-2.43a21.54,21.54,0,0,0,10.4-8.08,61.46,61.46,0,0,0,7.17-14.94,22.64,22.64,0,0,1,5.05,1.92,17,17,0,0,1,3.84,2.92,121.77,121.77,0,0,0-3.74,14.95q-1.51,8.08-2.52,15.15-3.84-.19-10.2-.2t-13.94-.1q-7.57-.1-15.05-.1h-13q-7.38,0-14.95.1l-14,.2q-6.47.11-10.3.3c0-1.88.07-3.53.2-4.94a15,15,0,0,1,.81-3.74,21.74,21.74,0,0,0,8.49-2,9.34,9.34,0,0,0,4.34-5.76q1.31-4.14,1.31-12v-83a34.85,34.85,0,0,0-1.21-10.5A8.83,8.83,0,0,0,206,10.58a19.94,19.94,0,0,0-8.49-1.81,15,15,0,0,1-.8-3.94c-.14-1.55-.21-3.13-.21-4.75q4.05.21,8.59.3l8.79.21c2.82.06,5.18.1,7.07.1,3,0,5.79,0,8.48-.1l8-.21c2.63-.06,5.28-.16,8-.3,0,1.75-.07,3.37-.2,4.85a15.24,15.24,0,0,1-.81,3.84A20.12,20.12,0,0,0,236,10.58,8.8,8.8,0,0,0,231.66,16,37.94,37.94,0,0,0,230.45,27v82.41c0,5,.47,8.82,1.41,11.52a9.1,9.1,0,0,0,5.36,5.65q3.93,1.62,11.41,1.62Z"/><path class="cls-9" d="M324.38,26.34a34.85,34.85,0,0,0-1.21-10.5,8.83,8.83,0,0,0-4.24-5.26,19.94,19.94,0,0,0-8.49-1.81,15.24,15.24,0,0,1-.81-3.84c-.13-1.48-.2-3.1-.2-4.85q3.84.21,7.78.3l8.18.21c2.83.06,5.66.1,8.48.1s5.79,0,8.49-.1l8-.21q3.93-.09,8-.3c0,1.75-.07,3.37-.21,4.85a14.83,14.83,0,0,1-.8,3.84,20.17,20.17,0,0,0-8.39,1.81,8.74,8.74,0,0,0-4.34,5.26,34.85,34.85,0,0,0-1.21,10.5v85.24A35.09,35.09,0,0,0,344.58,122a8.37,8.37,0,0,0,4.34,5.25,23.72,23.72,0,0,0,8.39,1.92,14.57,14.57,0,0,1,.8,3.74c.14,1.41.21,3.06.21,4.94q-6.06-.41-12.33-.5t-12.12-.1q-5.85,0-12.52.1t-11.92.5c0-1.88.07-3.53.2-4.94a15,15,0,0,1,.81-3.74,23.26,23.26,0,0,0,8.49-1.92,8.45,8.45,0,0,0,4.24-5.25,35.09,35.09,0,0,0,1.21-10.41Z"/><path class="cls-9" d="M380.94,137.84c0-1.88.06-3.53.2-4.94a14.15,14.15,0,0,1,.81-3.74,23.26,23.26,0,0,0,8.48-1.92,8.42,8.42,0,0,0,4.24-5.25,35,35,0,0,0,1.22-10.41V26.34a34.8,34.8,0,0,0-1.22-10.5,8.8,8.8,0,0,0-4.24-5.26A19.92,19.92,0,0,0,382,8.77a14.41,14.41,0,0,1-.81-3.84c-.14-1.48-.2-3.1-.2-4.85q7.88.4,15.25.51t12.22.1c1.88,0,4.55,0,8-.1l10.2-.21c3.36-.06,5.86-.1,7.47-.1q16.77,0,26.87,5.46t14.54,14.34a42.8,42.8,0,0,1,4.45,19.39,50.72,50.72,0,0,1-5.15,22.22,44.05,44.05,0,0,1-15.25,17.57q-10.11,6.87-25.46,6.87a39,39,0,0,1-14.14-2.22,23.59,23.59,0,0,1-.4-4.24,13.8,13.8,0,0,1,.61-4,46.27,46.27,0,0,0,10.7,1.21,36.52,36.52,0,0,0,13.94-2.63,21.6,21.6,0,0,0,10.5-9.39q4.05-6.76,4-19.49,0-16.15-8-26.16t-26.15-10a51.44,51.44,0,0,0-5.16.3A73.66,73.66,0,0,0,411.84,11l3-3v99.58q0,8.7,1.82,13.24a10.77,10.77,0,0,0,5.86,6.26,32,32,0,0,0,10.3,2.12,14.56,14.56,0,0,1,.81,3.74c.13,1.41.2,3.06.2,4.94q-3-.19-7.17-.3l-8.79-.2q-4.65-.1-9.49-.1c-3.1,0-6.46,0-10.1.1l-10.1.2Q383.56,137.65,380.94,137.84Z"/><path class="cls-9" d="M498.3,137.84c0-1.88.06-3.53.2-4.94a14.15,14.15,0,0,1,.81-3.74,23.26,23.26,0,0,0,8.48-1.92A8.42,8.42,0,0,0,512,122a35,35,0,0,0,1.22-10.41V26.34A34.8,34.8,0,0,0,512,15.84a8.8,8.8,0,0,0-4.24-5.26,19.92,19.92,0,0,0-8.48-1.81,14.41,14.41,0,0,1-.81-3.84c-.14-1.48-.2-3.1-.2-4.85q7.88.4,15.25.51t12.22.1c1.88,0,4.55,0,8-.1L544,.38c3.36-.06,5.86-.1,7.47-.1q16.77,0,26.87,5.46t14.54,14.34a42.8,42.8,0,0,1,4.45,19.39,50.72,50.72,0,0,1-5.15,22.22,44.05,44.05,0,0,1-15.25,17.57q-10.11,6.87-25.46,6.87a39,39,0,0,1-14.14-2.22,23.59,23.59,0,0,1-.4-4.24,13.8,13.8,0,0,1,.61-4,46.27,46.27,0,0,0,10.7,1.21,36.52,36.52,0,0,0,13.94-2.63,21.6,21.6,0,0,0,10.5-9.39q4.05-6.76,4-19.49,0-16.15-8-26.16t-26.16-10a51.1,51.1,0,0,0-5.15.3A73.33,73.33,0,0,0,529.2,11l3-3v99.58q0,8.7,1.82,13.24a10.77,10.77,0,0,0,5.86,6.26,32,32,0,0,0,10.3,2.12,14.56,14.56,0,0,1,.81,3.74c.13,1.41.2,3.06.2,4.94q-3-.19-7.17-.3l-8.79-.2c-3.09-.07-6.26-.1-9.49-.1s-6.46,0-10.1.1l-10.1.2Q500.92,137.65,498.3,137.84Z"/><path class="cls-9" d="M666.57-.53l48.07,110.3q3.43,7.47,5.66,11.51a16.37,16.37,0,0,0,4.54,5.66,14.19,14.19,0,0,0,5.36,2.22,26.31,26.31,0,0,1,1,4.44,40.22,40.22,0,0,1,.2,4.24q-2-.19-6.26-.3l-8.89-.2q-4.65-.1-7.88-.1c-1.62,0-3.5,0-5.66.1l-6.66.2c-2.29.07-4.35.13-6.16.2s-3.27.1-4.35.1a33.07,33.07,0,0,1,.31-4.64,14.71,14.71,0,0,1,1.11-4q8.28-1,9.79-3.74t-2.52-12L666.16,47.75q-2.62-6.26-4.64-11.11t-4.85-12.32h1q-2.43,7.68-4.35,13t-3.73,10.2l-23,60q-4.44,11.92-2.73,16.47t10,5.15a14.71,14.71,0,0,1,1.11,4,34.65,34.65,0,0,1,.31,4.64q-2.24-.19-5.46-.3l-6.77-.2c-2.35-.07-4.68-.1-7-.1-3.37,0-6.54.06-9.5.2s-5.39.27-7.27.4a34.08,34.08,0,0,1,.3-4.34,14.76,14.76,0,0,1,1.11-4.14,14,14,0,0,0,6.06-2.83,20.75,20.75,0,0,0,4.75-6.56,133.68,133.68,0,0,0,5.35-12.43L658.69.28c1.34-.27,2.59-.47,3.73-.6A35,35,0,0,1,666.57-.53ZM685,83.71l1.82,9.09q-13.54,0-29,.2t-28,.61l3.23-9.9Z"/><path class="cls-9" d="M844.93,139.06q-6.06-8.09-10.6-14.75t-10.81-16.56q-4-6.47-7.78-11.82a102.63,102.63,0,0,0-9-11A144.85,144.85,0,0,0,793.22,72.4L798.47,75c-3.5.14-6.73.2-9.7.2s-5.79-.06-8.48-.2V65.53c1.88.27,3.64.47,5.25.6s3.3.21,5.05.21a60.13,60.13,0,0,0,20-3.13,30.4,30.4,0,0,0,14.14-9.8Q830,46.74,830,36.24q0-11.93-7.57-19.49T796.65,9.17a78.08,78.08,0,0,0-8.28.4A61.13,61.13,0,0,0,780.69,11l1-3.84V111.58A35,35,0,0,0,782.92,122a8.34,8.34,0,0,0,4.34,5.25,23.71,23.71,0,0,0,8.38,1.92,18,18,0,0,1,.81,4.14c.13,1.55.2,3.06.2,4.54-3-.27-6-.43-9.19-.5s-6.09-.1-8.79-.1H772q-5.26,0-12.42.1t-11.82.5c0-1.48.06-3,.2-4.44a20.8,20.8,0,0,1,.81-4.24,23.26,23.26,0,0,0,8.48-1.92A8.42,8.42,0,0,0,761.5,122a35,35,0,0,0,1.22-10.41V26.34a35.86,35.86,0,0,0-1.22-10.6,8.83,8.83,0,0,0-4.24-5.36,18.37,18.37,0,0,0-8.48-1.61,20.81,20.81,0,0,1-.81-4,43.46,43.46,0,0,1-.2-4.45c1.34,0,3.33,0,6,.1l8.68.21c3.17.06,6.09.1,8.79.1q5.85,0,12.12-.1L794.83.38c3.5-.06,6.2-.1,8.08-.1q17.39,0,27.58,4.45t14.74,12a32.15,32.15,0,0,1,4.55,16.86,34.58,34.58,0,0,1-4.34,17.48,36.42,36.42,0,0,1-12.53,12.72,62.86,62.86,0,0,1-19.69,7.78l1-2.43a92.39,92.39,0,0,1,8,6.57,67.28,67.28,0,0,1,6.26,6.77q2.92,3.63,6.26,8.58t7.78,12a118.87,118.87,0,0,0,10.7,14A35,35,0,0,0,864,125.42a35.47,35.47,0,0,0,13.43,3.13c0,1.62,0,3.1-.1,4.45a19.77,19.77,0,0,1-.71,4.24q-7.47,0-15.85.3A127.2,127.2,0,0,0,844.93,139.06Z"/><path class="cls-9" d="M900.48,9.57c-6.46,0-11.35,1-14.64,3.14a17.22,17.22,0,0,0-7.07,8.58,73.18,73.18,0,0,0-3.54,12.93,34.6,34.6,0,0,1-5.05-.41,13.23,13.23,0,0,1-4.65-1.41q1.62-8.49,2.43-17T868.77.08q5.65.21,13.83.4t17.78.21h40q9.79,0,18.07-.21t13.74-.4q-.21,7.28.1,15T973.4,32.4a18,18,0,0,1-4.54,1.52,21.71,21.71,0,0,1-5.56.3q-.19-11.92-5.55-18.28T940.48,9.57Zm10.3-3.43h19V111.58A35.09,35.09,0,0,0,931,122a8.24,8.24,0,0,0,4.65,5.25,30.1,30.1,0,0,0,9.9,1.92,14.57,14.57,0,0,1,.8,3.74c.14,1.41.21,3.06.21,4.94-4.32-.27-8.72-.43-13.23-.5s-8.93-.1-13.24-.1c-2.82,0-5.82,0-9,.1l-9.2.2q-4.44.11-8.28.3c0-1.88.07-3.53.2-4.94a15,15,0,0,1,.81-3.74,31.25,31.25,0,0,0,10-1.92,8.53,8.53,0,0,0,4.85-5.25,32.77,32.77,0,0,0,1.31-10.41Z"/><path class="cls-9" d="M984.72,137.84c0-1.88.06-3.53.2-4.94a14.15,14.15,0,0,1,.81-3.74,23.26,23.26,0,0,0,8.48-1.92,8.45,8.45,0,0,0,4.24-5.25,35.09,35.09,0,0,0,1.21-10.41V26.34a34.85,34.85,0,0,0-1.21-10.5,8.83,8.83,0,0,0-4.24-5.26,19.92,19.92,0,0,0-8.48-1.81,14.41,14.41,0,0,1-.81-3.84c-.14-1.48-.2-3.1-.2-4.85q3.42.21,7.67.3l9,.21c3.16.06,6.23.1,9.19.1h8.08V107.54q0,8.7,1.82,13.24a10.77,10.77,0,0,0,5.86,6.26,31.93,31.93,0,0,0,10.3,2.12,15,15,0,0,1,.81,3.74c.13,1.41.2,3.06.2,4.94q-3-.19-7.17-.3l-8.79-.2q-4.65-.1-9.49-.1-7.08,0-15.25.1T984.72,137.84Zm85-103.42a32.62,32.62,0,0,0-3.23-12.12q-2.83-5.85-9.8-9.7t-20.1-3.83h-23l4.45-8.08q15.95,0,27.37-.1T1064.1.28q7.28-.2,10.51-.2c.26,3,.6,6.4,1,10.3s.87,7.75,1.41,11.52,1.14,7.14,1.82,10.1a8.73,8.73,0,0,1-3.94,1.92A24.79,24.79,0,0,1,1069.76,34.42Zm-5,61.41c-1.75,0-3.37-.07-4.85-.2a26.59,26.59,0,0,1-4.44-.81q-.81-10.5-5.56-14.24t-17.27-3.74h-14.54V68.15h14.54q12.53,0,17.37-3.23t5-13.13a31.53,31.53,0,0,1,4.85-1.11,36.37,36.37,0,0,1,4.85-.3c-.14,3.37-.24,7-.31,10.91s-.1,7.61-.1,11.11,0,7.4.1,11.71S1064.57,92.33,1064.71,95.83Z"/><path class="cls-9" d="M1160.45,139.06q-20,0-34.94-9.3a64.26,64.26,0,0,1-23.33-25.25q-8.39-15.95-8.39-35.95a74.8,74.8,0,0,1,5.15-28.28,67.22,67.22,0,0,1,14.25-22A63.66,63.66,0,0,1,1134.4,3.92a67,67,0,0,1,26-5q19.4,0,34.44,8.79a63.19,63.19,0,0,1,23.74,24.44q8.68,15.66,8.69,36.46a77.92,77.92,0,0,1-4.85,27.77,67.12,67.12,0,0,1-13.84,22.43,63.73,63.73,0,0,1-21.21,14.94A66.5,66.5,0,0,1,1160.45,139.06Zm4-9.9q13.14,0,22.53-7.37t14.44-20a74.84,74.84,0,0,0,5-28,80.76,80.76,0,0,0-6.57-33q-6.56-14.83-17.87-23.53a41.34,41.34,0,0,0-25.86-8.69,35.55,35.55,0,0,0-21.31,6.77q-9.39,6.76-14.85,19.09T1114.6,63.1a94,94,0,0,0,3.23,24.65,68.92,68.92,0,0,0,9.6,21.21,48.73,48.73,0,0,0,15.65,14.74A41.45,41.45,0,0,0,1164.49,129.16Z"/><path class="cls-9" d="M1299.23,128.15q11.31,0,17.77-2.43a21.54,21.54,0,0,0,10.4-8.08,61.82,61.82,0,0,0,7.18-14.94,22.84,22.84,0,0,1,5.05,1.92,17.16,17.16,0,0,1,3.83,2.92,121.81,121.81,0,0,0-3.73,14.95q-1.51,8.08-2.53,15.15-3.84-.19-10.2-.2t-13.94-.1q-7.57-.1-15-.1h-13q-7.37,0-14.94.1l-14,.2c-4.31.07-7.75.17-10.3.3,0-1.88.06-3.53.2-4.94a14.15,14.15,0,0,1,.81-3.74,21.73,21.73,0,0,0,8.48-2,9.34,9.34,0,0,0,4.34-5.76q1.32-4.14,1.32-12v-83a34.8,34.8,0,0,0-1.22-10.5,8.8,8.8,0,0,0-4.24-5.26,19.92,19.92,0,0,0-8.48-1.81,14.61,14.61,0,0,1-.81-3.94c-.14-1.55-.2-3.13-.2-4.75q4,.21,8.58.3l8.79.21c2.83.06,5.18.1,7.07.1,3,0,5.79,0,8.48-.1l8-.21q3.95-.09,8-.3c0,1.75-.07,3.37-.2,4.85a14.81,14.81,0,0,1-.81,3.84,20.12,20.12,0,0,0-8.38,1.81,8.75,8.75,0,0,0-4.34,5.46A37.89,37.89,0,0,0,1279.83,27v82.41c0,5,.47,8.82,1.42,11.52a9.06,9.06,0,0,0,5.35,5.65q3.95,1.62,11.41,1.62Z"/><path class="cls-9" d="M1373.76,26.34a34.85,34.85,0,0,0-1.21-10.5,8.83,8.83,0,0,0-4.24-5.26,19.94,19.94,0,0,0-8.49-1.81,14.83,14.83,0,0,1-.8-3.84c-.14-1.48-.21-3.1-.21-4.85,2.56.14,5.16.24,7.78.3l8.18.21c2.83.06,5.66.1,8.49.1s5.79,0,8.48-.1l8-.21c2.63-.06,5.28-.16,8-.3,0,1.75-.07,3.37-.2,4.85a15.24,15.24,0,0,1-.81,3.84,20.12,20.12,0,0,0-8.38,1.81,8.75,8.75,0,0,0-4.35,5.26,34.85,34.85,0,0,0-1.21,10.5v85.24A35.09,35.09,0,0,0,1394,122a8.38,8.38,0,0,0,4.35,5.25,23.66,23.66,0,0,0,8.38,1.92,15,15,0,0,1,.81,3.74c.13,1.41.2,3.06.2,4.94q-6.06-.41-12.32-.5t-12.12-.1q-5.87,0-12.53.1t-11.92.5c0-1.88.07-3.53.21-4.94a14.57,14.57,0,0,1,.8-3.74,23.26,23.26,0,0,0,8.49-1.92,8.45,8.45,0,0,0,4.24-5.25,35.09,35.09,0,0,0,1.21-10.41Z"/><path class="cls-9" d="M1492.74,139.06q-20,0-35-9.3a64.4,64.4,0,0,1-23.33-25.25q-8.39-15.95-8.38-35.95a74.8,74.8,0,0,1,5.15-28.28,67,67,0,0,1,14.24-22,63.66,63.66,0,0,1,21.21-14.34,67,67,0,0,1,26.06-5q19.4,0,34.44,8.79a63.26,63.26,0,0,1,23.74,24.44q8.67,15.66,8.68,36.46a77.92,77.92,0,0,1-4.85,27.77,67.1,67.1,0,0,1-13.83,22.43,63.93,63.93,0,0,1-21.21,14.94A66.5,66.5,0,0,1,1492.74,139.06Zm4-9.9q13.13,0,22.52-7.37a46.87,46.87,0,0,0,14.44-20,74.64,74.64,0,0,0,5-28,80.92,80.92,0,0,0-6.56-33q-6.57-14.83-17.88-23.53a41.32,41.32,0,0,0-25.85-8.69,35.55,35.55,0,0,0-21.31,6.77q-9.4,6.76-14.85,19.09t-5.46,28.68a93.56,93.56,0,0,0,3.24,24.65,69.14,69.14,0,0,0,9.59,21.21,48.66,48.66,0,0,0,15.66,14.74A41.45,41.45,0,0,0,1496.78,129.16Z"/><path class="cls-9" d="M1586.14,139.18q-6.54,0-10.18-3.64a12.48,12.48,0,0,1-3.63-9.21,13.28,13.28,0,0,1,4.12-9.7,14.44,14.44,0,0,1,10.66-4.12q6.3,0,9.82,4.24c2.34,2.83,3.52,5.62,3.52,8.37q0,7.27-4.37,10.66A15.77,15.77,0,0,1,1586.14,139.18Z"/><path class="cls-9" d="M1621.61,137.84c0-1.88.07-3.53.2-4.94a15,15,0,0,1,.81-3.74,21.74,21.74,0,0,0,8.49-2,9.34,9.34,0,0,0,4.34-5.76q1.3-4.14,1.31-12v-83a34.85,34.85,0,0,0-1.21-10.5,8.83,8.83,0,0,0-4.24-5.26,19.94,19.94,0,0,0-8.49-1.81,15,15,0,0,1-.8-3.94c-.14-1.55-.21-3.13-.21-4.75,2.16.14,4.88.24,8.19.3l10.3.21c3.56.06,6.83.1,9.79.1q5.87,0,11.92-.21t11.92-.2a156.87,156.87,0,0,1,21.61,1.52,89.49,89.49,0,0,1,20.81,5.45A55.28,55.28,0,0,1,1734,18.56a51,51,0,0,1,12.22,18.79q4.44,11.42,4.44,28.18,0,16.36-4,28.08a58.06,58.06,0,0,1-25.86,32.32,72.41,72.41,0,0,1-16.86,7.27,98,98,0,0,1-16.47,3.23,135,135,0,0,1-13.53.81h-13q-7.38,0-15,.1l-14,.2Q1625.44,137.65,1621.61,137.84Zm52.32-9.69a80.74,80.74,0,0,0,22.32-2.93,44.77,44.77,0,0,0,17.78-9.7q7.58-6.76,11.71-18.28t4.14-28.68q0-16.37-4.94-28A50.11,50.11,0,0,0,1711.6,21.8a53.62,53.62,0,0,0-19-10.51A72.75,72.75,0,0,0,1670.7,8a71.6,71.6,0,0,0-9.7.71q-5.25.71-6.87,1.71l1.62-5.25V109.36c0,5,.47,8.82,1.41,11.52a9.1,9.1,0,0,0,5.36,5.65Q1666.45,128.15,1673.93,128.15Z"/><path class="cls-9" d="M1769.07,137.84c0-1.88.07-3.53.2-4.94a15,15,0,0,1,.81-3.74,23.26,23.26,0,0,0,8.49-1.92,8.45,8.45,0,0,0,4.24-5.25,35.09,35.09,0,0,0,1.21-10.41V26.34a34.85,34.85,0,0,0-1.21-10.5,8.83,8.83,0,0,0-4.24-5.26,19.94,19.94,0,0,0-8.49-1.81,15.24,15.24,0,0,1-.81-3.84c-.13-1.48-.2-3.1-.2-4.85q3.84.21,7.78.3l8.18.21c2.83.06,5.66.1,8.48.1s5.79,0,8.49-.1l8-.21q3.93-.09,8-.3c0,1.75-.07,3.37-.21,4.85a14.83,14.83,0,0,1-.8,3.84,20.17,20.17,0,0,0-8.39,1.81,8.74,8.74,0,0,0-4.34,5.26,34.85,34.85,0,0,0-1.21,10.5v85.24a35.09,35.09,0,0,0,1.21,10.41,8.37,8.37,0,0,0,4.34,5.25,23.72,23.72,0,0,0,8.39,1.92,14.57,14.57,0,0,1,.8,3.74c.14,1.41.21,3.06.21,4.94q-6.06-.41-12.33-.5t-12.12-.1q-5.85,0-12.52.1T1769.07,137.84Zm88.07.61q-3.63-5.85-10.1-15t-14.64-19.49q-8.19-10.3-16.67-19.6A187.38,187.38,0,0,0,1800,68.76l41.21-43.23q7.47-7.66,7.57-12T1842,8.77a21.46,21.46,0,0,1-.8-4.25Q1841,2.3,1841,.08q3.43.21,9.09.4t11.72.21c2.69,0,5.28,0,7.78-.1l7.07-.21c2.22-.06,4.2-.16,6-.3q0,2-.21,4.44a13,13,0,0,1-1,4.25,28.45,28.45,0,0,0-8.58,1.71,34.5,34.5,0,0,0-8.89,5.15,92.7,92.7,0,0,0-11.21,10.71l-35.35,37.57V59.06a185.41,185.41,0,0,1,19.29,20.51q10.8,13,23.13,29,5,6.48,8.89,10.71a26.14,26.14,0,0,0,8.78,6.46,38.69,38.69,0,0,0,12.83,2.83c0,1.08-.07,2.43-.2,4a25.65,25.65,0,0,1-.81,4.65h-7.88c-2.69,0-5.45.06-8.28.2l-8.28.4C1862.12,138,1859.57,138.18,1857.14,138.45Z"/></g><g id="Tema5.2"><path class="cls-10" d="M-912.79,927.29c-57.82-.22-141.19,19.56-160.94,70.64-19.3,49.91,41.88,78.66,41.29,150-1,117.94-169.17,165.21-154.14,242.44,8.81,45.34,74.3,67.76,161.95,97.77,72.51,24.83,153,52.4,258.86,41,39-4.21,259.57-32.92,344.16-206,38.12-78,33.12-153.51,29.91-181.42-5.05-43.86-14.27-124-68-154.77-59.76-34.23-103.37,33.18-212.09,25.21C-783.94,1004-800.17,927.71-912.79,927.29Z"/></g></svg>