<svg id="Forside" xmlns="http://www.w3.org/2000/svg" viewBox="0 0 798 605"><defs><style>.cls-1{fill:lime;}.cls-2{fill:#8002ff;}</style></defs><g id="Tema5.2"><path class="cls-1" d="M274.75,0C216.93-.21,133.55,19.58,113.8,70.7c-19.3,50,41.88,78.72,41.3,150.13-1,118-169.17,165.34-154.15,242.64,8.82,45.38,74.3,67.82,162,97.86,72.51,24.85,153,52.44,258.87,41,39-4.21,259.57-33,344.16-206.13,38.12-78,33.12-153.64,29.91-181.57-5.05-43.9-14.27-124.06-68-154.89C668,25.48,624.42,93,515.71,85,403.6,76.75,387.37.42,274.75,0Z"/></g><g id="Tema4"><path class="cls-2" d="M1929.75-152c94.39-74.39,162.16-53.41,180.16-104.57,9.43-26.8-3.28-59.75-29.1-124.54-52.33-131.33-82-205.93-141.67-240.52-89.78-52.11-147.12,44.68-237.26-15-59.35-39.27-55.17-94.91-103.22-111.27-81.1-27.6-201.41,94-191,195.84,9.68,94.83,127.36,120.47,138.74,243.18,3.58,38.6-5.13,67.63,12.07,114.82a214.42,214.42,0,0,0,61.81,88.91c80.34,69.24,191.62,48.45,261.4-2.12C1907-125.62,1897.88-126.9,1929.75-152Z"/></g></svg>