<svg id="Forside" xmlns="http://www.w3.org/2000/svg" viewBox="0 0 601.68 756.37"><defs><style>.cls-1{fill:#f9cf00;}.cls-2{fill:none;}</style></defs><path class="cls-1" d="M97.49,26.35c325.62-102,464,125,464,125,19.45,31.92,51.16,83.95,36.44,135.07C576,362.3,473.76,360.21,457.2,426.21c-19.07,76,103.21,131.17,87.56,206.69-18,87-201.4,115.34-219.62,118C199.78,769.07,11.44,744.2.49,644.05-10.91,539.7,179,433.21,159,322c-7.64-42.54-38.14-42-87.07-150.3C47.2,116.93,40.72,85.19,51.45,61.42,61.07,40.1,81.78,31.27,97.49,26.35Z"/><rect class="cls-2" x="-538.12" y="-997.03" width="1161" height="1029"/></svg>