<svg id="Forside" xmlns="http://www.w3.org/2000/svg" viewBox="0 0 601.68 756.37"><defs><style>.cls-1{fill:#f9cf00;}</style></defs><path class="cls-1" d="M97.49,26.35c325.62-102,464,125,464,125,19.45,31.92,51.16,83.95,36.44,135.07C576,362.3,473.76,360.21,457.2,426.21c-19.07,76,103.21,131.17,87.56,206.69-18,87-201.4,115.34-219.62,118C199.78,769.07,11.44,744.2.49,644.05-10.91,539.7,179,433.21,159,322c-7.64-42.54-38.14-42-87.07-150.3C47.2,116.93,40.72,85.19,51.45,61.42,61.07,40.1,81.78,31.27,97.49,26.35Z"/><path d="M246.61,327.7a15.67,15.67,0,0,1-14.43-8.55,18.9,18.9,0,0,1-2.07-8.9,18.49,18.49,0,0,1,1.27-7,16.59,16.59,0,0,1,3.53-5.45,15.58,15.58,0,0,1,5.25-3.55,17.58,17.58,0,0,1,15,.92,15.76,15.76,0,0,1,5.88,6.05,18.36,18.36,0,0,1,2.15,9,19.26,19.26,0,0,1-1.2,6.87,16.61,16.61,0,0,1-3.43,5.55,15.59,15.59,0,0,1-5.25,3.7A16.35,16.35,0,0,1,246.61,327.7Zm1-2.45a8.74,8.74,0,0,0,5.57-1.83,11.59,11.59,0,0,0,3.58-4.95,18.53,18.53,0,0,0,1.25-6.92,20.08,20.08,0,0,0-1.63-8.18,14.59,14.59,0,0,0-4.42-5.82,10.19,10.19,0,0,0-6.4-2.15,8.85,8.85,0,0,0-5.28,1.67,11.27,11.27,0,0,0-3.67,4.73,17.4,17.4,0,0,0-1.35,7.1,23,23,0,0,0,.8,6.1,17.21,17.21,0,0,0,2.37,5.25,12.05,12.05,0,0,0,3.88,3.65A10.27,10.27,0,0,0,247.61,325.25Z"/><path d="M286.76,327.7l-12.05-26.2h.5l-1.7,16.95a18.05,18.05,0,0,0-.05,4.07,2.75,2.75,0,0,0,1,2,4.76,4.76,0,0,0,2.28.73,5.82,5.82,0,0,1,.2,1.15c0,.43.05.76.05,1-.8-.07-1.71-.11-2.73-.13l-2.62,0-1.63,0-1.8.05c-.58,0-1.11,0-1.57.08,0-.24,0-.57,0-1a5.17,5.17,0,0,1,.2-1.15,4.69,4.69,0,0,0,2.12-.68,3.58,3.58,0,0,0,1.23-2A24.18,24.18,0,0,0,271,318l1.6-17.8a8.73,8.73,0,0,0-.13-2.83,2.28,2.28,0,0,0-1.05-1.47,4.36,4.36,0,0,0-2.17-.45,5.24,5.24,0,0,1-.2-1.1,10.42,10.42,0,0,1-.05-1.05c.33,0,.71.06,1.15.07l1.35.05,1.3,0c.43,0,.85,0,1.27,0l1.25-.05c.42,0,.84,0,1.28-.07l13.1,28.95h-1.1L300,293.3c.4,0,.81.06,1.25.07l1.32.05,1.33,0c.43,0,.85,0,1.27,0l1.25-.05c.42,0,.84,0,1.28-.07,0,.33,0,.68-.05,1.05a7.29,7.29,0,0,1-.2,1.1,3.6,3.6,0,0,0-2.73,1c-.65.69-.87,2-.67,4l1.8,18.35a21,21,0,0,0,.65,3.8,3.57,3.57,0,0,0,1.12,1.9,3.63,3.63,0,0,0,1.88.65,5.83,5.83,0,0,1,.2,1.1c0,.4,0,.76,0,1.1-.4,0-.85-.06-1.35-.08l-1.58-.05-1.6,0h-1.47l-2,0-2.18.05c-.72,0-1.36,0-1.92.08a8.5,8.5,0,0,1,.07-1,6.66,6.66,0,0,1,.23-1.1,5.07,5.07,0,0,0,2.32-.65,2.23,2.23,0,0,0,.85-1.7,17.47,17.47,0,0,0-.12-3.4l-1.9-18.2h.55l-10.8,26.05a3.83,3.83,0,0,1-.95.27A7.48,7.48,0,0,1,286.76,327.7Z"/><path d="M343.31,327.7l-12.05-26.2h.5l-1.7,16.95a18.05,18.05,0,0,0-.05,4.07,2.75,2.75,0,0,0,1,2,4.76,4.76,0,0,0,2.28.73,5.82,5.82,0,0,1,.2,1.15c0,.43.05.76.05,1-.8-.07-1.71-.11-2.73-.13l-2.62,0-1.63,0-1.8.05c-.58,0-1.11,0-1.57.08,0-.24,0-.57.05-1a5.17,5.17,0,0,1,.2-1.15,4.69,4.69,0,0,0,2.12-.68,3.58,3.58,0,0,0,1.23-2,24.18,24.18,0,0,0,.7-4.55l1.6-17.8a8.73,8.73,0,0,0-.13-2.83,2.28,2.28,0,0,0-1.05-1.47,4.36,4.36,0,0,0-2.17-.45,5.24,5.24,0,0,1-.2-1.1,10.42,10.42,0,0,1-.05-1.05c.33,0,.71.06,1.15.07l1.35.05,1.3,0c.43,0,.85,0,1.27,0l1.25-.05c.42,0,.84,0,1.28-.07l13.1,28.95h-1.1l11.4-28.95c.4,0,.81.06,1.25.07l1.32.05,1.33,0c.43,0,.85,0,1.27,0l1.25-.05c.42,0,.84,0,1.28-.07,0,.33,0,.68,0,1.05a7.29,7.29,0,0,1-.2,1.1,3.6,3.6,0,0,0-2.73,1c-.65.69-.87,2-.67,4l1.8,18.35a21,21,0,0,0,.65,3.8,3.57,3.57,0,0,0,1.12,1.9,3.63,3.63,0,0,0,1.88.65,5.83,5.83,0,0,1,.2,1.1c0,.4.05.76.05,1.1-.4,0-.85-.06-1.35-.08l-1.58-.05-1.6,0h-1.47l-2,0-2.18.05c-.72,0-1.36,0-1.92.08a8.5,8.5,0,0,1,.07-1,6.66,6.66,0,0,1,.23-1.1,5.07,5.07,0,0,0,2.32-.65,2.23,2.23,0,0,0,.85-1.7,17.47,17.47,0,0,0-.12-3.4l-1.9-18.2h.55l-10.8,26.05a3.83,3.83,0,0,1-.95.27A7.48,7.48,0,0,1,343.31,327.7Z"/><path d="M374.51,299.8a8.62,8.62,0,0,0-.3-2.6,2.16,2.16,0,0,0-1-1.3,4.82,4.82,0,0,0-2.1-.45,3.61,3.61,0,0,1-.2-.95,11.32,11.32,0,0,1-.05-1.2c.63,0,1.27.06,1.92.07l2,.05,2.1,0q1.09,0,2.1,0l2-.05c.65,0,1.31,0,2-.07,0,.43,0,.83-.05,1.2a4.07,4.07,0,0,1-.2.95,4.9,4.9,0,0,0-2.08.45,2.13,2.13,0,0,0-1.07,1.3,8.62,8.62,0,0,0-.3,2.6v21.1a8.63,8.63,0,0,0,.3,2.57,2,2,0,0,0,1.07,1.3,6,6,0,0,0,2.08.48,3.8,3.8,0,0,1,.2.92c0,.35.05.76.05,1.23-1-.07-2-.11-3.05-.13l-3,0-3.1,0c-1.1,0-2.09.06-2.95.13a11.21,11.21,0,0,1,.05-1.23,3.38,3.38,0,0,1,.2-.92,5.81,5.81,0,0,0,2.1-.48,2.08,2.08,0,0,0,1-1.3,8.63,8.63,0,0,0,.3-2.57Z"/><path d="M403.91,327.7a16.71,16.71,0,0,1-8.63-2.2,15,15,0,0,1-5.77-6.2,20.32,20.32,0,0,1-2.05-9.4,17.58,17.58,0,0,1,1.45-7.38,14.89,14.89,0,0,1,3.92-5.27,17.36,17.36,0,0,1,5.58-3.18,19.54,19.54,0,0,1,6.4-1.07,32.21,32.21,0,0,1,6.7.65,23.6,23.6,0,0,1,5.3,1.7,23.5,23.5,0,0,0-.45,3.65c-.07,1.26-.1,2.63-.1,4.1a10.09,10.09,0,0,1-1.23.32,6.8,6.8,0,0,1-1.42.13,10.78,10.78,0,0,0-1.25-5.33,6,6,0,0,0-3-2.5,12.08,12.08,0,0,0-4.15-.67,11.93,11.93,0,0,0-7,1.95,11.62,11.62,0,0,0-4.1,5.07,17.15,17.15,0,0,0-1.32,6.73,24.11,24.11,0,0,0,1.35,8.27,13.39,13.39,0,0,0,4.05,5.95,10.23,10.23,0,0,0,6.75,2.23,21.19,21.19,0,0,0,2.67-.15,9.4,9.4,0,0,0,2.38-.65,2.81,2.81,0,0,0,1.27-1.13,5.67,5.67,0,0,0,.43-2.62v-2.5a14.39,14.39,0,0,0-.28-3.33,1.76,1.76,0,0,0-1.2-1.32,10.64,10.64,0,0,0-2.82-.35,4.6,4.6,0,0,1-.23-1.05,11,11,0,0,1-.07-1.25l2.75.1c1.2,0,2.31.05,3.35.05l3.3,0c1.16,0,2,0,2.55-.07,0,.3,0,.66-.05,1.1a4.32,4.32,0,0,1-.25,1.15,3.24,3.24,0,0,0-1.5.35,1.84,1.84,0,0,0-.68,1.35,21.91,21.91,0,0,0-.17,3.3v2.25a13.71,13.71,0,0,0,.12,1.9A4.79,4.79,0,0,0,417,324a20.57,20.57,0,0,1-5.5,2.65A24.46,24.46,0,0,1,403.91,327.7Z"/></svg>