<svg id="Forside" xmlns="http://www.w3.org/2000/svg" viewBox="0 0 557 778"><defs><style>.cls-1{fill:#f0f;}.cls-2{fill:#fff;}.cls-3{fill:none;stroke:#000;stroke-miterlimit:10;stroke-width:5px;}.cls-4{fill:#f8ce00;}</style></defs><g id="Tema5.2"><path class="cls-1" d="M1421.08,829c-57.82-.21-141.19,19.58-160.95,70.7-19.3,49.95,41.88,78.72,41.3,150.13-1,118-169.17,165.35-154.15,242.64,8.82,45.38,74.31,67.82,162,97.86,72.51,24.85,153,52.44,258.86,41,39-4.21,259.57-32.94,344.16-206.13,38.12-78,33.12-153.64,29.91-181.57-5.05-43.9-14.27-124.06-68-154.89C1814.37,854.5,1770.76,922,1662,914,1549.93,905.78,1533.7,829.44,1421.08,829Z"/></g><g id="Tema3"><path class="cls-2" d="M1261.24,461.83c-7.58-106.19-148-129.86-150.35-234.4C1109.54,168.4,1153.48,140,1138,91c-15-47.67-69.75-62.76-78.87-65.28C962.29-1,870,98,832.37,138.42,804.25,168.61,653.11,330.84,691.88,444c.46,1.34,1.5,3.92,6.12,13.13,40.88,81.59,139.53,231.94,198.46,208.57,34.26-13.59,17.67-71.09,56.69-100.06,65.46-48.59,159,92,236.61,38.58C1227,578.58,1265.45,520.67,1261.24,461.83Z"/><path class="cls-3" d="M1261.24,461.83c-7.58-106.19-148-129.86-150.35-234.4C1109.54,168.4,1153.48,140,1138,91c-15-47.67-69.75-62.76-78.87-65.28C962.29-1,870,98,832.37,138.42,804.25,168.61,653.11,330.84,691.88,444c.46,1.34,1.5,3.92,6.12,13.13,40.88,81.59,139.53,231.94,198.46,208.57,34.26-13.59,17.67-71.09,56.69-100.06,65.46-48.59,159,92,236.61,38.58C1227,578.58,1265.45,520.67,1261.24,461.83Z"/></g><g id="Tema2"><path class="cls-4" d="M449,325.93c-28.64,21.2-60.15,44.53-68.32,74.56-9.29,34.16,15,64.58,33.64,96.27,48.7,82.7,82.88,214.25,45.26,259-42.28,50.3-190.38,9-285.3-62C50.58,601.26,21.87,461.68,14,420.19.93,351.59-27.6,201.59,72.3,92c101.14-110.94,268.08-108.19,370-61.71,31.58,14.4,93.87,42.81,110.48,105,15.72,58.88-14.74,128.38-57.3,161.29C480.42,308.27,475.19,306.55,449,325.93Z"/></g><path d="M152.25,312.66a6.86,6.86,0,0,0-3.63.77,4.36,4.36,0,0,0-1.75,2.13,17.84,17.84,0,0,0-.87,3.2,10.08,10.08,0,0,1-1.25-.1,3.55,3.55,0,0,1-1.15-.35q.41-2.1.6-4.2c.13-1.4.2-2.67.2-3.8l3.42.1c1.35,0,2.82,0,4.4,0h9.9c1.62,0,3.11,0,4.48,0l3.4-.1c0,1.2,0,2.43,0,3.7s.15,2.7.28,4.3a4.54,4.54,0,0,1-1.13.37,5.47,5.47,0,0,1-1.37.08,7,7,0,0,0-1.38-4.53,5.27,5.27,0,0,0-4.27-1.57Zm2.55-.85h4.7v26.1a8.67,8.67,0,0,0,.3,2.57,2,2,0,0,0,1.15,1.3,7.53,7.53,0,0,0,2.45.48,3.38,3.38,0,0,1,.2.92c0,.35.05.76.05,1.23-1.07-.07-2.16-.11-3.28-.13s-2.2,0-3.27,0c-.7,0-1.44,0-2.23,0l-2.27.05c-.73,0-1.42,0-2,.08,0-.47,0-.88,0-1.23a3.38,3.38,0,0,1,.2-.92,7.73,7.73,0,0,0,2.47-.48,2.07,2.07,0,0,0,1.2-1.3,7.93,7.93,0,0,0,.33-2.57Z"/><path d="M173.1,310.31c.5,0,1.12.05,1.87.07l2.38.05,2.37,0h1.78v26.9a9.15,9.15,0,0,0,.35,2.85,2.26,2.26,0,0,0,1.35,1.4,8.15,8.15,0,0,0,2.85.4v2.25h-3.23c-1.21,0-2.45,0-3.7,0l-3.47.05c-1.07,0-1.92,0-2.55.08,0-.47,0-.88.05-1.23a3.38,3.38,0,0,1,.2-.92,5.57,5.57,0,0,0,2.1-.5,2.25,2.25,0,0,0,1.05-1.43,11.16,11.16,0,0,0,.3-3V316.81a8.62,8.62,0,0,0-.3-2.6,2.16,2.16,0,0,0-1.05-1.3,4.82,4.82,0,0,0-2.1-.45,3.68,3.68,0,0,1-.2-1C173.12,311.1,173.1,310.71,173.1,310.31Zm22.45,0c.07.73.15,1.58.25,2.55s.22,1.91.35,2.85.28,1.76.45,2.5a2.14,2.14,0,0,1-1,.47,6.12,6.12,0,0,1-1.27.13,8,8,0,0,0-.8-3,5.52,5.52,0,0,0-2.43-2.4,10.39,10.39,0,0,0-5-1h-5.7l1.05-2q3.94,0,6.77,0c1.89,0,3.44,0,4.65-.07S195,310.31,195.55,310.31Zm-3,11.45c0,.83-.06,1.73-.08,2.7s0,1.88,0,2.75,0,1.83,0,2.9,0,2,.08,2.9c-.43,0-.83,0-1.2-.05a7.07,7.07,0,0,1-1.1-.2c-.13-1.74-.59-2.91-1.38-3.53s-2.2-.92-4.27-.92h-3.6v-2.15h3.6a8.29,8.29,0,0,0,4.3-.8c.8-.54,1.22-1.62,1.25-3.25a6.84,6.84,0,0,1,1.2-.28A9,9,0,0,1,192.6,321.76Zm3.5,13.95a5.56,5.56,0,0,1,1.25.47,4.24,4.24,0,0,1,1,.73,29,29,0,0,0-.93,3.7c-.25,1.33-.45,2.58-.62,3.75-.63,0-1.49-.05-2.58-.05l-3.7,0c-1.38,0-2.85,0-4.42,0V342h.3a15.47,15.47,0,0,0,5.42-.73,5.54,5.54,0,0,0,2.73-2.12A16.35,16.35,0,0,0,196.1,335.71Z"/><path d="M222.2,344.71l-12-26.2h.5L209,335.46a18.67,18.67,0,0,0,0,4.07,2.75,2.75,0,0,0,1,2,4.87,4.87,0,0,0,2.28.73,5.17,5.17,0,0,1,.2,1.15c0,.43,0,.76,0,1-.8-.07-1.71-.11-2.73-.13s-1.89,0-2.62,0c-.47,0-1,0-1.63,0l-1.8.05c-.58,0-1.1,0-1.57.08,0-.24,0-.57.05-1a5.17,5.17,0,0,1,.2-1.15,4.65,4.65,0,0,0,2.12-.68,3.58,3.58,0,0,0,1.23-2,24.18,24.18,0,0,0,.7-4.55l1.6-17.8a8.44,8.44,0,0,0-.13-2.83,2.28,2.28,0,0,0-1.05-1.47,4.33,4.33,0,0,0-2.17-.45,5.24,5.24,0,0,1-.2-1.1c0-.4,0-.75,0-1.05l1.15.07,1.35.05,1.3,0c.43,0,.86,0,1.27,0l1.25-.05,1.28-.07,13.1,28.95H224l11.4-28.95,1.25.07,1.32.05,1.33,0c.43,0,.86,0,1.27,0l1.25-.05,1.28-.07c0,.33,0,.68,0,1.05a6.22,6.22,0,0,1-.2,1.1,3.6,3.6,0,0,0-2.73,1c-.65.68-.87,2-.67,4l1.8,18.35a22,22,0,0,0,.65,3.8,3,3,0,0,0,3,2.55,5.13,5.13,0,0,1,.2,1.1c0,.4.05.76.05,1.1-.4,0-.85-.06-1.35-.08l-1.58-.05c-.55,0-1.08,0-1.6,0h-1.47c-.6,0-1.27,0-2,0l-2.18.05c-.71,0-1.35,0-1.92.08a8.5,8.5,0,0,1,.07-1.05,6.66,6.66,0,0,1,.23-1.1,5,5,0,0,0,2.32-.65,2.2,2.2,0,0,0,.85-1.7,16,16,0,0,0-.12-3.4l-1.9-18.2h.55l-10.8,26.05a3.83,3.83,0,0,1-.95.27A7.37,7.37,0,0,1,222.2,344.71Z"/><path d="M264.8,310.16l11.9,27.3c.57,1.23,1,2.18,1.4,2.85a4.24,4.24,0,0,0,1.12,1.4,3.67,3.67,0,0,0,1.33.55,6.13,6.13,0,0,1,.25,1.1c0,.3.05.65.05,1.05-.33,0-.85-.06-1.55-.08l-2.2-.05c-.77,0-1.42,0-2,0s-.87,0-1.4,0l-1.65.05-1.53.05-1.07,0a8.46,8.46,0,0,1,.07-1.15,3.76,3.76,0,0,1,.28-1c1.37-.17,2.17-.48,2.42-.93s.05-1.44-.62-3l-6.95-16.25c-.43-1-.82-1.95-1.15-2.75s-.73-1.82-1.2-3.05h.25c-.4,1.26-.76,2.34-1.08,3.22s-.62,1.73-.92,2.53l-5.7,14.85c-.73,2-1,3.32-.68,4.07s1.11,1.18,2.48,1.28a3.76,3.76,0,0,1,.27,1,8.42,8.42,0,0,1,.08,1.15c-.37,0-.82-.06-1.35-.08l-1.68-.05c-.58,0-1.15,0-1.72,0-.83,0-1.62,0-2.35.05s-1.33.06-1.8.1a8.25,8.25,0,0,1,.07-1.08,3.81,3.81,0,0,1,.28-1,3.6,3.6,0,0,0,1.5-.7,5.23,5.23,0,0,0,1.17-1.63,31.24,31.24,0,0,0,1.33-3.07l10.35-26.55a9.2,9.2,0,0,1,.92-.15A7.79,7.79,0,0,1,264.8,310.16ZM269.35,331l.45,2.25c-2.23,0-4.63,0-7.18.05s-4.85.08-6.92.15l.8-2.45Z"/><path d="M305.25,319a13.32,13.32,0,0,1,4.2.62,6.26,6.26,0,0,1,3,2.05,6.19,6.19,0,0,1,1.13,3.93,7,7,0,0,1-.55,2.8,9.63,9.63,0,0,1-1.75,2.55q-1.2,1.29-3.2,3.15c-.94.83-1.92,1.74-3,2.72l-3.75,3.58-.75-.6h8.65a9.37,9.37,0,0,0,2.12-.18,1.44,1.44,0,0,0,1-.82,5.89,5.89,0,0,0,.35-2.05,9.92,9.92,0,0,1,1.27.07,4.18,4.18,0,0,1,1.08.28c0,1.26,0,2.37.12,3.32a24.79,24.79,0,0,0,.43,2.83,2.41,2.41,0,0,1-.6.8,1.49,1.49,0,0,1-1,.35c-1.6,0-3.24-.06-4.93-.08s-3.26,0-4.72,0-3,0-4.6,0-2.89,0-3.85.08a2.32,2.32,0,0,1-.53-.93,4.63,4.63,0,0,1-.12-1.12q2.14-2,4.35-4t4.2-3.75a25.25,25.25,0,0,0,3-3.1,8.72,8.72,0,0,0,1.45-2.58,8,8,0,0,0,.4-2.52,5.74,5.74,0,0,0-1.1-3.8,4,4,0,0,0-3.25-1.3,3.72,3.72,0,0,0-3.08,1.4q-1.12,1.39-1.67,5.55c-.44,0-.91,0-1.43-.08a4.84,4.84,0,0,1-1.27-.27c.06-.6.11-1.3.15-2.08s0-1.57,0-2.35a13,13,0,0,0-.25-2.07,12.49,12.49,0,0,1,3.57-1.73A16,16,0,0,1,305.25,319Z"/></svg>