<svg id="Forside" xmlns="http://www.w3.org/2000/svg" viewBox="0 0 557 778"><defs><style>.cls-1{fill:#f9cf00;}</style></defs><g id="Tema2"><path class="cls-1" d="M449,325.93c-28.64,21.2-60.15,44.53-68.32,74.56-9.29,34.16,15,64.58,33.64,96.27,48.7,82.7,82.88,214.25,45.26,259-42.28,50.3-190.38,9-285.3-62C50.58,601.26,21.87,461.68,14,420.19.93,351.59-27.6,201.59,72.3,92c101.14-110.94,268.08-108.19,370-61.71,31.58,14.4,93.87,42.81,110.48,105,15.72,58.88-14.74,128.38-57.3,161.29C480.42,308.27,475.19,306.55,449,325.93Z"/></g></svg>