<svg id="Forside" xmlns="http://www.w3.org/2000/svg" viewBox="0 0 581 652"><defs><style>.cls-1{fill:#f0f;}.cls-2{fill:#8002ff;}.cls-3{fill:#fff;}.cls-4{fill:none;stroke:#000;stroke-miterlimit:10;stroke-width:5px;}.cls-5{fill:#f8ce00;}</style></defs><g id="Tema5.2"><path class="cls-1" d="M738,810.36c-57.82-.22-141.19,19.58-160.94,70.7C557.78,931,619,959.78,618.37,1031.19c-1,118-169.17,165.34-154.15,242.64,8.82,45.37,74.31,67.81,162,97.85,72.51,24.85,153,52.44,258.86,41,39-4.21,259.57-33,344.16-206.14,38.12-78,33.12-153.63,29.91-181.57-5-43.9-14.27-124-68-154.89-59.76-34.26-103.37,33.2-212.09,25.23C866.87,887.11,850.64,810.78,738,810.36Z"/></g><g id="Tema4"><path class="cls-2" d="M1211,580.34c94.39-74.38,162.16-53.41,180.16-104.56,9.43-26.81-3.29-59.75-29.11-124.54-52.33-131.34-82-205.93-141.66-240.53-89.78-52.1-147.13,44.69-237.27-15C923.8,56.48,928,.83,879.93-15.52c-81.09-27.61-201.41,94-191,195.84,9.69,94.82,127.36,120.47,138.75,243.17,3.58,38.6-5.14,67.64,12.06,114.83a214.49,214.49,0,0,0,61.82,88.91c80.34,69.24,191.62,48.45,261.4-2.12C1188.31,606.73,1179.15,605.46,1211,580.34Z"/></g><g id="Tema3"><path class="cls-3" d="M578.18,443.16C570.6,337,430.23,313.3,427.83,208.77c-1.35-59,42.6-87.43,27.11-136.49C439.9,24.61,385.2,9.52,376.07,7,279.24-19.7,187,79.32,149.31,119.75,121.19,149.94-29.95,312.17,8.82,425.36c.46,1.34,1.5,3.93,6.12,13.14C55.82,520.08,154.47,670.43,213.4,647.06c34.26-13.59,17.67-71.08,56.69-100,65.46-48.6,159,92,236.62,38.57C544,559.92,582.39,502,578.18,443.16Z"/><path class="cls-4" d="M578.18,443.16C570.6,337,430.23,313.3,427.83,208.77c-1.35-59,42.6-87.43,27.11-136.49C439.9,24.61,385.2,9.52,376.07,7,279.24-19.7,187,79.32,149.31,119.75,121.19,149.94-29.95,312.17,8.82,425.36c.46,1.34,1.5,3.93,6.12,13.14C55.82,520.08,154.47,670.43,213.4,647.06c34.26-13.59,17.67-71.08,56.69-100,65.46-48.6,159,92,236.62,38.57C544,559.92,582.39,502,578.18,443.16Z"/></g><g id="Tema2"><path class="cls-5" d="M-234,307.26c-28.63,21.2-60.15,44.53-68.32,74.56-9.29,34.16,15,64.59,33.64,96.27,48.7,82.71,82.89,214.25,45.26,259-42.28,50.3-190.38,9-285.3-62C-632.48,582.6-661.19,443-669.08,401.52c-13-68.6-41.58-218.6,58.32-328.17,101.14-110.93,268.08-108.19,370-61.71,31.59,14.41,93.87,42.81,110.48,105C-114.54,175.54-145,245-187.56,278-202.64,289.61-207.87,287.88-234,307.26Z"/></g><path d="M199.19,294a6.89,6.89,0,0,0-3.62.77,4.3,4.3,0,0,0-1.75,2.13,18,18,0,0,0-.88,3.2,8.46,8.46,0,0,1-1.25-.1,3.32,3.32,0,0,1-1.15-.35q.41-2.1.6-4.2c.13-1.4.2-2.67.2-3.8l3.43.1c1.35,0,2.81.05,4.4.05h9.9c1.61,0,3.1,0,4.47-.05s2.5-.07,3.4-.1c0,1.2,0,2.43,0,3.7s.14,2.7.27,4.3a4.21,4.21,0,0,1-1.12.37,5.13,5.13,0,0,1-1.38.08,7,7,0,0,0-1.37-4.53,5.3,5.3,0,0,0-4.28-1.57Zm2.55-.85h4.7v26.1a8.63,8.63,0,0,0,.3,2.57,2,2,0,0,0,1.15,1.3,7.53,7.53,0,0,0,2.45.48,3.47,3.47,0,0,1,.2.92c0,.35.05.76.05,1.23-1.07-.07-2.16-.11-3.27-.13l-3.28,0-2.22,0-2.28.05-2,.08c0-.47,0-.88,0-1.23a3.47,3.47,0,0,1,.2-.92,7.86,7.86,0,0,0,2.48-.48,2.12,2.12,0,0,0,1.2-1.3,8.22,8.22,0,0,0,.32-2.57Z"/><path d="M220,291.64c.5,0,1.13.06,1.88.07l2.37.05,2.38,0h1.77v26.9a9.15,9.15,0,0,0,.35,2.85,2.23,2.23,0,0,0,1.35,1.4,7.92,7.92,0,0,0,2.85.4v2.25h-3.22l-3.7,0-3.48.05c-1.07,0-1.92,0-2.55.08,0-.47,0-.88.05-1.23a3.47,3.47,0,0,1,.2-.92,5.39,5.39,0,0,0,2.1-.5,2.22,2.22,0,0,0,1.05-1.43,11.16,11.16,0,0,0,.3-3V298.14a8.67,8.67,0,0,0-.3-2.6,2.19,2.19,0,0,0-1.05-1.3,4.82,4.82,0,0,0-2.1-.45,3.6,3.6,0,0,1-.2-1C220.06,292.43,220,292,220,291.64Zm22.45,0c.07.73.15,1.58.25,2.55s.22,1.92.35,2.85.28,1.77.45,2.5a2.15,2.15,0,0,1-1,.47,5.66,5.66,0,0,1-1.28.13,8.07,8.07,0,0,0-.8-3,5.5,5.5,0,0,0-2.42-2.4,10.55,10.55,0,0,0-5-.95h-5.7l1.05-2q3.94,0,6.78,0c1.88,0,3.43,0,4.65-.07S242,291.64,242.49,291.64Zm-3,11.45c0,.83-.06,1.73-.07,2.7s0,1.88,0,2.75,0,1.83,0,2.9,0,2,.07,2.9c-.43,0-.83,0-1.2,0a6.06,6.06,0,0,1-1.1-.2c-.13-1.73-.59-2.91-1.37-3.53s-2.21-.92-4.28-.92H228v-2.15h3.6a8.29,8.29,0,0,0,4.3-.8c.8-.53,1.22-1.62,1.25-3.25a7.87,7.87,0,0,1,1.2-.28A9,9,0,0,1,239.54,303.09Zm3.5,14a5.56,5.56,0,0,1,1.25.47,4.55,4.55,0,0,1,1,.73,29.42,29.42,0,0,0-.92,3.7q-.37,2-.63,3.75c-.63,0-1.49-.05-2.57-.05l-3.7,0-4.43,0v-2.25h.3a15.34,15.34,0,0,0,5.43-.73,5.56,5.56,0,0,0,2.72-2.12A15.89,15.89,0,0,0,243,317Z"/><path d="M269.14,326l-12.05-26.2h.5l-1.7,17a18.67,18.67,0,0,0,0,4.07,2.75,2.75,0,0,0,1,2,4.72,4.72,0,0,0,2.27.73,5.27,5.27,0,0,1,.2,1.15c0,.43.05.77.05,1-.8-.07-1.71-.11-2.72-.13l-2.63,0-1.62,0-1.8.05-1.58.08c0-.23,0-.57.05-1a5.27,5.27,0,0,1,.2-1.15,4.74,4.74,0,0,0,2.13-.68,3.63,3.63,0,0,0,1.22-2,24.18,24.18,0,0,0,.7-4.55l1.6-17.8a8.78,8.78,0,0,0-.12-2.83,2.35,2.35,0,0,0-1-1.47,4.4,4.4,0,0,0-2.18-.45,5.13,5.13,0,0,1-.2-1.1c0-.4,0-.75,0-1.05.33,0,.72.06,1.15.07l1.35.05,1.3,0c.43,0,.86,0,1.28,0l1.25-.05c.41,0,.84,0,1.27-.07L272,320.59h-1.1l11.4-28.95c.4,0,.82.06,1.25.07l1.33.05,1.32,0c.43,0,.86,0,1.28,0l1.25-.05c.41,0,.84,0,1.27-.07,0,.33,0,.68-.05,1.05a6.06,6.06,0,0,1-.2,1.1,3.57,3.57,0,0,0-2.72,1c-.65.69-.88,2-.68,4l1.8,18.35a22,22,0,0,0,.65,3.8,3.58,3.58,0,0,0,1.13,1.9,3.51,3.51,0,0,0,1.87.65,5.13,5.13,0,0,1,.2,1.1c0,.4,0,.77,0,1.1l-1.35-.08-1.57-.05-1.6,0h-1.48l-2,0-2.17.05-1.93.08a8.71,8.71,0,0,1,.08-1.05,6.69,6.69,0,0,1,.22-1.1,5.12,5.12,0,0,0,2.33-.65,2.24,2.24,0,0,0,.85-1.7,16.87,16.87,0,0,0-.13-3.4l-1.9-18.2H282l-10.8,26.05a3.83,3.83,0,0,1-.95.27A7.37,7.37,0,0,1,269.14,326Z"/><path d="M311.74,291.49l11.9,27.3c.57,1.23,1,2.18,1.4,2.85a4,4,0,0,0,1.13,1.4,3.39,3.39,0,0,0,1.32.55,6.13,6.13,0,0,1,.25,1.1c0,.3.05.65.05,1.05-.33,0-.85-.06-1.55-.08l-2.2-.05-2,0-1.4,0-1.65.05-1.52,0-1.08,0a8.53,8.53,0,0,1,.08-1.15,3.76,3.76,0,0,1,.27-1q2.06-.25,2.43-.93t-.63-3l-6.95-16.25c-.43-1-.82-1.95-1.15-2.75s-.73-1.82-1.2-3.05h.25c-.4,1.27-.76,2.34-1.07,3.22s-.63,1.73-.93,2.53l-5.7,14.85c-.73,2-1,3.32-.67,4.07s1.1,1.18,2.47,1.28a3.76,3.76,0,0,1,.28,1,8.56,8.56,0,0,1,.07,1.15c-.37,0-.82-.06-1.35-.08l-1.67-.05-1.73,0c-.83,0-1.62,0-2.35.05s-1.33.07-1.8.1a8.6,8.6,0,0,1,.08-1.08,3.81,3.81,0,0,1,.27-1,3.48,3.48,0,0,0,1.5-.7,5.27,5.27,0,0,0,1.18-1.63c.38-.75.82-1.77,1.32-3.07l10.35-26.55a8.93,8.93,0,0,1,.93-.15A9.63,9.63,0,0,1,311.74,291.49Zm4.55,20.85.45,2.25q-3.35,0-7.17.05t-6.93.15l.8-2.45Z"/><path d="M348.84,334.14a13.32,13.32,0,0,1-4.33-.65,9,9,0,0,1-3-1.6,2.32,2.32,0,0,1,.17-.83,3.09,3.09,0,0,1,.53-.82,8.22,8.22,0,0,0,2.25.92,14.58,14.58,0,0,0,4.1.48,9.48,9.48,0,0,0,3.92-.88,8.18,8.18,0,0,0,3.3-2.62,7,7,0,0,0,1.33-4.35,6.88,6.88,0,0,0-1.8-4.85q-1.8-1.95-5.45-1.95a4.81,4.81,0,0,0-.83.07,2.44,2.44,0,0,0-.77.28,3.56,3.56,0,0,1-.65-.9,1.94,1.94,0,0,1-.25-.85c2-2.53,3.63-4.69,5-6.48s2.48-3.29,3.35-4.52h-6.1a8.32,8.32,0,0,0-2.3.25,2.57,2.57,0,0,0-1.38,1,8.91,8.91,0,0,0-1,2.28,4.23,4.23,0,0,1-1.07-.15,2.4,2.4,0,0,1-1-.5,21.91,21.91,0,0,0,.48-3.53c0-1.11.07-2.25.07-3.42l2.07,0,2.9.05q1.68,0,3.78,0t3.57,0l2.58-.05,2,0a1.64,1.64,0,0,1,.53.87,3.8,3.8,0,0,1,.07,1.13c-1.1,1.33-2.38,2.91-3.82,4.72s-3,3.81-4.68,6a9.19,9.19,0,0,1,4.68.95,9,9,0,0,1,3.64,3.35,10.28,10.28,0,0,1,1.43,5.6,9.91,9.91,0,0,1-1.6,5.42,11.54,11.54,0,0,1-4.6,4.08A15.43,15.43,0,0,1,348.84,334.14Z"/></svg>