<svg id="Forside" xmlns="http://www.w3.org/2000/svg" viewBox="0 0 581 652"><defs><style>.cls-1{fill:lime;}.cls-2{fill:#8002ff;}.cls-3{fill:#fff;}.cls-4{fill:none;stroke:#000;stroke-miterlimit:10;stroke-width:5px;}</style></defs><g id="Tema5.2"><path class="cls-1" d="M-176,893.36c-57.82-.22-141.19,19.58-160.94,70.7-19.3,49.94,41.88,78.72,41.29,150.13-1,118-169.17,165.34-154.15,242.64,8.82,45.37,74.31,67.81,162,97.85,72.51,24.85,153,52.44,258.86,41,39-4.21,259.57-33,344.16-206.14,38.12-78,33.12-153.63,29.91-181.57-5.05-43.9-14.27-124-68-154.89C217.31,918.84,173.7,986.3,65,978.33-47.13,970.11-63.36,893.78-176,893.36Z"/></g><g id="Tema4"><path class="cls-2" d="M1479,741.34c94.39-74.38,162.16-53.41,180.16-104.56,9.43-26.81-3.29-59.75-29.11-124.54-52.33-131.34-82-205.93-141.66-240.53-89.78-52.1-147.13,44.69-237.27-15-59.35-39.27-55.17-94.92-103.22-111.27-81.09-27.61-201.41,94-191,195.84,9.69,94.82,127.36,120.47,138.75,243.17,3.58,38.6-5.14,67.64,12.06,114.83a214.49,214.49,0,0,0,61.82,88.91c80.34,69.24,191.62,48.45,261.4-2.12C1456.31,767.73,1447.15,766.46,1479,741.34Z"/></g><g id="Tema3"><path class="cls-3" d="M578.18,443.16C570.6,337,430.23,313.3,427.83,208.77c-1.35-59,42.6-87.43,27.11-136.49C439.9,24.61,385.2,9.52,376.07,7,279.24-19.7,187,79.32,149.31,119.75,121.19,149.94-29.95,312.17,8.82,425.36c.46,1.34,1.5,3.93,6.12,13.14C55.82,520.08,154.47,670.43,213.4,647.06c34.26-13.59,17.67-71.08,56.69-100,65.46-48.6,159,92,236.62,38.57C544,559.92,582.39,502,578.18,443.16Z"/><path class="cls-4" d="M578.18,443.16C570.6,337,430.23,313.3,427.83,208.77c-1.35-59,42.6-87.43,27.11-136.49C439.9,24.61,385.2,9.52,376.07,7,279.24-19.7,187,79.32,149.31,119.75,121.19,149.94-29.95,312.17,8.82,425.36c.46,1.34,1.5,3.93,6.12,13.14C55.82,520.08,154.47,670.43,213.4,647.06c34.26-13.59,17.67-71.08,56.69-100,65.46-48.6,159,92,236.62,38.57C544,559.92,582.39,502,578.18,443.16Z"/></g></svg>