<svg id="Forside" xmlns="http://www.w3.org/2000/svg" viewBox="0 0 613.13 688.07"><defs><style>.cls-1{fill:#8002ff;}.cls-2{fill:#fff;}</style></defs><path class="cls-1" d="M.34,219.44c8.07,112.93,157.49,138.1,160,249.27,1.44,62.78-45.34,93-28.86,145.15,16,50.69,74.24,66.74,84,69.41,103.07,28.41,201.27-76.9,241.37-119.9,29.94-32.1,190.82-204.63,149.55-325-.49-1.43-1.6-4.18-6.51-14C556.37,137.63,451.36-22.26,388.64,2.59,352.16,17.05,369.83,78.19,328.29,109,258.61,160.68,159,11.12,76.42,68,36.78,95.27-4.14,156.86.34,219.44Z"/><path class="cls-2" d="M179.66,308.16c0-.47,0-.87.05-1.22a4,4,0,0,1,.2-.93,5.83,5.83,0,0,0,2.1-.47,2.11,2.11,0,0,0,1.05-1.3,8.75,8.75,0,0,0,.3-2.58v-21.1a8.67,8.67,0,0,0-.3-2.6,2.19,2.19,0,0,0-1.05-1.3,4.82,4.82,0,0,0-2.1-.45,4,4,0,0,1-.2-.95c0-.37-.05-.77-.05-1.2,1.3.07,2.56.11,3.78.13l3,0,2,0,2.52-.05,1.85,0a14,14,0,0,1,6.65,1.35,8.18,8.18,0,0,1,3.6,3.55,10.65,10.65,0,0,1,1.1,4.8,12.55,12.55,0,0,1-1.27,5.5,10.54,10.54,0,0,1-10.08,6.05,9.59,9.59,0,0,1-3.5-.55,6.53,6.53,0,0,1-.1-1.05,3.52,3.52,0,0,1,.15-1,10.84,10.84,0,0,0,2.65.3,8.91,8.91,0,0,0,3.45-.65,5.33,5.33,0,0,0,2.6-2.32,9.5,9.5,0,0,0,1-4.83,10.1,10.1,0,0,0-2-6.47q-2-2.48-6.48-2.48a12.68,12.68,0,0,0-1.27.08,17.5,17.5,0,0,0-2,.37l.75-.75v24.65a9.22,9.22,0,0,0,.45,3.28,2.68,2.68,0,0,0,1.45,1.55,8.12,8.12,0,0,0,2.55.52,3.55,3.55,0,0,1,.2.93,11,11,0,0,1,0,1.22c-.5,0-1.09-.06-1.77-.07l-2.18,0c-.77,0-1.55,0-2.35,0l-2.5,0-2.5,0C180.7,308.1,180.1,308.13,179.66,308.16Z"/><path class="cls-2" d="M224.16,308.46a16.08,16.08,0,0,1-8.65-2.3,15.88,15.88,0,0,1-5.77-6.25,18.76,18.76,0,0,1-2.08-8.9,18.49,18.49,0,0,1,1.28-7,16.67,16.67,0,0,1,3.52-5.45,15.88,15.88,0,0,1,5.25-3.55,17.56,17.56,0,0,1,15,.93,15.6,15.6,0,0,1,5.87,6.05,18.21,18.21,0,0,1,2.15,9,19.32,19.32,0,0,1-1.2,6.88,16.79,16.79,0,0,1-3.42,5.55,16.09,16.09,0,0,1-5.25,3.7A16.56,16.56,0,0,1,224.16,308.46Zm1-2.45a8.8,8.8,0,0,0,5.58-1.82,11.61,11.61,0,0,0,3.57-4.95,18.39,18.39,0,0,0,1.25-6.93,20,20,0,0,0-1.62-8.17,14.65,14.65,0,0,0-4.43-5.83,10.23,10.23,0,0,0-6.4-2.15,8.78,8.78,0,0,0-5.27,1.68,11.26,11.26,0,0,0-3.68,4.72,17.43,17.43,0,0,0-1.35,7.1,23.36,23.36,0,0,0,.8,6.1A17.25,17.25,0,0,0,216,301a12.12,12.12,0,0,0,3.87,3.65A10.29,10.29,0,0,0,225.16,306Z"/><path class="cls-2" d="M269.31,308.46q-1.5-2-2.62-3.65c-.75-1.1-1.65-2.46-2.68-4.1-.67-1.07-1.31-2-1.92-2.92a24.6,24.6,0,0,0-2.23-2.73,37.22,37.22,0,0,0-3.35-3.1l1.3.65c-.87,0-1.67.05-2.4.05s-1.43,0-2.1-.05v-2.35c.47.07.9.12,1.3.15s.82,0,1.25,0a15,15,0,0,0,4.95-.77,7.54,7.54,0,0,0,3.5-2.43,6.65,6.65,0,0,0,1.3-4.25,6.51,6.51,0,0,0-1.87-4.82q-1.87-1.87-6.38-1.88a20.52,20.52,0,0,0-2.05.1,16.4,16.4,0,0,0-1.9.35l.25-.95v25.85a8.75,8.75,0,0,0,.3,2.58,2.09,2.09,0,0,0,1.08,1.3,5.86,5.86,0,0,0,2.07.47,4.28,4.28,0,0,1,.2,1c0,.38.05.75.05,1.12-.73-.07-1.49-.11-2.27-.12l-2.18,0h-1.65l-3.07,0c-1.19,0-2.16,0-2.93.12,0-.37,0-.73.05-1.1a5.13,5.13,0,0,1,.2-1.05,5.83,5.83,0,0,0,2.1-.47,2.11,2.11,0,0,0,1-1.3,8.75,8.75,0,0,0,.3-2.58v-21.1a8.86,8.86,0,0,0-.3-2.62,2.2,2.2,0,0,0-1-1.33,4.61,4.61,0,0,0-2.1-.4,5.06,5.06,0,0,1-.2-1c0-.33-.05-.7-.05-1.1l1.48,0,2.15.05,2.17,0,3,0,2.85-.05,2,0a17.51,17.51,0,0,1,6.83,1.1,7.63,7.63,0,0,1,3.65,3,8,8,0,0,1,1.12,4.17,8.63,8.63,0,0,1-1.07,4.33,9.05,9.05,0,0,1-3.1,3.15,15.55,15.55,0,0,1-4.88,1.92l.25-.6a21.6,21.6,0,0,1,2,1.63,16.47,16.47,0,0,1,1.55,1.67c.48.6,1,1.31,1.55,2.13s1.19,1.8,1.92,3a30.06,30.06,0,0,0,2.65,3.48,8,8,0,0,0,6,2.82c0,.4,0,.77,0,1.1a5.25,5.25,0,0,1-.18,1.05c-1.23,0-2.54,0-3.92.08A31.61,31.61,0,0,0,269.31,308.46Z"/><path class="cls-2" d="M283.06,276.41a6.78,6.78,0,0,0-3.62.78,4.24,4.24,0,0,0-1.75,2.12,18,18,0,0,0-.88,3.2,8.46,8.46,0,0,1-1.25-.1,3.12,3.12,0,0,1-1.15-.35q.4-2.1.6-4.2c.13-1.4.2-2.67.2-3.8.93,0,2.08.07,3.43.1s2.81,0,4.4,0h9.9c1.61,0,3.1,0,4.47,0s2.5-.06,3.4-.1c0,1.2,0,2.43,0,3.7s.14,2.7.27,4.3a4.61,4.61,0,0,1-1.12.38,5.6,5.6,0,0,1-1.38.07,7,7,0,0,0-1.37-4.52,5.31,5.31,0,0,0-4.28-1.58Zm2.55-.85h4.7v26.1a8.75,8.75,0,0,0,.3,2.58,2,2,0,0,0,1.15,1.3,7.56,7.56,0,0,0,2.45.47,3.55,3.55,0,0,1,.2.93c0,.35,0,.75,0,1.22q-1.6-.11-3.27-.12l-3.28,0-2.22,0-2.28,0c-.73,0-1.42,0-2.05.07,0-.47,0-.87.05-1.22a3.55,3.55,0,0,1,.2-.93,7.89,7.89,0,0,0,2.48-.47,2.15,2.15,0,0,0,1.2-1.3,8.33,8.33,0,0,0,.32-2.58Z"/><path class="cls-2" d="M303.91,308.16c0-.47,0-.87,0-1.22a3.55,3.55,0,0,1,.2-.93,5.83,5.83,0,0,0,2.1-.47,2.11,2.11,0,0,0,1.05-1.3,8.75,8.75,0,0,0,.3-2.58v-21.1a8.67,8.67,0,0,0-.3-2.6,2.19,2.19,0,0,0-1.05-1.3,4.82,4.82,0,0,0-2.1-.45,3.53,3.53,0,0,1-.2-.95c0-.37,0-.77,0-1.2.57,0,1.2.06,1.9.08l2.23.05,2.27,0h2v26.45a9.22,9.22,0,0,0,.45,3.28,2.68,2.68,0,0,0,1.45,1.55,8.12,8.12,0,0,0,2.55.52,3.55,3.55,0,0,1,.2.93c0,.35.05.75.05,1.22-.5,0-1.09-.06-1.77-.07l-2.18,0c-.77,0-1.55,0-2.35,0l-3.77,0Q304.91,308.06,303.91,308.16Zm21-25.6a8.07,8.07,0,0,0-.8-3,5.55,5.55,0,0,0-2.42-2.4,10.55,10.55,0,0,0-5-1h-5.7l1.1-2,6.78,0c1.88,0,3.42-.05,4.62-.08s2.07-.05,2.6-.05c.07.73.15,1.58.25,2.55s.22,1.92.35,2.85.28,1.77.45,2.5a2.27,2.27,0,0,1-1,.48A6.33,6.33,0,0,1,325,282.56Zm-1.25,15.2c-.43,0-.83,0-1.2-.05a6.06,6.06,0,0,1-1.1-.2c-.13-1.73-.59-2.91-1.37-3.52s-2.21-.93-4.28-.93h-3.6v-2.15h3.6a8.29,8.29,0,0,0,4.3-.8c.8-.53,1.22-1.62,1.25-3.25a7.77,7.77,0,0,1,1.2-.27,9,9,0,0,1,1.2-.08c0,.84-.06,1.73-.07,2.7s0,1.89,0,2.75,0,1.83,0,2.9S323.68,296.89,323.71,297.76Z"/><path class="cls-2" d="M347.41,308.46a16.08,16.08,0,0,1-8.65-2.3,15.88,15.88,0,0,1-5.77-6.25,18.76,18.76,0,0,1-2.08-8.9,18.49,18.49,0,0,1,1.28-7,16.67,16.67,0,0,1,3.52-5.45A15.88,15.88,0,0,1,341,275a17.56,17.56,0,0,1,15,.93,15.6,15.6,0,0,1,5.87,6.05,18.32,18.32,0,0,1,2.15,9,19.32,19.32,0,0,1-1.2,6.88,16.79,16.79,0,0,1-3.42,5.55,16.09,16.09,0,0,1-5.25,3.7A16.56,16.56,0,0,1,347.41,308.46Zm1-2.45a8.8,8.8,0,0,0,5.58-1.82,11.61,11.61,0,0,0,3.57-4.95,18.58,18.58,0,0,0,1.25-6.93,20,20,0,0,0-1.62-8.17,14.65,14.65,0,0,0-4.43-5.83,10.25,10.25,0,0,0-6.4-2.15,8.76,8.76,0,0,0-5.27,1.68,11.26,11.26,0,0,0-3.68,4.72,17.43,17.43,0,0,0-1.35,7.1,23.36,23.36,0,0,0,.8,6.1,17,17,0,0,0,2.38,5.25,12.12,12.12,0,0,0,3.87,3.65A10.27,10.27,0,0,0,348.41,306Z"/><path class="cls-2" d="M381.76,305.76a12.93,12.93,0,0,0,4.4-.6,5.32,5.32,0,0,0,2.58-2,15.22,15.22,0,0,0,1.77-3.7,5.54,5.54,0,0,1,1.25.48,4.18,4.18,0,0,1,.95.72,29.42,29.42,0,0,0-.92,3.7q-.37,2-.63,3.75c-.63,0-1.47-.05-2.52-.05l-3.45,0-3.73,0h-3.22l-3.7,0-3.48,0c-1.07,0-1.92,0-2.55.07,0-.47,0-.87.05-1.22a3.55,3.55,0,0,1,.2-.93,5.39,5.39,0,0,0,2.1-.5,2.33,2.33,0,0,0,1.08-1.42,10.75,10.75,0,0,0,.32-3V280.56a8.67,8.67,0,0,0-.3-2.6,2.19,2.19,0,0,0-1-1.3,4.82,4.82,0,0,0-2.1-.45,3.6,3.6,0,0,1-.2-1c0-.39-.05-.78-.05-1.18.67,0,1.38.06,2.13.08l2.17.05,1.75,0,2.1,0,2-.05c.65,0,1.3,0,2-.08,0,.43,0,.83-.05,1.2a3.53,3.53,0,0,1-.2.95,4.81,4.81,0,0,0-2.07.45,2.19,2.19,0,0,0-1.08,1.35,9.38,9.38,0,0,0-.3,2.7v20.4a9.11,9.11,0,0,0,.35,2.85,2.23,2.23,0,0,0,1.33,1.4,7.67,7.67,0,0,0,2.82.4Z"/><path class="cls-2" d="M400.21,280.56a8.67,8.67,0,0,0-.3-2.6,2.19,2.19,0,0,0-1.05-1.3,4.82,4.82,0,0,0-2.1-.45,3.53,3.53,0,0,1-.2-.95c0-.37-.05-.77-.05-1.2.63,0,1.28.06,1.93.08l2,.05,2.1,0,2.1,0,2-.05c.65,0,1.3,0,2-.08,0,.43,0,.83-.05,1.2a3.53,3.53,0,0,1-.2.95,4.81,4.81,0,0,0-2.07.45,2.17,2.17,0,0,0-1.08,1.3,8.67,8.67,0,0,0-.3,2.6v21.1a8.75,8.75,0,0,0,.3,2.58,2.09,2.09,0,0,0,1.08,1.3,5.86,5.86,0,0,0,2.07.47,3.55,3.55,0,0,1,.2.93c0,.35.05.75.05,1.22-1-.07-2-.11-3.05-.12l-3,0-3.1,0c-1.1,0-2.08,0-2.95.12,0-.47,0-.87.05-1.22a3.55,3.55,0,0,1,.2-.93,5.83,5.83,0,0,0,2.1-.47,2.11,2.11,0,0,0,1.05-1.3,8.75,8.75,0,0,0,.3-2.58Z"/><path class="cls-2" d="M429.66,308.46a15.67,15.67,0,0,1-14.43-8.55,18.87,18.87,0,0,1-2.07-8.9,18.49,18.49,0,0,1,1.27-7,16.69,16.69,0,0,1,3.53-5.45,15.88,15.88,0,0,1,5.25-3.55,17.54,17.54,0,0,1,15,.93,15.55,15.55,0,0,1,5.88,6.05,18.32,18.32,0,0,1,2.15,9,19.32,19.32,0,0,1-1.2,6.88,16.65,16.65,0,0,1-3.43,5.55,15.88,15.88,0,0,1-5.25,3.7A16.48,16.48,0,0,1,429.66,308.46Zm1-2.45a8.77,8.77,0,0,0,5.57-1.82,11.63,11.63,0,0,0,3.58-4.95,18.58,18.58,0,0,0,1.25-6.93,19.87,19.87,0,0,0-1.63-8.17,14.54,14.54,0,0,0-4.42-5.83,10.25,10.25,0,0,0-6.4-2.15,8.79,8.79,0,0,0-5.28,1.68,11.24,11.24,0,0,0-3.67,4.72,17.43,17.43,0,0,0-1.35,7.1,23.36,23.36,0,0,0,.8,6.1,17,17,0,0,0,2.37,5.25,12.15,12.15,0,0,0,3.88,3.65A10.27,10.27,0,0,0,430.66,306Z"/></svg>