<svg id="Forside" xmlns="http://www.w3.org/2000/svg" viewBox="0 0 706 691"><defs><style>.cls-1{fill:#f0f;}.cls-2{fill:#8002ff;}.cls-3{fill:#fff;}.cls-4{fill:none;stroke:#000;stroke-miterlimit:10;stroke-width:5px;}.cls-5{fill:#f8ce00;}</style></defs><g id="Tema5.2"><path class="cls-1" d="M49.73,829.86c-57.82-.22-141.19,19.58-160.95,70.7-19.3,49.94,41.88,78.72,41.3,150.13-1,118-169.17,165.34-154.15,242.64,8.82,45.37,74.31,67.81,162,97.85,72.51,24.85,153,52.44,258.86,41,39-4.21,259.57-33,344.16-206.14,38.12-78,33.12-153.63,29.91-181.57-5.05-43.9-14.27-124-68-154.89C443,855.34,399.41,922.8,290.69,914.83,178.58,906.61,162.35,830.28,49.73,829.86Z"/></g><g id="Tema4"><path class="cls-2" d="M522.74,599.84c94.38-74.38,162.15-53.41,180.15-104.56,9.44-26.81-3.28-59.75-29.1-124.54-52.33-131.34-82-205.93-141.67-240.53-89.78-52.1-147.12,44.69-237.26-15C235.51,76,239.69,20.33,191.64,4,110.55-23.63-9.77,98,.63,199.82,10.32,294.64,128,320.29,139.37,443c3.59,38.6-5.13,67.64,12.07,114.83a214.49,214.49,0,0,0,61.82,88.91c80.33,69.24,191.61,48.45,261.4-2.12C500,626.23,490.86,625,522.74,599.84Z"/></g><g id="Tema3"><path class="cls-3" d="M-110.11,462.66c-7.58-106.19-148-129.86-150.35-234.39-1.35-59,42.59-87.43,27.11-136.49-15-47.67-69.75-62.76-78.87-65.27C-409.06-.2-501.31,98.82-539,139.25c-28.12,30.19-179.26,192.42-140.49,305.61.46,1.34,1.5,3.93,6.12,13.14,40.88,81.58,139.53,231.93,198.46,208.56,34.26-13.59,17.67-71.08,56.69-100,65.46-48.6,159,92,236.61,38.57C-144.34,579.42-105.9,521.5-110.11,462.66Z"/><path class="cls-4" d="M-110.11,462.66c-7.58-106.19-148-129.86-150.35-234.39-1.35-59,42.59-87.43,27.11-136.49-15-47.67-69.75-62.76-78.87-65.27C-409.06-.2-501.31,98.82-539,139.25c-28.12,30.19-179.26,192.42-140.49,305.61.46,1.34,1.5,3.93,6.12,13.14,40.88,81.58,139.53,231.93,198.46,208.56,34.26-13.59,17.67-71.08,56.69-100,65.46-48.6,159,92,236.61,38.57C-144.34,579.42-105.9,521.5-110.11,462.66Z"/></g><g id="Tema2"><path class="cls-5" d="M-922.34,326.76c-28.64,21.2-60.15,44.53-68.32,74.56-9.29,34.16,15,64.59,33.64,96.27,48.7,82.71,82.88,214.25,45.26,259-42.28,50.3-190.38,9-285.3-62C-1320.77,602.1-1349.48,462.52-1357.37,421c-13.05-68.6-41.58-218.6,58.32-328.17C-1197.91-18.08-1031-15.34-929,31.14c31.58,14.41,93.87,42.81,110.48,105,15.72,58.88-14.74,128.38-57.3,161.29C-890.93,309.11-896.17,307.38-922.34,326.76Z"/></g><path class="cls-3" d="M278.65,313.42a6.85,6.85,0,0,0-3.63.78,4.33,4.33,0,0,0-1.75,2.12,18.08,18.08,0,0,0-.87,3.2,8.46,8.46,0,0,1-1.25-.1,3.12,3.12,0,0,1-1.15-.35q.4-2.1.6-4.2c.13-1.4.2-2.66.2-3.8.93,0,2.07.07,3.43.1s2.81.05,4.39.05h9.9c1.62,0,3.11,0,4.48-.05s2.5-.06,3.4-.1c0,1.2,0,2.44,0,3.7s.15,2.7.28,4.3a4.22,4.22,0,0,1-1.12.38,5.15,5.15,0,0,1-1.38.07,7,7,0,0,0-1.37-4.52,5.31,5.31,0,0,0-4.28-1.58Zm2.55-.85h4.7v26.1a8.75,8.75,0,0,0,.3,2.58,2,2,0,0,0,1.15,1.3,7.3,7.3,0,0,0,2.45.47,3.55,3.55,0,0,1,.2.93c0,.35.05.76.05,1.22-1.07-.06-2.16-.1-3.28-.12l-3.27,0-2.23,0-2.27.05-2.05.07c0-.46,0-.87.05-1.22a3.55,3.55,0,0,1,.2-.93,7.49,7.49,0,0,0,2.47-.47,2.07,2.07,0,0,0,1.2-1.3,8,8,0,0,0,.33-2.58Z"/><path class="cls-3" d="M299.5,311.07c.5,0,1.12.06,1.87.08l2.38.05c.83,0,1.62,0,2.37,0h1.78v26.9a9.06,9.06,0,0,0,.35,2.85,2.21,2.21,0,0,0,1.35,1.4,7.92,7.92,0,0,0,2.85.4V345h-3.22l-3.7,0-3.48.05c-1.07,0-1.92,0-2.55.07,0-.46,0-.87.05-1.22a3.55,3.55,0,0,1,.2-.93,5.22,5.22,0,0,0,2.1-.5,2.2,2.2,0,0,0,1-1.42,11.25,11.25,0,0,0,.3-3V317.57a8.67,8.67,0,0,0-.3-2.6,2.19,2.19,0,0,0-1-1.3,5.13,5.13,0,0,0-2.1-.45,3.52,3.52,0,0,1-.2-1C299.52,311.87,299.5,311.47,299.5,311.07Zm22.45,0c.07.74.15,1.59.25,2.55s.22,1.92.35,2.85.28,1.77.45,2.5a2.07,2.07,0,0,1-1,.48,6.33,6.33,0,0,1-1.28.12,8.07,8.07,0,0,0-.8-3,5.6,5.6,0,0,0-2.42-2.4,10.58,10.58,0,0,0-5-.95h-5.7l1-2c2.63,0,4.89,0,6.78,0s3.43,0,4.65-.08S321.42,311.07,322,311.07ZM319,322.52c0,.84-.06,1.74-.07,2.7s0,1.89,0,2.75,0,1.84,0,2.9,0,2,.07,2.9a11.32,11.32,0,0,1-1.2,0,6.06,6.06,0,0,1-1.1-.2c-.13-1.73-.59-2.9-1.37-3.52s-2.21-.93-4.28-.93h-3.6v-2.15h3.6a8.19,8.19,0,0,0,4.3-.8c.8-.53,1.22-1.61,1.25-3.25a7.77,7.77,0,0,1,1.2-.27A9,9,0,0,1,319,322.52Zm3.5,14a6.06,6.06,0,0,1,1.25.48,4.18,4.18,0,0,1,.95.72,29.86,29.86,0,0,0-.92,3.7q-.37,2-.63,3.75c-.63,0-1.49-.05-2.57-.05s-2.32,0-3.71,0-2.85,0-4.42,0v-2.25h.3a15.61,15.61,0,0,0,5.43-.72,5.52,5.52,0,0,0,2.72-2.13A15.89,15.89,0,0,0,322.5,336.47Z"/><path class="cls-3" d="M348.6,345.47l-12.05-26.2h.5l-1.7,17a18.76,18.76,0,0,0-.05,4.08,2.72,2.72,0,0,0,1,2,4.79,4.79,0,0,0,2.27.72,5.38,5.38,0,0,1,.2,1.15c0,.44.05.77.05,1q-1.2-.09-2.73-.12l-2.62,0-1.63,0-1.79.05-1.58.07c0-.23,0-.56.05-1a5.38,5.38,0,0,1,.2-1.15,4.65,4.65,0,0,0,2.12-.67,3.61,3.61,0,0,0,1.23-2,24,24,0,0,0,.7-4.55l1.6-17.8a8.38,8.38,0,0,0-.13-2.82,2.32,2.32,0,0,0-1-1.48,4.4,4.4,0,0,0-2.18-.45,5.13,5.13,0,0,1-.2-1.1c0-.4-.05-.75-.05-1.05.33,0,.72.06,1.15.08l1.35.05c.47,0,.9,0,1.3,0s.86,0,1.27,0l1.25-.05c.42,0,.85,0,1.28-.08L351.5,340h-1.1l11.4-28.95c.4,0,.82.06,1.25.08l1.32.05c.46,0,.9,0,1.33,0s.86,0,1.28,0l1.25-.05c.41,0,.84,0,1.27-.08,0,.34,0,.69-.05,1.05a5.91,5.91,0,0,1-.2,1.1,3.6,3.6,0,0,0-2.73,1c-.65.68-.87,2-.67,4l1.8,18.35a21.8,21.8,0,0,0,.65,3.8,3.6,3.6,0,0,0,1.12,1.9,3.49,3.49,0,0,0,1.88.65,5.24,5.24,0,0,1,.2,1.1c0,.4.05.77.05,1.1l-1.35-.07-1.58-.05-1.6,0h-1.47l-2,0-2.18.05-1.92.07c0-.3,0-.65.07-1.05a8.19,8.19,0,0,1,.23-1.1,5,5,0,0,0,2.33-.65,2.2,2.2,0,0,0,.84-1.7,16,16,0,0,0-.12-3.4l-1.9-18.2h.55l-10.8,26.05a3.47,3.47,0,0,1-.95.28A7.45,7.45,0,0,1,348.6,345.47Z"/><path class="cls-3" d="M391.2,310.92l11.9,27.3c.57,1.24,1,2.19,1.4,2.85a3.94,3.94,0,0,0,1.13,1.4A3.39,3.39,0,0,0,407,343a6.32,6.32,0,0,1,.25,1.1c0,.3.05.65.05,1.05-.33,0-.85-.05-1.55-.07l-2.2-.05-1.95,0-1.4,0-1.65.05-1.52,0c-.45,0-.81,0-1.08,0A8.53,8.53,0,0,1,396,344a3.87,3.87,0,0,1,.27-1c1.37-.16,2.18-.47,2.43-.92s0-1.44-.63-3l-6.95-16.25c-.43-1-.82-1.95-1.15-2.75s-.73-1.81-1.2-3.05H389c-.4,1.27-.76,2.35-1.07,3.23s-.63,1.72-.93,2.52l-5.7,14.85c-.73,2-1,3.33-.67,4.08s1.1,1.17,2.47,1.27a3.87,3.87,0,0,1,.28,1,8.56,8.56,0,0,1,.07,1.15c-.37,0-.82-.05-1.35-.07l-1.67-.05-1.73,0c-.83,0-1.62,0-2.35.05l-1.8.1a8.32,8.32,0,0,1,.08-1.07,3.88,3.88,0,0,1,.27-1,3.37,3.37,0,0,0,1.5-.7,5.21,5.21,0,0,0,1.18-1.62c.38-.75.82-1.78,1.32-3.08l10.35-26.55.93-.15A9.63,9.63,0,0,1,391.2,310.92Zm4.55,20.85.45,2.25q-3.34,0-7.17.05t-6.93.15l.8-2.45Z"/><path class="cls-3" d="M435,345c-2.53,0-4.86,0-7,.1l-6.37.2a3.87,3.87,0,0,1-.6-.82,2.15,2.15,0,0,1-.3-1.08l17.05-23.7a6.9,6.9,0,0,1,1.25.13,2.62,2.62,0,0,1,1,.37v32.4a8.09,8.09,0,0,0-1.55.2c-.63.14-1.21.28-1.73.43a3.72,3.72,0,0,0-.87.32,1.76,1.76,0,0,1-.43-.72,3.38,3.38,0,0,1-.12-.93V326.07l.95-.35-10.85,16.35-.4-1H444.4a3.61,3.61,0,0,1,.9.1,1.12,1.12,0,0,1,.55.35c-.13.3-.28.67-.43,1.1a11.16,11.16,0,0,0-.35,1.28A6,6,0,0,0,445,345Z"/></svg>