<svg id="Forside" xmlns="http://www.w3.org/2000/svg" viewBox="0 0 613.13 688.07"><defs><style>.cls-1{fill:#8002ff;}.cls-2{fill:none;}</style></defs><path class="cls-1" d="M.34,219.44c8.07,112.93,157.49,138.1,160,249.27,1.44,62.78-45.34,93-28.86,145.15,16,50.69,74.24,66.74,84,69.41,103.07,28.41,201.27-76.9,241.37-119.9,29.94-32.1,190.82-204.63,149.55-325-.49-1.43-1.6-4.18-6.51-14C556.37,137.63,451.36-22.26,388.64,2.59,352.16,17.05,369.83,78.19,328.29,109,258.61,160.68,159,11.12,76.42,68,36.78,95.27-4.14,156.86.34,219.44Z"/><rect class="cls-2" x="-492.37" y="-73.2" width="1161" height="1029"/></svg>