<svg id="Forside" xmlns="http://www.w3.org/2000/svg" viewBox="0 0 706 691"><defs><style>.cls-1{fill:#8002ff;}.cls-2{fill:#f9cf00;}</style></defs><g id="Tema5.1"><path d="M1347.9,134c68.65,7.6,75.65,51.2,125,52.33C1553.77,188.2,1576.54,71.91,1654,72c57,.07,109.16,63.18,126,119.21,21.49,71.55-13.86,133.93-44.75,188.42C1705,433,1648.6,532.51,1527.06,564c-122.4,31.66-222.58-28.56-248-45.14-26.65-17.4-146.06-95.37-137-212.9,4.13-53.71,34.5-108.09,82.71-140.7C1233.1,159.58,1283,126.85,1347.9,134Z"/></g><g id="Tema4"><path class="cls-1" d="M522.74,599.84c94.38-74.38,162.15-53.41,180.15-104.56,9.44-26.81-3.28-59.75-29.1-124.54-52.33-131.34-82-205.93-141.67-240.53-89.78-52.1-147.12,44.69-237.26-15C235.51,76,239.69,20.33,191.64,4,110.55-23.63-9.77,98,.63,199.82,10.32,294.64,128,320.29,139.37,443c3.59,38.6-5.13,67.64,12.07,114.83a214.49,214.49,0,0,0,61.82,88.91c80.33,69.24,191.61,48.45,261.4-2.12C500,626.23,490.86,625,522.74,599.84Z"/></g><g id="Tema2"><path class="cls-2" d="M1213.66-704.24c-28.64,21.2-60.15,44.53-68.32,74.56-9.29,34.16,15,64.59,33.64,96.27,48.7,82.71,82.88,214.25,45.26,259-42.28,50.3-190.38,9-285.3-62C815.23-428.9,786.52-568.48,778.63-610c-13-68.6-41.58-218.6,58.32-328.17,101.14-110.93,268.08-108.19,370-61.71,31.58,14.41,93.87,42.81,110.48,105,15.72,58.88-14.74,128.38-57.3,161.29C1245.07-721.89,1239.83-723.62,1213.66-704.24Z"/></g></svg>