<svg id="Forside" xmlns="http://www.w3.org/2000/svg" viewBox="0 0 1920 1080"><defs><style>.cls-1{fill:none;stroke:#000;stroke-miterlimit:10;opacity:0.7;}</style></defs><path id="Tema6" class="cls-1" d="M584.9,72c320.74,47.31,337.89-26.87,460.6,44C1222.12,218,1238,394.16,1372,395.33c90.65.79,186.47-73,241.58-31.47a34.72,34.72,0,0,1,10.34,13.23C1661.64,457,1514.5,721.55,1322.25,863.4c-37.18,27.43-40.86,21.08-69.6,42.84C1111.49,1013.1,1136.42,1133,1058,1213.5c-108.42,111.34-323.1,53.76-695-46,0,0-166.75-44.73-237.5-125.5-34.06-38.89-71.68-91-71.68-91C40.14,932.11,29,916.48,27.3,913c-73.68-151.89,84.82-279.31,80.59-528.47-1.41-82.71,4.6-138.58-30.47-187.21C66.6,182.33,50.5,165.57,49.5,140c-1.74-44.51,43.67-79.67,57-90C196.65-19.82,367.42,39.94,584.9,72Z"/></svg>