<svg id="Forside" xmlns="http://www.w3.org/2000/svg" viewBox="0 0 798 605"><defs><style>.cls-1{fill:#f0f;}.cls-2{fill:#f8ce00;}</style></defs><g id="Tema5.2"><path class="cls-1" d="M274.75,0C216.93-.21,133.55,19.58,113.8,70.7c-19.3,50,41.88,78.72,41.3,150.13-1,118-169.17,165.34-154.15,242.64,8.82,45.38,74.3,67.82,162,97.86,72.51,24.85,153,52.44,258.87,41,39-4.21,259.57-33,344.16-206.13,38.12-78,33.12-153.64,29.91-181.57-5.05-43.9-14.27-124.06-68-154.89C668,25.48,624.42,93,515.71,85,403.6,76.75,387.37.42,274.75,0Z"/></g><g id="Tema2"><path class="cls-2" d="M-697.32-503.09c-28.64,21.2-60.15,44.53-68.32,74.56-9.3,34.15,15,64.58,33.63,96.27,48.71,82.7,82.89,214.25,45.26,259-42.28,50.3-190.38,9-285.3-62-123.7-92.54-152.41-232.12-160.31-273.61-13-68.61-41.57-218.61,58.33-328.17,101.14-110.94,268.08-108.2,370-61.71,31.59,14.4,93.88,42.81,110.49,105,15.72,58.88-14.74,128.38-57.3,161.29C-665.91-520.75-671.15-522.47-697.32-503.09Z"/></g><path d="M331.92,295.63a6.85,6.85,0,0,0-3.63.78,4.28,4.28,0,0,0-1.75,2.12,18.08,18.08,0,0,0-.87,3.2,8.36,8.36,0,0,1-1.25-.1,3.12,3.12,0,0,1-1.15-.35q.39-2.1.6-4.2c.13-1.4.2-2.66.2-3.8.93,0,2.07.07,3.42.1s2.82.05,4.4.05h9.9c1.62,0,3.11,0,4.48-.05s2.5-.06,3.4-.1c0,1.2,0,2.44,0,3.7s.14,2.7.28,4.3a4.29,4.29,0,0,1-1.13.38,5.08,5.08,0,0,1-1.37.07,7.1,7.1,0,0,0-1.38-4.52,5.28,5.28,0,0,0-4.27-1.58Zm2.55-.85h4.7v26.1a8.75,8.75,0,0,0,.3,2.58,2,2,0,0,0,1.15,1.3,7.25,7.25,0,0,0,2.45.47,4,4,0,0,1,.2.93c0,.35.05.76.05,1.22-1.07-.06-2.16-.11-3.28-.12l-3.27,0-2.23,0-2.27.05-2,.07a11.13,11.13,0,0,1,0-1.22,3.55,3.55,0,0,1,.2-.93,7.55,7.55,0,0,0,2.47-.47,2.12,2.12,0,0,0,1.2-1.3,8,8,0,0,0,.33-2.58Z"/><path d="M352.77,293.28c.5,0,1.12.06,1.87.08l2.38.05c.83,0,1.62,0,2.37,0h1.78v26.9a8.78,8.78,0,0,0,.35,2.85,2.21,2.21,0,0,0,1.35,1.4,7.85,7.85,0,0,0,2.85.4v2.25h-3.23l-3.7,0-3.47.05c-1.07,0-1.92,0-2.55.07a11.13,11.13,0,0,1,.05-1.22,3.55,3.55,0,0,1,.2-.93,5.22,5.22,0,0,0,2.1-.5,2.2,2.2,0,0,0,1.05-1.42,11.25,11.25,0,0,0,.3-3V299.78a8.67,8.67,0,0,0-.3-2.6,2.19,2.19,0,0,0-1.05-1.3,5.13,5.13,0,0,0-2.1-.45,3.52,3.52,0,0,1-.2-1A11.4,11.4,0,0,1,352.77,293.28Zm22.45,0c.06.74.15,1.59.25,2.55s.21,1.92.35,2.85.28,1.77.45,2.5a2.1,2.1,0,0,1-1,.48,6.23,6.23,0,0,1-1.27.12,8.26,8.26,0,0,0-.8-3,5.63,5.63,0,0,0-2.43-2.4,10.54,10.54,0,0,0-5-.95h-5.7l1.05-2c2.63,0,4.89,0,6.77,0s3.43,0,4.65-.08S374.68,293.28,375.22,293.28Zm-3,11.45c0,.84-.06,1.74-.08,2.7s0,1.89,0,2.75,0,1.84,0,2.9,0,2,.08,2.9a11.09,11.09,0,0,1-1.2-.05,5.91,5.91,0,0,1-1.1-.2c-.14-1.73-.6-2.9-1.38-3.52s-2.21-.93-4.27-.93h-3.6v-2.15h3.6a8.21,8.21,0,0,0,4.3-.8c.8-.53,1.21-1.61,1.25-3.25a7.77,7.77,0,0,1,1.2-.27A8.72,8.72,0,0,1,372.27,304.73Zm3.5,13.95a6.29,6.29,0,0,1,1.25.48,4.18,4.18,0,0,1,1,.72,29.82,29.82,0,0,0-.93,3.7c-.25,1.34-.46,2.59-.62,3.75-.64,0-1.5-.05-2.58-.05l-3.7,0c-1.38,0-2.86,0-4.42,0V325h.3a15.55,15.55,0,0,0,5.42-.72,5.5,5.5,0,0,0,2.73-2.13A15.89,15.89,0,0,0,375.77,318.68Z"/><path d="M401.87,327.68l-12.05-26.2h.5l-1.7,16.95a18.14,18.14,0,0,0-.05,4.08,2.75,2.75,0,0,0,1,2,4.87,4.87,0,0,0,2.28.72,6.09,6.09,0,0,1,.2,1.15c0,.44.05.77.05,1-.8-.06-1.71-.11-2.73-.12l-2.62,0-1.63,0-1.8.05-1.57.07c0-.23,0-.56.05-1a5.38,5.38,0,0,1,.2-1.15,4.69,4.69,0,0,0,2.12-.67,3.61,3.61,0,0,0,1.23-2,24,24,0,0,0,.7-4.55l1.6-17.8a8.65,8.65,0,0,0-.13-2.82,2.3,2.3,0,0,0-1.05-1.48,4.36,4.36,0,0,0-2.17-.45,5.13,5.13,0,0,1-.2-1.1,10.42,10.42,0,0,1-.05-1.05c.33,0,.71.06,1.15.08l1.35.05c.46,0,.9,0,1.3,0s.85,0,1.27,0l1.25-.05c.42,0,.84,0,1.28-.08l13.1,29h-1.1l11.4-29c.4,0,.81.06,1.25.08l1.32.05c.45,0,.89,0,1.33,0s.85,0,1.27,0l1.25-.05c.42,0,.84,0,1.28-.08,0,.34,0,.69,0,1.05a6.86,6.86,0,0,1-.2,1.1,3.6,3.6,0,0,0-2.73,1c-.65.68-.87,2-.67,4l1.8,18.35a20.88,20.88,0,0,0,.65,3.8,3.54,3.54,0,0,0,1.12,1.9,3.46,3.46,0,0,0,1.88.65,6,6,0,0,1,.2,1.1c0,.4.05.77.05,1.1l-1.35-.07-1.58-.05-1.6,0h-1.47l-2,0-2.18.05-1.92.07a8.5,8.5,0,0,1,.07-1.05,6.88,6.88,0,0,1,.23-1.1,5,5,0,0,0,2.32-.65,2.21,2.21,0,0,0,.85-1.7,17.49,17.49,0,0,0-.12-3.4l-1.9-18.2h.55l-10.8,26.05a3.47,3.47,0,0,1-.95.28A7.54,7.54,0,0,1,401.87,327.68Z"/><path d="M444.47,293.13l11.9,27.3c.56,1.24,1,2.19,1.4,2.85a3.93,3.93,0,0,0,1.12,1.4,3.44,3.44,0,0,0,1.33.55,7.41,7.41,0,0,1,.25,1.1c0,.3,0,.65,0,1.05-.34,0-.85-.05-1.55-.07l-2.2-.05-1.95,0-1.4,0-1.65.05-1.53.05c-.45,0-.81,0-1.07,0a8.56,8.56,0,0,1,.07-1.15,3.51,3.51,0,0,1,.28-1c1.36-.16,2.17-.47,2.42-.92s0-1.44-.62-3l-6.95-16.25c-.44-1-.82-1.95-1.15-2.75s-.74-1.81-1.2-3.05h.25c-.4,1.27-.76,2.35-1.08,3.23s-.62,1.72-.92,2.52l-5.7,14.85c-.74,2-1,3.33-.68,4.08s1.11,1.17,2.48,1.27a3.87,3.87,0,0,1,.27,1,8.53,8.53,0,0,1,.08,1.15c-.37,0-.82-.05-1.35-.07l-1.68-.05-1.72,0c-.84,0-1.62,0-2.35,0l-1.8.1a8.22,8.22,0,0,1,.07-1.07,3.54,3.54,0,0,1,.28-1,3.37,3.37,0,0,0,1.5-.7,5.05,5.05,0,0,0,1.17-1.62c.38-.75.83-1.78,1.33-3.08l10.35-26.55.92-.15A9.84,9.84,0,0,1,444.47,293.13ZM449,314l.45,2.25q-3.36,0-7.18,0t-6.92.15l.8-2.45Z"/><path d="M492.22,295.33a2.26,2.26,0,0,1,.37.63,2.73,2.73,0,0,1,.13.92,23.85,23.85,0,0,0-8,2.95,12.45,12.45,0,0,0-4.83,5.63,23.76,23.76,0,0,0-1.62,9.57,15.19,15.19,0,0,0,.7,5,8.86,8.86,0,0,0,1.75,3.12,6.35,6.35,0,0,0,2.17,1.63,5.23,5.23,0,0,0,2,.47,4.87,4.87,0,0,0,3.27-1,6.11,6.11,0,0,0,1.8-2.62,9.15,9.15,0,0,0,.58-3.13,8.88,8.88,0,0,0-1.18-5,6.29,6.29,0,0,0-2.82-2.42,8.33,8.33,0,0,0-3.15-.68,8.62,8.62,0,0,0-2.5.38,11.37,11.37,0,0,0-3,1.52v-1.8a21,21,0,0,1,4.1-2.35,10.54,10.54,0,0,1,10.42,1.65c1.68,1.57,2.53,3.84,2.53,6.8a11.91,11.91,0,0,1-.83,4.53,10.5,10.5,0,0,1-2.3,3.5,10.27,10.27,0,0,1-3.37,2.25,10.77,10.77,0,0,1-4.05.77,11.9,11.9,0,0,1-6-1.42,8.89,8.89,0,0,1-3.72-4.2,16.51,16.51,0,0,1-1.25-6.83,23.23,23.23,0,0,1,1.17-7.75,17.09,17.09,0,0,1,3.15-5.57,17.4,17.4,0,0,1,4.43-3.7,20,20,0,0,1,5-2.1A23.64,23.64,0,0,1,492.22,295.33Z"/></svg>