<svg id="Forside" xmlns="http://www.w3.org/2000/svg" viewBox="0 0 1077 434"><defs><style>.cls-1{fill:#f0f;}.cls-2{fill:lime;}</style></defs><path id="Tema6" class="cls-1" d="M408.18.92c211.37-10.41,270.78,139,501.09,117,93.79-8.93,151-40.08,164.92-17.64,21.6,34.76-84.19,160-214.82,231.39-71.35,39-126.55,49-377.73,74.52-392.72,39.85-444,34.19-468.35-3.79-43.63-68,30.61-190,72.25-242.23C202.05,13.94,391.52,1.74,408.18.92Z"/><g id="Tema5.2"><path class="cls-2" d="M1258.54,752.28c-57.82-.21-141.2,19.58-161,70.7-19.3,49.95,41.88,78.72,41.3,150.13-1,118-169.17,165.35-154.15,242.64,8.82,45.38,74.3,67.82,162,97.86,72.51,24.85,153,52.44,258.86,41,39-4.21,259.57-32.94,344.16-206.13,38.12-78,33.12-153.64,29.91-181.57-5.05-43.9-14.27-124.06-68-154.89-59.76-34.27-103.37,33.2-212.09,25.23C1387.39,829,1371.16,752.7,1258.54,752.28Z"/></g></svg>