<svg id="Forside" xmlns="http://www.w3.org/2000/svg" viewBox="0 0 798 605"><defs><style>.cls-1{fill:#f0f;}.cls-2{fill:lime;}</style></defs><g id="Tema5.2"><path class="cls-1" d="M274.75,0C216.93-.21,133.55,19.58,113.8,70.7c-19.3,50,41.88,78.72,41.3,150.13-1,118-169.17,165.34-154.15,242.64,8.82,45.38,74.3,67.82,162,97.86,72.51,24.85,153,52.44,258.87,41,39-4.21,259.57-33,344.16-206.13,38.12-78,33.12-153.64,29.91-181.57-5.05-43.9-14.27-124.06-68-154.89C668,25.48,624.42,93,515.71,85,403.6,76.75,387.37.42,274.75,0Z"/></g><g id="Tema5.2-2" data-name="Tema5.2"><path class="cls-2" d="M1161.75-44c-57.82-.21-141.2,19.58-161,70.7-19.3,50,41.88,78.72,41.3,150.13-1,118-169.17,165.34-154.15,242.64,8.82,45.38,74.3,67.82,162,97.86,72.51,24.85,153,52.44,258.87,41,39-4.21,259.57-33,344.16-206.13,38.12-78,33.12-153.64,29.91-181.57-5-43.9-14.27-124.06-68-154.89C1555-18.52,1511.42,49,1402.71,41,1290.6,32.75,1274.37-43.58,1161.75-44Z"/></g></svg>