<svg id="Forside" xmlns="http://www.w3.org/2000/svg" viewBox="0 0 645 501"><defs><style>.cls-1{fill:#f0f;}.cls-2{fill:lime;}.cls-3{fill:#f8ce00;}.cls-4{fill:#fff;}</style></defs><g id="Tema5.2"><path class="cls-1" d="M1040.14-77.15C982.32-77.37,899-57.57,879.2-6.45c-19.3,50,41.88,78.72,41.29,150.13-1,118-169.17,165.34-154.15,242.64,8.82,45.37,74.31,67.81,162,97.85,72.51,24.85,153,52.44,258.86,41,39-4.21,259.57-33,344.17-206.13,38.11-78,33.11-153.64,29.9-181.58-5-43.89-14.27-124-68-154.89-59.76-34.26-103.37,33.2-212.09,25.23C1169-.4,1152.76-76.73,1040.14-77.15Z"/></g><g id="Tema5.2-2" data-name="Tema5.2"><path class="cls-2" d="M-476.86,801.85c-57.82-.22-141.19,19.58-160.94,70.7-19.3,50,41.88,78.72,41.29,150.13-1,118-169.17,165.34-154.15,242.64,8.82,45.37,74.31,67.81,162,97.85,72.51,24.85,153,52.44,258.86,41,39-4.21,259.57-33,344.17-206.13,38.11-78,33.11-153.64,29.9-181.58-5-43.89-14.27-124.05-68-154.89-59.76-34.26-103.37,33.2-212.09,25.23C-348,878.6-364.24,802.27-476.86,801.85Z"/></g><g id="Tema5.1"><path d="M206.32,62c68.64,7.6,75.64,51.2,125,52.33C412.18,116.2,435-.1,512.41,0c57,.07,109.16,63.18,126,119.21,21.5,71.55-13.86,133.93-44.75,188.42C563.43,361,507,460.5,385.47,491.94c-122.4,31.66-222.58-28.56-248-45.13C110.86,429.4-8.55,351.43.49,233.9,4.62,180.19,35,125.81,83.2,93.2,91.52,87.57,141.43,54.84,206.32,62Z"/></g><g id="Tema2"><path class="cls-3" d="M68.07-580.25C39.44-559,7.92-535.72-.25-505.69c-9.29,34.16,15,64.59,33.64,96.27,48.7,82.71,82.89,214.25,45.26,259-42.28,50.3-190.38,9-285.3-62C-330.36-304.91-359.07-444.49-367-486c-13.05-68.6-41.58-218.6,58.32-328.17,101.14-110.93,268.08-108.19,370-61.71,31.59,14.41,93.87,42.81,110.48,105,15.72,58.88-14.73,128.38-57.3,161.29C99.48-597.9,94.25-599.63,68.07-580.25Z"/></g><path class="cls-4" d="M221.06,241.42a6.79,6.79,0,0,0-3.62.77,4.3,4.3,0,0,0-1.75,2.13,17.79,17.79,0,0,0-.88,3.2,10.08,10.08,0,0,1-1.25-.1,3.55,3.55,0,0,1-1.15-.35q.41-2.1.6-4.2c.13-1.4.2-2.67.2-3.8l3.43.1c1.35,0,2.81.05,4.4.05h9.9c1.61,0,3.1,0,4.47-.05l3.4-.1c0,1.2,0,2.43,0,3.7s.14,2.7.27,4.3a4.6,4.6,0,0,1-1.12.37,5.58,5.58,0,0,1-1.38.08,7,7,0,0,0-1.37-4.53,5.3,5.3,0,0,0-4.28-1.57Zm2.55-.85h4.7v26.1a8.67,8.67,0,0,0,.3,2.57,2,2,0,0,0,1.15,1.3,7.53,7.53,0,0,0,2.45.48,3.38,3.38,0,0,1,.2.92c0,.35.05.76.05,1.23-1.07-.07-2.16-.11-3.27-.13s-2.21,0-3.28,0c-.7,0-1.44,0-2.22,0l-2.28,0c-.73,0-1.42,0-2,.08,0-.47,0-.88,0-1.23a3.38,3.38,0,0,1,.2-.92,7.86,7.86,0,0,0,2.48-.48,2.12,2.12,0,0,0,1.2-1.3,8.26,8.26,0,0,0,.32-2.57Z"/><path class="cls-4" d="M241.91,239.07c.5,0,1.13.05,1.88.07l2.37.05,2.38,0h1.77v26.9a9.15,9.15,0,0,0,.35,2.85,2.26,2.26,0,0,0,1.35,1.4,8.15,8.15,0,0,0,2.85.4V273h-3.22c-1.22,0-2.45,0-3.7,0l-3.48,0c-1.07,0-1.92,0-2.55.08,0-.47,0-.88.05-1.23a3.38,3.38,0,0,1,.2-.92,5.57,5.57,0,0,0,2.1-.5,2.25,2.25,0,0,0,1.05-1.43,11.16,11.16,0,0,0,.3-3V245.57a8.62,8.62,0,0,0-.3-2.6,2.16,2.16,0,0,0-1.05-1.3,4.82,4.82,0,0,0-2.1-.45,3.68,3.68,0,0,1-.2-1C241.93,239.86,241.91,239.47,241.91,239.07Zm22.45,0c.07.73.15,1.58.25,2.55s.22,1.91.35,2.85.28,1.76.45,2.5a2.15,2.15,0,0,1-1,.47,6.3,6.3,0,0,1-1.28.13,8,8,0,0,0-.8-3,5.5,5.5,0,0,0-2.42-2.4,10.43,10.43,0,0,0-5-.95h-5.7l1.05-2q3.94,0,6.78,0c1.88,0,3.43,0,4.65-.07S263.83,239.07,264.36,239.07Zm-2.95,11.45c0,.83-.06,1.73-.07,2.7s0,1.88,0,2.75,0,1.83,0,2.9,0,2,.07,2.9c-.43,0-.83,0-1.2,0a7.07,7.07,0,0,1-1.1-.2c-.13-1.74-.59-2.91-1.37-3.53s-2.21-.92-4.28-.92h-3.6v-2.15h3.6a8.29,8.29,0,0,0,4.3-.8c.8-.54,1.22-1.62,1.25-3.25a6.84,6.84,0,0,1,1.2-.28A9,9,0,0,1,261.41,250.52Zm3.5,14a5.56,5.56,0,0,1,1.25.47,4.24,4.24,0,0,1,.95.73,29,29,0,0,0-.92,3.7q-.37,2-.63,3.75c-.63,0-1.49-.05-2.57-.05l-3.7,0c-1.39,0-2.86,0-4.43,0v-2.25h.3a15.57,15.57,0,0,0,5.43-.73,5.56,5.56,0,0,0,2.72-2.12A16.35,16.35,0,0,0,264.91,264.47Z"/><path class="cls-4" d="M291,273.47,279,247.27h.5l-1.7,17a18.67,18.67,0,0,0-.05,4.07,2.75,2.75,0,0,0,1,2A4.83,4.83,0,0,0,281,271a5.17,5.17,0,0,1,.2,1.15c0,.43.05.76.05,1-.8-.07-1.71-.11-2.72-.13s-1.9,0-2.63,0c-.47,0-1,0-1.62,0l-1.8,0c-.59,0-1.11,0-1.58.08,0-.24,0-.57,0-1a5.17,5.17,0,0,1,.2-1.15,4.74,4.74,0,0,0,2.13-.68,3.63,3.63,0,0,0,1.22-2,24.18,24.18,0,0,0,.7-4.55l1.6-17.8a8.76,8.76,0,0,0-.12-2.83,2.35,2.35,0,0,0-1.05-1.47,4.4,4.4,0,0,0-2.18-.45,5.24,5.24,0,0,1-.2-1.1c0-.4-.05-.75-.05-1.05l1.15.07,1.35.05,1.3,0c.43,0,.86,0,1.28,0l1.25-.05,1.27-.07L293.91,268h-1.1l11.4-28.95,1.25.07,1.33.05,1.32,0c.43,0,.86,0,1.28,0l1.25-.05,1.27-.07c0,.33,0,.68-.05,1.05a6.22,6.22,0,0,1-.2,1.1,3.57,3.57,0,0,0-2.72,1c-.65.68-.88,2-.68,4l1.8,18.35a22,22,0,0,0,.65,3.8,3.06,3.06,0,0,0,3,2.55,5.13,5.13,0,0,1,.2,1.1c0,.4,0,.76,0,1.1-.4,0-.85-.06-1.35-.08L311,273c-.55,0-1.09,0-1.6,0H308c-.6,0-1.27,0-2,0l-2.17,0c-.72,0-1.36,0-1.93.08a8.71,8.71,0,0,1,.08-1.05,6.69,6.69,0,0,1,.22-1.1,5.12,5.12,0,0,0,2.33-.65,2.26,2.26,0,0,0,.85-1.7,16.85,16.85,0,0,0-.13-3.4l-1.9-18.2h.55l-10.8,26.05a3.83,3.83,0,0,1-.95.27A7.37,7.37,0,0,1,291,273.47Z"/><path class="cls-4" d="M333.61,238.92l11.9,27.3c.57,1.23,1,2.18,1.4,2.85a4.13,4.13,0,0,0,1.13,1.4,3.55,3.55,0,0,0,1.32.55,6.13,6.13,0,0,1,.25,1.1c0,.3.05.65.05,1.05-.33,0-.85-.06-1.55-.08l-2.2,0c-.77,0-1.42,0-2,0s-.87,0-1.4,0l-1.65,0-1.52.05-1.08,0a8.42,8.42,0,0,1,.08-1.15,3.76,3.76,0,0,1,.27-1q2.05-.25,2.43-.93t-.63-3l-6.95-16.25c-.43-1-.82-2-1.15-2.75s-.73-1.82-1.2-3.05h.25c-.4,1.26-.76,2.34-1.07,3.22s-.63,1.73-.93,2.53l-5.7,14.85c-.73,2-1,3.32-.67,4.07s1.1,1.18,2.47,1.28a3.76,3.76,0,0,1,.28,1,8.46,8.46,0,0,1,.07,1.15c-.37,0-.82-.06-1.35-.08l-1.67,0c-.59,0-1.16,0-1.73,0-.83,0-1.62,0-2.35.05s-1.33.06-1.8.1a8.34,8.34,0,0,1,.08-1.08,3.81,3.81,0,0,1,.27-1,3.6,3.6,0,0,0,1.5-.7,5.4,5.4,0,0,0,1.18-1.63c.38-.75.82-1.77,1.32-3.07l10.35-26.55a8.93,8.93,0,0,1,.93-.15A7.54,7.54,0,0,1,333.61,238.92Zm4.55,20.85.45,2.25c-2.23,0-4.62,0-7.17.05s-4.86.08-6.93.15l.8-2.45Z"/><path class="cls-4" d="M367.61,247.92l3.18.07,2.72,0h2.75a2.54,2.54,0,0,0,2-.7,2.62,2.62,0,0,0,.57-1.7,4.43,4.43,0,0,1,1.08-.2c.41,0,.8,0,1.17,0a25.45,25.45,0,0,0-.25,2.92c0,1.05-.05,2.16-.05,3.33a1.5,1.5,0,0,1-.72.65,3.79,3.79,0,0,1-1.53.25h-2.2c-.93,0-1.91,0-2.92,0l-2.78.05c-.83,0-1.42,0-1.75.08l-1.2,5.05a35.84,35.84,0,0,1,7.5,2.35,12.76,12.76,0,0,1,5,3.75,9.3,9.3,0,0,1,1.77,5.85,10.83,10.83,0,0,1-1.15,5.1,12.12,12.12,0,0,1-3,3.72,13.41,13.41,0,0,1-4,2.3,12.14,12.14,0,0,1-4.15.78,11.45,11.45,0,0,1-3.4-.48,7.15,7.15,0,0,1-2.35-1.12,2.47,2.47,0,0,1,.15-.83,2.55,2.55,0,0,1,.5-.82,13.18,13.18,0,0,0,2,.5,16.57,16.57,0,0,0,2.87.25,7.31,7.31,0,0,0,3.7-1,7.4,7.4,0,0,0,2.75-2.8,8.42,8.42,0,0,0,1-4.27,6.79,6.79,0,0,0-1-3.78,9.15,9.15,0,0,0-2.75-2.72,15,15,0,0,0-3.75-1.75,19.35,19.35,0,0,0-4-.85,1.69,1.69,0,0,1-.62-.7,1.94,1.94,0,0,1-.23-.85Z"/></svg>