<svg id="Forside" xmlns="http://www.w3.org/2000/svg" viewBox="0 0 750.66 734.91"><defs><style>.cls-1{fill:#fff;}</style></defs><path d="M194.86,97C94.5,176.06,22.44,153.75,3.3,208.16c-10,28.51,3.5,63.55,31,132.46,55.64,139.68,87.24,219,150.62,255.81,95.46,55.41,156.43-47.53,252.28,15.91,63.1,41.77,58.66,100.95,109.75,118.35,86.22,29.36,214.15-100,203.09-208.29-10.3-100.85-135.41-128.13-147.52-258.63-3.81-41.06,5.46-71.94-12.83-122.13a227.86,227.86,0,0,0-65.73-94.55C438.49-26.55,320.17-4.44,246,49.34,219,68.89,228.75,70.24,194.86,97Z"/><path class="cls-1" d="M226,331.16c0-.47,0-.88,0-1.23a3.55,3.55,0,0,1,.2-.93,5.63,5.63,0,0,0,2.1-.47,2.08,2.08,0,0,0,1-1.3,8.72,8.72,0,0,0,.3-2.57V303.55a8.67,8.67,0,0,0-.3-2.6,2.14,2.14,0,0,0-1-1.29,5,5,0,0,0-2.1-.46,3.45,3.45,0,0,1-.2-.95c0-.36,0-.76,0-1.2.57,0,1.2.06,1.9.08l2.23.05c.78,0,1.54,0,2.27,0h2v26.46a9.2,9.2,0,0,0,.45,3.27,2.65,2.65,0,0,0,1.45,1.55,7.85,7.85,0,0,0,2.55.52,3.55,3.55,0,0,1,.2.93c0,.35.05.76.05,1.23-.5,0-1.09-.06-1.77-.08l-2.18-.05c-.77,0-1.55,0-2.35,0l-3.77,0C227.7,331.05,226.69,331.09,226,331.16Zm21-25.61a8.07,8.07,0,0,0-.8-3,5.53,5.53,0,0,0-2.42-2.39,10.42,10.42,0,0,0-5-1h-5.7l1.1-2c2.63,0,4.89,0,6.78,0s3.42,0,4.62-.08,2.07-.05,2.6-.05c.07.74.15,1.59.25,2.55s.22,1.92.35,2.85.28,1.77.45,2.5a2.07,2.07,0,0,1-1,.48A6.33,6.33,0,0,1,247.07,305.55Zm-1.25,15.2a11.32,11.32,0,0,1-1.2-.05,6.06,6.06,0,0,1-1.1-.2c-.13-1.73-.59-2.9-1.37-3.52s-2.21-.93-4.28-.93h-3.6v-2.14h3.6a8.17,8.17,0,0,0,4.3-.81c.8-.53,1.22-1.61,1.25-3.25a7.77,7.77,0,0,1,1.2-.27,9,9,0,0,1,1.2-.08c0,.84-.06,1.74-.07,2.7s0,1.89,0,2.75,0,1.84,0,2.9S245.79,319.89,245.82,320.75Z"/><path class="cls-1" d="M269.52,331.45a15.61,15.61,0,0,1-14.42-8.54A18.83,18.83,0,0,1,253,314a18.52,18.52,0,0,1,1.28-7,16.77,16.77,0,0,1,3.52-5.45,15.88,15.88,0,0,1,5.25-3.55,17.56,17.56,0,0,1,15,.93,15.66,15.66,0,0,1,5.87,6.05,18.32,18.32,0,0,1,2.15,9,19.32,19.32,0,0,1-1.2,6.88,16.59,16.59,0,0,1-3.42,5.55,15.94,15.94,0,0,1-5.25,3.7A16.56,16.56,0,0,1,269.52,331.45Zm1-2.45a8.74,8.74,0,0,0,5.58-1.82,11.61,11.61,0,0,0,3.57-4.95,18.55,18.55,0,0,0,1.25-6.93,20,20,0,0,0-1.62-8.17,14.72,14.72,0,0,0-4.43-5.83,10.24,10.24,0,0,0-6.4-2.14,8.75,8.75,0,0,0-5.27,1.67,11.32,11.32,0,0,0-3.68,4.72,17.44,17.44,0,0,0-1.35,7.11,23.29,23.29,0,0,0,.8,6.09,17,17,0,0,0,2.38,5.25,12.15,12.15,0,0,0,3.87,3.66A10.36,10.36,0,0,0,270.52,329Z"/><path class="cls-1" d="M312.67,331.45c-.67-1.1-1.22-2-1.65-2.77s-.82-1.45-1.15-2.1-.72-1.36-1.15-2.13c-.63-1.2-1.25-2.28-1.85-3.25a32.84,32.84,0,0,0-2.08-2.95,42.14,42.14,0,0,0-2.92-3.3l1.3.65q-1.31.06-2.4.06t-2.1-.06v-2.35c.47.07.9.12,1.3.16s.82,0,1.25,0a14.78,14.78,0,0,0,4.95-.77,7.54,7.54,0,0,0,3.5-2.43A6.61,6.61,0,0,0,311,306a6.53,6.53,0,0,0-1.87-4.82q-1.87-1.87-6.38-1.88a17.73,17.73,0,0,0-2.05.11,14.42,14.42,0,0,0-1.9.34l.25-.55v25.46a8.72,8.72,0,0,0,.3,2.57,2.09,2.09,0,0,0,1,1.3,5.13,5.13,0,0,0,2,.47,4.38,4.38,0,0,1,.2,1c0,.38.05.76.05,1.13-.7-.07-1.43-.11-2.2-.13l-2.13,0h-1.62l-3.08,0c-1.18,0-2.15.06-2.92.13,0-.37,0-.74.05-1.11a5.27,5.27,0,0,1,.2-1.05,5.63,5.63,0,0,0,2.1-.47,2.08,2.08,0,0,0,1-1.3,8.72,8.72,0,0,0,.3-2.57V303.55a8.91,8.91,0,0,0-.3-2.62,2.2,2.2,0,0,0-1-1.33,4.61,4.61,0,0,0-2.1-.4,4.92,4.92,0,0,1-.2-1c0-.33-.05-.7-.05-1.1.5,0,1.33.06,2.5.08s2.33,0,3.5,0c1.37,0,2.75,0,4.15,0s2.8-.06,4.2-.06a15,15,0,0,1,6.2,1.1,7.88,7.88,0,0,1,3.55,3,8.55,8.55,0,0,1,0,8.48,9.29,9.29,0,0,1-3.12,3.15,15.64,15.64,0,0,1-4.83,1.92l.25-.59a30.3,30.3,0,0,1,2.38,2.75c.65.86,1.32,1.84,2,2.94S313,322.34,314,324a23.44,23.44,0,0,0,1.88,2.78,5.09,5.09,0,0,0,1.92,1.5,8.56,8.56,0,0,0,3,.57c0,.4,0,.77,0,1.1a5,5,0,0,1-.18,1.05c-1.23,0-2.54,0-3.92.08A31.61,31.61,0,0,0,312.67,331.45Z"/><path class="cls-1" d="M335.57,331.45a15.41,15.41,0,0,1-5.42-.87,28.31,28.31,0,0,1-4.73-2.33,34.68,34.68,0,0,0,.38-3.8c.05-1.26.07-2.36.07-3.29a7.09,7.09,0,0,1,1.3-.23c.5-.05,1-.08,1.4-.08a13.39,13.39,0,0,0,.92,4.38,5.84,5.84,0,0,0,2.46,2.82,8.27,8.27,0,0,0,4.32,1c2.3,0,3.94-.5,4.93-1.52a5.11,5.11,0,0,0,1.47-3.68,5.43,5.43,0,0,0-1.2-3.62,10.22,10.22,0,0,0-3.1-2.43q-1.9-1-4-1.95a28.4,28.4,0,0,1-4-2.19,10.51,10.51,0,0,1-3.1-3.13,8.71,8.71,0,0,1-1.2-4.78,9.2,9.2,0,0,1,1.22-4.82,8,8,0,0,1,3.48-3.1,12.25,12.25,0,0,1,5.35-1.08,17.78,17.78,0,0,1,3.33.3,17.06,17.06,0,0,1,2.87.8,10.21,10.21,0,0,1,2.15,1.1c0,1,0,2.09.05,3.35a27.31,27.31,0,0,0,.25,3.25,6.68,6.68,0,0,1-1.32.33,9.72,9.72,0,0,1-1.48.12,15.21,15.21,0,0,0-1.3-4.4,4.58,4.58,0,0,0-1.95-2.07A5.9,5.9,0,0,0,336,299a6.16,6.16,0,0,0-4.15,1.3,4.59,4.59,0,0,0-1.5,3.66,5.51,5.51,0,0,0,1.2,3.64,10.54,10.54,0,0,0,3.1,2.5q1.9,1.05,4,2a32.87,32.87,0,0,1,4,2.2,10.51,10.51,0,0,1,3.1,3,8,8,0,0,1,1.2,4.55,9.64,9.64,0,0,1-1.2,4.7,8.83,8.83,0,0,1-3.7,3.55A13.64,13.64,0,0,1,335.57,331.45Z"/><path class="cls-1" d="M356.12,303.55a8.67,8.67,0,0,0-.3-2.6,2.14,2.14,0,0,0-1.05-1.29,5,5,0,0,0-2.1-.46,3.45,3.45,0,0,1-.2-.95c0-.36-.05-.76-.05-1.2.63,0,1.27.06,1.92.08l2,.05c.7,0,1.4,0,2.1,0s1.43,0,2.1,0l2-.05c.65,0,1.31,0,2-.08,0,.44,0,.84,0,1.2a3.45,3.45,0,0,1-.2.95,5,5,0,0,0-2.08.46,2.14,2.14,0,0,0-1.07,1.29,8.67,8.67,0,0,0-.3,2.6v21.11a8.72,8.72,0,0,0,.3,2.57,2.08,2.08,0,0,0,1.07,1.3,5.76,5.76,0,0,0,2.08.47,3.55,3.55,0,0,1,.2.93c0,.35,0,.76,0,1.23-1-.07-2-.11-3-.13l-3,0-3.1,0c-1.1,0-2.09.06-2.95.13,0-.47,0-.88.05-1.23a3.55,3.55,0,0,1,.2-.93,5.63,5.63,0,0,0,2.1-.47,2.08,2.08,0,0,0,1.05-1.3,8.72,8.72,0,0,0,.3-2.57Z"/><path class="cls-1" d="M370.12,331.16a11.21,11.21,0,0,1,.05-1.23,3.55,3.55,0,0,1,.2-.93,5.22,5.22,0,0,0,2.1-.5,2.26,2.26,0,0,0,1.07-1.42,10.22,10.22,0,0,0,.33-3V303.55a8.67,8.67,0,0,0-.3-2.6,2.14,2.14,0,0,0-1.05-1.29,5,5,0,0,0-2.1-.46,3.52,3.52,0,0,1-.2-1,11.4,11.4,0,0,1-.05-1.18c.53,0,1.21.06,2,.08l2.55.05c.89,0,1.69,0,2.43,0,1,0,1.95,0,2.95,0s2-.06,2.95-.06a38.94,38.94,0,0,1,5.35.38,22.18,22.18,0,0,1,5.15,1.35,13.55,13.55,0,0,1,4.37,2.8,12.64,12.64,0,0,1,3,4.65,19.38,19.38,0,0,1,1.1,7,21.58,21.58,0,0,1-1,6.95,14.65,14.65,0,0,1-2.68,4.85,14.48,14.48,0,0,1-3.72,3.15,17.9,17.9,0,0,1-4.18,1.8,22.65,22.65,0,0,1-4.07.8,31.69,31.69,0,0,1-3.35.2h-3.23l-3.7,0-3.47.05C371.6,331.1,370.75,331.12,370.12,331.16Zm12.95-2.41a20,20,0,0,0,5.52-.72,11,11,0,0,0,4.4-2.4,10.85,10.85,0,0,0,2.9-4.53,21,21,0,0,0,1-7.1,17.55,17.55,0,0,0-1.23-6.92,12.18,12.18,0,0,0-3.3-4.65,13.3,13.3,0,0,0-4.7-2.6,18,18,0,0,0-5.42-.83,17.44,17.44,0,0,0-2.4.18,5.22,5.22,0,0,0-1.7.42l.4-1.3v25.8a8.78,8.78,0,0,0,.35,2.85,2.21,2.21,0,0,0,1.32,1.4A7.69,7.69,0,0,0,383.07,328.75Z"/><path class="cls-1" d="M406.62,297.05c.5,0,1.12.06,1.87.08l2.38.05c.83,0,1.62,0,2.37,0H415v26.9a8.78,8.78,0,0,0,.35,2.85,2.21,2.21,0,0,0,1.35,1.4,7.85,7.85,0,0,0,2.85.4V331h-3.23l-3.7,0-3.47.05c-1.07,0-1.92,0-2.55.08a11.21,11.21,0,0,1,.05-1.23,3.55,3.55,0,0,1,.2-.93,5.22,5.22,0,0,0,2.1-.5,2.2,2.2,0,0,0,1-1.42,11.2,11.2,0,0,0,.3-3V303.55a8.67,8.67,0,0,0-.3-2.6,2.14,2.14,0,0,0-1-1.29,5,5,0,0,0-2.1-.46,3.52,3.52,0,0,1-.2-1A11.4,11.4,0,0,1,406.62,297.05Zm22.45,0c.06.74.15,1.59.25,2.55s.21,1.92.35,2.85.28,1.77.45,2.5a2.06,2.06,0,0,1-1,.48,6.23,6.23,0,0,1-1.27.12,8.26,8.26,0,0,0-.8-3,5.56,5.56,0,0,0-2.43-2.39,10.4,10.4,0,0,0-5-1H414l1-2c2.63,0,4.89,0,6.77,0s3.44,0,4.65-.08S428.53,297.05,429.07,297.05Zm-2.95,11.45c0,.84-.06,1.74-.08,2.7s0,1.89,0,2.75,0,1.84,0,2.9,0,2,.08,2.9a11.09,11.09,0,0,1-1.2-.05,5.91,5.91,0,0,1-1.1-.2c-.14-1.73-.59-2.9-1.38-3.52s-2.21-.93-4.27-.93h-3.6v-2.14h3.6a8.19,8.19,0,0,0,4.3-.81c.8-.53,1.21-1.61,1.25-3.25a7.77,7.77,0,0,1,1.2-.27A8.72,8.72,0,0,1,426.12,308.5Zm3.5,13.95a6.29,6.29,0,0,1,1.25.48,4,4,0,0,1,.95.73,29.21,29.21,0,0,0-.93,3.69c-.25,1.34-.46,2.59-.62,3.75-.64,0-1.49-.05-2.58-.05s-2.31,0-3.7,0-2.86,0-4.42,0v-2.25h.3a15.51,15.51,0,0,0,5.42-.72,5.54,5.54,0,0,0,2.73-2.12A16.21,16.21,0,0,0,429.62,322.45Z"/></svg>