<svg id="Forside" xmlns="http://www.w3.org/2000/svg" viewBox="0 0 645 501"><defs><style>.cls-1{fill:#f9cf00;}</style></defs><g id="Tema5.1"><path d="M206.32,62c68.64,7.6,75.64,51.2,125,52.33C412.18,116.2,435-.1,512.41,0c57,.07,109.16,63.18,126,119.21,21.5,71.55-13.86,133.93-44.75,188.42C563.43,361,507,460.5,385.47,491.94c-122.4,31.66-222.58-28.56-248-45.13C110.86,429.4-8.55,351.43.49,233.9,4.62,180.19,35,125.81,83.2,93.2,91.52,87.57,141.43,54.84,206.32,62Z"/></g><g id="Tema2"><path class="cls-1" d="M72.07-776.25C43.44-755,11.92-731.72,3.75-701.69c-9.29,34.16,15,64.59,33.64,96.27,48.7,82.71,82.89,214.25,45.26,259-42.28,50.3-190.38,9-285.3-62C-326.36-500.91-355.07-640.49-363-682c-13.05-68.6-41.58-218.6,58.32-328.17,101.14-110.93,268.08-108.19,370-61.71,31.59,14.41,93.87,42.81,110.48,105,15.72,58.88-14.73,128.38-57.3,161.29C103.48-793.9,98.25-795.63,72.07-776.25Z"/></g></svg>