<svg id="Forside" xmlns="http://www.w3.org/2000/svg" viewBox="0 0 750.66 734.91"><path d="M194.86,97C94.5,176.06,22.44,153.75,3.3,208.16c-10,28.51,3.5,63.55,31,132.46,55.64,139.68,87.24,219,150.62,255.81,95.46,55.41,156.43-47.53,252.28,15.91,63.1,41.77,58.66,100.95,109.75,118.35,86.22,29.36,214.15-100,203.09-208.29-10.3-100.85-135.41-128.13-147.52-258.63-3.81-41.06,5.46-71.94-12.83-122.13a227.86,227.86,0,0,0-65.73-94.55C438.49-26.55,320.17-4.44,246,49.34,219,68.89,228.75,70.24,194.86,97Z"/></svg>