<svg id="Forside" xmlns="http://www.w3.org/2000/svg" viewBox="0 0 1920 1080"><defs><style>.cls-1{fill:#fff;}.cls-2{fill:#2d22b9;}.cls-3{fill:#24b72b;}.cls-4{fill:#ec780c;}.cls-5{font-size:150px;font-family:MyriadPro-Regular, Myriad Pro;}.cls-6{letter-spacing:-0.08em;}.cls-7{letter-spacing:0.01em;}.cls-8{letter-spacing:-0.03em;}.cls-9{font-size:70px;font-family:SnellRoundhand, Snell Roundhand;}</style></defs><rect class="cls-1" x="-0.5" y="-0.5" width="1921" height="1080"/><polygon class="cls-2" points="277.13 330.67 171.49 389.68 135.5 513.95 159.88 731.21 401.36 868 546.47 759.82 684 599.34 684 501.73 523.25 365.54 425.74 281.5 277.13 330.67"/><polyline class="cls-3" points="1149.5 379.44 1108.5 630.26 1257.6 868 674.24 868 781.89 623.72 774.5 476.88 618.5 354.18 1139.5 282"/><polyline class="cls-4" points="1280.62 338.59 1644.21 282 1723.77 428.04 1785 684.53 1665.65 868 1349.11 744.78 1222.57 549.67"/><text class="cls-5" transform="translate(-0.23 123.53)">FILIP<tspan class="cls-6" x="295.35" y="0">P</tspan><tspan x="362.55" y="0">A</tspan><tspan class="cls-7" x="454.35" y="0">R</tspan><tspan x="536.39" y="0">TFOLI</tspan><tspan class="cls-8" x="893.99" y="0">O</tspan><tspan x="992.24" y="0">.DK</tspan></text><text class="cls-9" transform="translate(1257.36 1012.66)">Filippa de Neergaard</text></svg>